<svg xmlns="http://www.w3.org/2000/svg" width="176" height="176" version="1.2"><defs><clipPath id="cp1" clipPathUnits="userSpaceOnUse"><path d="M-37-39h252v256H-37z"/></clipPath><clipPath id="cp2" clipPathUnits="userSpaceOnUse"><path d="M89.58 169.77c45.39 0 82.17-36.67 82.17-81.9 0-45.23-36.78-81.9-82.17-81.9-45.38 0-82.16 36.67-82.16 81.9 0 45.23 36.78 81.9 82.16 81.9z"/></clipPath></defs><style>.s0{fill:#5eb39b}</style><g id="Clip-Path" clip-path="url(#cp1)"><g clip-path="url(#cp2)"><path d="m144.2 103.8.1.5c1.1 3.6 2.6 8.1 4.9 12.3 2 3.6 4.5 6.9 6.9 10.1l3.8 5 1.6 2.1c3.9 5.1 8.3 11 9.4 17.8l1-.1c-1-7.1-5.6-13.1-9.6-18.4l-1.5-2q-1.9-2.6-3.8-5.1c-2.4-3.1-4.9-6.4-6.8-9.9-2.2-3.9-3.6-8-4.6-11.4-.2-.5 0-1 .5-1.3.8-.5 1.7-1.1 2.4-1.8 2-2.1 3-5.3 2.4-8.5-.6-3.4-2.6-6-4.2-7.6l-.5-.5c-.8-.8-1.6-1.5-1.9-2.5-.3-.8-.3-1.7-.3-2.7 0-.8 0-1.6-.2-2.5-.3-1.5-1.2-2.7-2.1-3.8-.7-.8-1.2-1.6-1.6-2.4-.9-1.8-.9-3.7-1-5.8 0-1.3 0-2.5-.2-3.8-.4-2.5-1.6-4.9-3.3-6.8q-.4-.3-.7-.6c-.6-.6-1.1-1.1-1.5-1.7-.4-.9-.6-1.9-.8-2.7-.7-4.3-1.8-9.1-4.5-12.4-1.6-2-4.9-2.4-7-.9q-.2.2-.4.3c-.3.3-.6.5-.9.6-.5.1-1-.2-1.5-.6-.4-.2-.7-.4-1.1-.5-2.1-.9-4.3.5-5.4 1.5-2 1.7-3.7 4-4.7 6.5-.3.8-.5 1.6-.8 2.3-.4 1.5-.9 2.9-1.7 4.1-.5.7-1 1.4-1.7 2.1-.8.9-1.7 1.9-2.2 3-.7 1.5-.9 3.1-1 4.7-.1.8-.2 1.7-.4 2.5-.5 2.8-2.1 5.1-3.8 7.6-.2.3-.6.4-.9.4q-1.7.1-3.1.3c-4.1.2-7.2.8-10 1.4-3.2.6-6.1 1.1-10 1.1-1.6 0-2.5-.3-3.1-1-.2-.2-.3-.5-.5-.8-1.3-2.6-2.4-5.3-3.5-8s-2.3-5.4-3.6-8c-1.8-3.6-3.6-7.4-6.3-10.6-3.1-3.7-6.8-6-10.6-6.6-.9-.1-2-.2-2.9.5-.6.4-.9 1.1-.9 1.7 0 .5.3.9.5 1.1-1 0-1.9.6-2.4 1.6-6.1 11.7-22.1 46.8-20 87.3 2.1 40.5 21.6 73.8 28.8 84.8 1.2 1.8 3.9 1.7 4.9-.2 6-11.7 22-46.9 19.9-87.4-.8-16.7-4.7-32.2-9.4-45.4l1 .6C66 84.6 69 85 72.1 85c3.1 0 6.3-.4 9.5-.8 2.6-.4 5.4-.8 8-.9q-.4 2.3-.4 4.7 0 1.1.1 2.2c.1 1.9.2 3.7-.2 5.4-.2 1.2-.7 2.2-1.2 3.3-.4.9-.8 1.9-1.1 3-.6 2.1-.5 5.1 1.6 6.6.5.4 1 .6 1.5.8.5.2.9.4 1.3.6.8.6 1.3 1.5 1.9 2.5q.3.4.5.8c1.1 1.7 2.4 2.6 3.7 2.6h.2c1.2-.1 2.4-.9 3.2-2.3l.2-.4q.4.9.9 1.8c.4.9.9 1.8 1.4 2.7.9 1.6 1.7 3.2 2.4 4.8 1.5 3.5 2.3 7.4 2.7 12.1.3 3.9.2 7.9.1 11.9-.1 8.1-.3 16.6 2.9 24.2l1-.4c-3.1-7.4-2.9-15.8-2.8-23.8.1-3.5.2-7.1 0-10.6 2.3 2.3 4.9 3.9 7.5 4.9q.9.3 1.5 1l8 9.3c1.5 5.5 1.5 11.3.2 16.8l1.1.2c1.2-5.2 1.2-10.7.1-16q.4.2.8.2.1 0 .3-.1.5 0 1-.3c.1 5.2.9 10.3 2.3 15.2l1-.3c-1.5-5.2-2.2-10.6-2.3-16q.1-.2.2-.5l3.4-14.9q.2-.7.6-1.3c2.5-3.8 4.3-8.6 5-14.1q.2.2.3.5 1.8 2.5 3.9 4.9c6.5 12.5 8.7 27.1 6.4 41l1 .1c2.2-12.8.5-26.2-4.8-38.1q1.8 2 3.6 3.9c1.1 1.2 2.3 2.5 3.4 3.7 4.2 4.6 8.8 10.2 11.3 16.8l1-.4c-2.5-6.7-7.2-12.4-11.5-17.1-1.1-1.2-2.3-2.5-3.5-3.7-3.4-3.7-7-7.5-9.9-11.7q-.6-.8-1.1-1.7c-3.5-5.4-5.4-10.7-5.6-15.8q-.1-.6-.1-1.2c0-1.2.1-2.4.2-3.5.1-1.5.2-3 .2-4.6-.1-2.8-.9-5.7-2.2-8.2q-1.4-2.9-1.2-6.4.1-1.2.3-2.2.3.1.6.3c3.6 2.2 5.4 6.4 6.6 9.8 1.4 3.7 2.4 7.6 3.4 11.4.5 2 1.1 4 1.7 6v.1zm-21.7-4.1c-1.7-.1-3.1-.2-4.3-.3-2.4-.2-4.2-.3-6.6-.1-.2-3.9-2.3-9.2-4.3-12.9-2-3.7-2.9-7.4-2.7-10.7.1-1 .1-2 .1-3l1 .1c2.7.3 5.3.5 7.6.6.5 0 1.1 0 1.5-.3.6-.4.8-1.1.9-1.7q.3-1.6.4-3.2c.8.5 1.5 1 2 1.4q.5.3 1.1.3c.4 0 .8-.1 1.2-.4l4.2-3.4v.3q-.1.8-.1 1.6c-.2 2.8 1.3 5.3 3.8 6.5q.8.4 1.6.7l.4.2q.3.1.6.3c-.2 1-.4 2-.5 2.9-.1.9-.2 1.9-.4 2.9-.3 1.5-1.4 3.1-2.4 4.5q-.6.8-1.1 1.5c-1.1 1.7-4.5 7.6-4 12.2zm-6.4-35.3q.7.4 1.6.9.7.4 1.5.4h.1q.9 0 1.6-.6 1-.7 1.9-1.2l.2-.1q.1-.1.1-.3l-.2-.2-2.5-1.8c-.2-.1-.6-.2-.9 0l-.4.3q-.3.1-.6 0l-.4-.1c-.3-.2-.6-.1-.9.2l-1.2 1.3q-.2-2.8-1-5.4l-.6-2c-.5-1.4-1-2.8-1.2-4.2.8-.1 1.7.1 2.6.5.3.1.6 0 .7-.3.1-.2 0-.6-.2-.7-1.2-.5-2.2-.6-3.2-.6v-.3c0-2.3 1.2-5.1 3.6-5.6.4-.1.9-.1 1.3-.2.8-.1 1.6-.1 2.3-.4.6-.3 1.2-.3 1.8-.1.5.2.9.6 1.1 1.2q0 .1.1.3c.3 1.3.1 2.6-.1 3.9-1.8.5-3 1.6-3.1 1.6-.2.2-.2.6 0 .8q.2.1.4.1t.3-.1c.1 0 .9-.8 2.1-1.2-.3 1.6-.6 3.2-.5 4.8.2 1.4.7 2.8 1.2 4.1.5 1.3 1 2.5 1.1 3.8q.1.7 0 1.4l-5 4.1c-.3.2-.7.2-1 0-.6-.4-1.6-1.1-2.5-1.7q0-1.3-.1-2.6zM49.4 212.7q-.1.1-.2.1c-.5 0-1-.4-1.1-.9-3.8-16.7-8.5-48.3-9.2-103.2-.5-32.8.7-58.8.7-59 0-.6.5-1.1 1.1-1 .6 0 1 .5 1 1.1 0 .2-1.2 26.2-.7 58.9.8 54.7 5.4 86.1 9.2 102.8.1.5-.2 1.1-.8 1.2zm32-129.6c-6.2.9-12.6 1.7-17.6-.8-1-.5-1.9-1.4-2.3-2.6-1-2.8-2.1-5.7-3.2-8.4-1.1-3-2.4-6-3.4-9.2l-.4-1.1c-1-2.9-2-6-3.6-8.8-1.8-3.2-4.1-5.7-6.8-7.2q-.6-.9-1.1-1.7h.5q.4.1.7.2c1.5.5 3 .9 4 1.9l.8-.8c-1.3-1.2-2.9-1.6-4.5-2.1-.8-.2-1.6-.4-2.4-.8-.6-.2-.9-.5-.9-.9 0-.2.1-.5.4-.7.6-.5 1.4-.4 2.1-.3 3.5.5 7.1 2.7 9.9 6.2 2.7 3.1 4.5 6.8 6.3 10.4 1.2 2.5 2.4 5.3 3.5 7.9 1.1 2.7 2.3 5.5 3.6 8 .1.4.3.8.6 1.1 1 1.2 2.7 1.4 3.9 1.4h.2c3.9 0 6.9-.6 10-1.2 2.9-.5 5.8-1.1 9.9-1.4 1.2-.1 2.4-.2 3.8-.2 2.7 0 5.5.3 8.1.5.1 2.5-.4 6.9-.5 6.9 0 .1-.3 2.9-.7 4.2-.7 1.9-1.8 3.6-3 5.3-.8 1.1-1.6 2.2-2.2 3.5-.3-1.9-.7-3.7-1.3-5.5-1.3-4-3.5-4.7-5.1-4.7q-.2 0-.5.1h-.4c-2.8.1-5.6.4-8.4.8zM45.5 47.2c2.1 1.7 3.5 3.8 4.5 5.5 1.5 2.7 2.5 5.8 3.5 8.7l.4 1.1c-3.1-6.2-6.1-11.4-8.4-15.3zm52.8 54h.5q.5-.1 1-.1t1-.1h1q.5-.1 1-.1t1-.1h1q.5-.1 1-.1h1q.5-.1 1-.1h1q.5 0 1-.1H117q.5 0 1 .1h1.1q.4 0 .9.1.6 0 1.1.1h1q.5.1 1.1.2.4 0 .9.1.6 0 1.2.1.4.1.8.1.7.1 1.3.3.4 0 .7.1l2 .4.5.1.8.2q.1 0 .2.1.3 0 .6.1h.3q.3.1.5.1.2.1.4.1h.2c.3 5.1 2.2 10.4 5.7 15.7-.7 6.2-2.6 11.6-5.5 15.5-2.6 3.5-5.9 5.7-9.5 6.3q-2.6.5-5.3-.1-.3-.1-.7-.2c-3.1-.9-6.2-2.9-9-5.8-.3-4.7-1.2-8.6-2.7-12.2-.7-1.7-1.6-3.3-2.5-4.9-.4-.9-.9-1.8-1.4-2.7q-.7-1.4-1.3-2.9-.3-.6-.5-1.3l-.2-.4q-.2-.4-.3-.9-.1-.2-.2-.5-.1-.4-.3-.8-.1-.2-.1-.5-.2-.4-.3-.8-.1-.3-.1-.5-.2-.4-.3-.8 0-.3-.1-.6l-.2-.8q-.1-.3-.1-.6-.1-.3-.2-.7-.1-.3-.1-.6-.1-.3-.1-.5" class="s0"/><path d="M123.3 126.2c.1-.3-.1-.6-.4-.7-.2-.1-.5.1-.6.4-.3.9-.2 2 .4 2.8q.2.3.5.3.1 0 .3-.1c.2-.2.3-.5.1-.8-.4-.5-.5-1.3-.3-1.9z" class="s0"/></g><path d="M89.6 172.3c-22.7 0-44-8.8-60-24.8S4.8 110.3 4.8 87.7c0-22.5 8.8-43.8 24.8-59.7 16-16 37.3-24.8 60-24.8 22.6 0 43.9 8.8 59.9 24.8 16.1 15.9 24.9 37.2 24.9 59.7 0 22.6-8.8 43.8-24.9 59.8-16 16-37.3 24.8-59.9 24.8zm0-163.8c-21.3 0-41.2 8.2-56.3 23.2-15 15-23.3 34.9-23.3 56 0 21.2 8.3 41.1 23.3 56.1 15.1 15 35 23.2 56.3 23.2 21.2 0 41.2-8.2 56.2-23.2 15.1-15 23.3-34.9 23.3-56.1 0-21.1-8.2-41-23.3-56-15-15-35-23.2-56.2-23.2z" class="s0"/></g></svg>