<svg width="118" height="30" viewBox="0 0 118 30" fill="none" xmlns="http://www.w3.org/2000/svg">
<g clip-path="url(#clip0_199_290)">
<mask id="mask0_199_290" style="mask-type:luminance" maskUnits="userSpaceOnUse" x="0" y="0" width="118" height="30">
<path d="M0 0H118V30H0V0Z" fill="white"/>
</mask>
<g mask="url(#mask0_199_290)">
<path d="M0 22.9712C0 23.2283 0.256202 23.4005 0.512405 23.4005H4.78749C5.0437 23.4005 5.2999 23.2297 5.38576 22.8863L8.03778 0.513692V0.427846C8.03778 0.170769 7.86606 0 7.69571 0H3.07856C2.82236 0 2.7365 0.170769 2.7365 0.429231L0 22.9712ZM25.3099 10.0288C25.3099 10.7146 25.224 11.4005 25.1395 12.0858L23.7713 22.8863C23.7713 23.1434 23.5151 23.4 23.2584 23.4H19.3254C19.0692 23.4 18.813 23.2292 18.813 22.9712V22.8854L20.0954 12.4278C20.1812 11.9986 20.1812 11.4849 20.1812 11.142C20.1812 10.6283 20.0954 10.1995 19.8392 9.94246C19.4971 9.59954 18.9851 9.42877 18.2147 9.42877C16.6766 9.42877 14.8799 9.858 14.8799 9.858L13.2555 22.9726C13.2555 23.2292 12.9993 23.4863 12.6572 23.4863H8.72419C8.46799 23.4863 8.21179 23.3155 8.21179 23.0571V22.9712L9.9221 8.91415C10.35 7.62831 11.1186 7.28538 13.0865 6.85662C14.7968 6.51369 17.3612 6.08492 19.3281 6.08492C21.6367 6.08492 23.347 6.42785 24.3732 7.37031C24.8856 7.97031 25.3135 8.82785 25.3135 10.0274L25.3099 10.0288ZM65.9262 0.429231C65.9262 0.172154 65.8403 0.0858462 65.5841 0.0858462H60.967C60.7108 0.0858462 60.5391 0.256615 60.5391 0.515077L57.7172 24.0014C57.2892 26.4014 56.263 26.4014 54.6386 26.4877C53.9545 26.4877 53.3562 26.4877 52.9283 26.5735C52.4159 26.5735 52.2442 26.7443 52.1583 27.2594L51.9021 29.1448V29.3155C51.9021 29.7448 52.1583 29.8292 52.5004 29.8292C53.0986 29.9151 53.3548 30 55.5789 30C59.3416 30 62.4202 28.8854 63.0184 23.8278L65.9262 0.429231Z" fill="#167DB7"/>
<path d="M54.8103 18.7717C53.7841 21.6858 51.5614 23.6571 46.4305 23.6571C43.5236 23.6571 41.7274 23.0571 40.6154 21.9425C39.5033 20.8278 39.1613 19.1995 39.1613 17.4005C39.1613 15.3429 39.5892 12.2571 40.3578 10.4575C41.4699 7.71462 43.6926 5.91508 48.5659 5.91508C51.4728 5.91508 53.3548 6.60092 54.381 7.62969C55.493 8.74431 55.8351 10.2005 55.8351 12.0872C55.8351 14.1448 55.493 16.9726 54.8089 18.7731M50.2776 9.94385C49.8497 9.51462 49.2514 9.258 48.1394 9.258C45.8308 9.258 45.0608 10.2868 44.6329 12.6009C44.3767 14.1434 44.1205 15.9438 44.1205 17.5722C44.1205 18.6014 44.2908 19.2868 44.7188 19.7155C45.1467 20.1448 45.745 20.3155 46.7711 20.3155C49.1656 20.3155 49.8497 19.2009 50.2776 16.8005C50.5338 15.258 50.79 13.6283 50.79 12.0858C50.79 11.0575 50.7042 10.3717 50.2776 9.94246M82.4283 18.7717C81.4021 21.6858 79.1794 23.6571 74.0489 23.6571C71.1416 23.6571 69.3459 23.0571 68.2338 21.9425C67.1218 20.8278 66.7797 19.1995 66.7797 17.4005C66.7797 15.3429 67.2076 12.2571 67.9762 10.4575C69.0883 7.71462 71.311 5.91508 76.2702 5.91508C79.1771 5.91508 81.0591 6.60092 82.0853 7.62969C83.1973 8.74431 83.5394 10.2005 83.5394 12.0872C83.4535 14.1448 83.1115 16.9726 82.4273 18.7731M77.896 9.94385C77.4681 9.51462 76.8699 9.258 75.7578 9.258C73.4492 9.258 72.6793 10.2868 72.2513 12.6009C71.9951 14.1434 71.7389 15.9438 71.7389 17.5722C71.7389 18.6014 71.8248 19.2868 72.3372 19.7155C72.7651 20.1448 73.3634 20.3155 74.3896 20.3155C76.784 20.3155 77.4681 19.2009 77.896 16.8005C78.1523 15.258 78.4085 13.6283 78.4085 12.0858C78.4943 11.0575 78.3226 10.3717 77.896 9.94246M101.24 18.2585C100.128 21.858 97.9055 23.6585 92.7746 23.6585C90.2943 23.6585 88.0716 23.3155 86.8751 22.8868C85.5927 22.4575 85.3365 21.9438 85.3365 21.0858C85.3365 20.6571 85.4223 20.1434 85.5068 19.5434L87.7295 0.771692C87.7295 0.342462 87.9857 0.0858462 88.4137 0H92.3467C92.6029 0 92.8596 0.170769 92.8596 0.429231V0.515077L92.3467 4.62969L92.0905 6.51508C92.0905 6.51508 94.057 5.91508 96.1094 5.91508C98.1618 5.91508 99.7862 6.34431 100.727 7.28677C101.667 8.22923 102.181 9.68677 102.181 11.9151C102.181 13.9726 101.839 16.2868 101.24 18.258V18.2585ZM96.709 10.0297C96.2811 9.516 95.597 9.34431 94.5708 9.34431C93.2884 9.34431 91.5781 9.77308 91.5781 9.77308L90.2957 20.0585C90.2957 20.0585 91.4077 20.3155 92.776 20.3155C95.0846 20.3155 96.0249 19.6297 96.6232 16.2868C96.8794 14.9151 97.0511 13.4575 97.0511 12.0014C97.1369 11.0585 96.9652 10.3722 96.709 10.0297ZM117.316 9.42923C117.23 9.68585 117.06 9.77169 116.803 9.77169H116.633C116.291 9.77169 114.495 9.34246 112.786 9.34246C112.016 9.34246 110.99 9.42877 110.392 9.94246C109.964 10.2854 109.793 10.7991 109.793 11.3142C109.793 12.6858 111.247 12.6858 112.786 13.0288C114.068 13.1995 115.351 13.5425 116.206 14.4005C116.89 15 117.232 15.9425 117.232 17.4005C117.232 18.9425 116.72 20.5722 115.608 21.7717C114.154 23.2292 111.931 23.8292 109.451 23.8292C106.715 23.8292 104.15 23.1434 103.636 22.8863C103.55 22.8005 103.38 22.8005 103.38 22.5434V22.2868L104.064 20.2292C104.15 19.9726 104.32 19.8005 104.492 19.8005H104.662C105.09 19.8863 107.313 20.5722 109.279 20.5722C110.22 20.5722 110.99 20.4014 111.588 19.8863C112.1 19.4575 112.272 18.9438 112.272 18.4288C112.272 17.7429 112.016 17.4 111.588 17.1434C111.16 16.8863 110.562 16.8005 109.792 16.7142C108.595 16.4575 106.97 16.2854 105.945 15.2571C105.346 14.5712 104.919 13.7146 104.919 12.4278C104.919 10.9698 105.261 9.51369 106.201 8.39862C107.825 6.42785 110.562 6.17077 112.614 6.17077C115.179 6.17077 117.146 6.68446 117.745 6.94246C118.001 7.02877 118.001 7.19954 118.001 7.37169V7.54246L117.317 9.42785L117.316 9.42923ZM39.6746 0.6C39.1631 0.429231 37.709 0.0853846 35.4 0.0853846C31.6373 0.0853846 29.6708 1.8 29.2429 5.22877L29.0725 7.28631L28.6446 10.8014L27.106 22.1155V22.3722L27.0201 22.9722C27.0201 23.2288 27.2763 23.3151 27.5325 23.3151H31.2952C31.5514 23.3151 31.8935 23.2288 31.9794 22.8858V22.6292L33.6897 10.8H37.6227C37.8789 10.8 38.1351 10.6292 38.1351 10.2863L38.4772 7.71554C38.4772 7.45846 38.3068 7.28631 38.0492 7.28631H33.9445L34.2007 5.22877C34.371 3.85754 34.9707 3.51462 36.5093 3.51462C37.3637 3.51462 38.3899 3.68538 38.732 3.77123H38.9023C39.159 3.77123 39.2444 3.60046 39.3303 3.342L39.9285 1.11415V0.943385C39.9285 0.772615 39.8431 0.600462 39.6723 0.600462L39.6751 0.599077L39.6746 0.6Z" fill="#167DB7"/>
</g>
</g>
<defs>
<clipPath id="clip0_199_290">
<rect width="118" height="30" fill="white"/>
</clipPath>
</defs>
</svg>
