<svg xmlns="http://www.w3.org/2000/svg" width="252" height="256" fill="none"><g clip-path="url(#a)"><mask id="b" width="165" height="165" x="44" y="44" maskUnits="userSpaceOnUse" style="mask-type:luminance"><path fill="#fff" d="M126.585 208.768c45.381 0 82.17-36.668 82.17-81.9 0-45.2315-36.789-81.8992-82.17-81.8992-45.3805 0-82.1689 36.6677-82.1689 81.8992 0 45.232 36.7884 81.9 82.1689 81.9Z"/></mask><g fill="#5EB39B" mask="url(#b)"><path d="m181.185 142.79.157.545c1.056 3.561 2.552 8.048 4.875 12.271 1.967 3.583 4.474 6.885 6.897 10.082 1.268 1.67 2.536 3.339 3.801 5.008l1.575 2.078c3.917 5.162 8.356 11.016 9.396 17.842l1.055-.159c-1.081-7.094-5.607-13.06-9.6-18.324l-1.575-2.078c-1.266-1.669-2.534-3.341-3.802-5.008-2.399-3.163-4.88-6.437-6.81-9.948-2.139-3.894-3.57-8.031-4.596-11.432-.145-.479.065-.984.498-1.235.875-.505 1.733-1.097 2.484-1.866 2.006-2.062 2.914-5.291 2.376-8.428-.591-3.435-2.633-6.076-4.245-7.687-.155-.157-.315-.312-.475-.466-.806-.783-1.568-1.52-1.93-2.465-.315-.824-.299-1.74-.281-2.711.016-.816.032-1.659-.157-2.488-.339-1.494-1.274-2.69-2.174-3.847-.614-.787-1.194-1.53-1.604-2.362-.866-1.764-.895-3.755-.924-5.862-.018-1.227-.034-2.496-.231-3.726-.399-2.5115-1.583-4.9162-3.337-6.774-.207-.2197-.422-.4317-.638-.6436-.572-.5652-1.113-1.0964-1.48-1.7375-.468-.8216-.641-1.829-.793-2.716-.735-4.2624-1.843-9.0586-4.508-12.3294-1.659-2.0436-4.969-2.4544-7.082-.8766-.113.0838-.221.1727-.331.2591-.31.2512-.601.4867-.911.5495-.486.102-.985-.2015-1.56-.5547-.322-.1989-.659-.403-1.021-.5495-2.11-.8583-4.287.5835-5.395 1.5202-2.063 1.7453-3.691 3.9956-4.704 6.5101-.31.7719-.564 1.5726-.811 2.3445-.467 1.4679-.909 2.8573-1.701 4.0819-.478.7378-1.066 1.3946-1.694 2.0854-.832.9237-1.693 1.8787-2.257 3.0457-.709 1.4679-.861 3.0798-1.011 4.6366-.079.8403-.163 1.7063-.331 2.5223-.58 2.779-2.147 5.131-3.864 7.58-.197.28-.52.448-.864.456-1.134.021-2.163.086-3.121.219-4.119.278-7.214.88-9.947 1.398-3.282.625-6.12 1.162-10.055 1.143-1.533-.005-2.502-.306-3.045-.95-.207-.246-.362-.554-.525-.881-1.263-2.557-2.415-5.296-3.528-7.95-1.121-2.666-2.279-5.4212-3.5549-8.0038-1.8009-3.6502-3.6622-7.4233-6.374-10.6496-3.04-3.6161-6.8019-5.9344-10.598-6.5284-.8637-.1334-1.9715-.2041-2.8694.4449-.5775.4134-.9109 1.0754-.8689 1.7269.0315.4893.2441.8556.5119 1.1278-.9792.0104-1.9505.5364-2.473 1.5516-6.0301 11.6726-22.0465 46.8216-19.9674 87.3056 2.0845 40.484 21.6187 73.819 28.8144 84.812 1.1998 1.839 3.8644 1.703 4.8724-.249 6.0275-11.67 22.0469-46.821 19.9679-87.305-.862-16.741-4.71-32.258-9.4302-45.479.2966.232.6192.436.9632.609 2.641 1.322 5.597 1.761 8.69 1.761 3.097 0 6.329-.442 9.508-.874 2.667-.363 5.413-.735 7.999-.829-.26 1.536-.388 3.098-.365 4.652.011.741.056 1.489.098 2.214.11 1.894.212 3.686-.195 5.44-.257 1.112-.709 2.153-1.186 3.255-.413.952-.84 1.936-1.129 2.967-.591 2.114-.512 5.128 1.646 6.664.472.338.992.558 1.494.772.446.191.869.369 1.239.62.834.566 1.37 1.479 1.934 2.442.163.277.326.554.497.824 1.06 1.677 2.378 2.59 3.725 2.59.05 0 .097 0 .147-.002 1.234-.058 2.439-.921 3.226-2.308.076-.134.147-.27.213-.406.27.602.551 1.201.848 1.793.467.936.971 1.871 1.457 2.773.837 1.557 1.704 3.166 2.397 4.81 1.472 3.482 2.326 7.318 2.688 12.073.294 3.883.218 7.933.144 11.85-.155 8.164-.312 16.605 2.841 24.201l.987-.408c-3.069-7.392-2.912-15.718-2.759-23.772.065-3.472.131-7.046-.055-10.537 2.36 2.24 4.932 3.878 7.544 4.809.573.204 1.082.555 1.478 1.016l8.062 9.317c1.421 5.482 1.481 11.286.171 16.796l1.04.246c1.247-5.244 1.286-10.746.134-16.006.259.089.533.136.816.136.084 0 .168-.005.252-.013.354-.034.691-.146.992-.311.163 5.136.943 10.239 2.337 15.187l1.029-.288a62.0982 62.0982 0 0 1-2.329-15.995c.084-.17.155-.351.2-.545l3.402-14.935c.103-.453.302-.879.565-1.261 2.578-3.755 4.3-8.593 5.027-14.112.118.173.236.346.354.516 1.192 1.69 2.481 3.318 3.817 4.898 6.511 12.521 8.784 27.069 6.401 40.968l1.052.181c2.206-12.853.491-26.25-4.82-38.145 1.187 1.314 2.389 2.601 3.579 3.875 1.144 1.225 2.328 2.494 3.473 3.755 4.171 4.605 8.776 10.197 11.309 16.754l.998-.382c-2.597-6.719-7.277-12.408-11.514-17.084-1.148-1.266-2.337-2.538-3.484-3.765-3.442-3.684-7.002-7.494-9.939-11.665a55.019 55.019 0 0 1-1.142-1.695c-3.471-5.393-5.356-10.707-5.608-15.797-.018-.426-.028-.811-.028-1.182 0-1.183.094-2.392.183-3.562.113-1.47.231-2.993.171-4.508-.113-2.842-.861-5.702-2.161-8.271-.968-1.915-1.38-4.069-1.223-6.403.05-.759.155-1.481.307-2.193l.026.013c.2.108.386.215.573.33 3.549 2.185 5.405 6.369 6.626 9.771 1.331 3.71 2.37 7.616 3.373 11.392.528 1.984 1.074 4.038 1.657 6.037.008.023.015.049.021.076v-.006Zm-21.729-4.074c-1.693-.094-3.051-.199-4.253-.295-2.431-.191-4.203-.333-6.579-.168-.228-3.901-2.365-9.182-4.313-12.858-1.982-3.739-2.883-7.355-2.675-10.749.058-.952.1-1.965.063-2.991l1.042.116c2.699.293 5.248.567 7.561.635.493.013 1.058 0 1.538-.337.567-.401.756-1.057.874-1.709.189-1.044.315-2.098.391-3.158.762.536 1.449 1.023 1.948 1.376.328.233.714.346 1.098.346.428 0 .853-.142 1.202-.422l4.266-3.446c-.011.1-.018.199-.029.299-.052.549-.108 1.114-.136 1.674-.134 2.729 1.375 5.267 3.851 6.474.512.248 1.039.479 1.549.701l.459.204c.176.079.36.162.541.249-.187 1.036-.315 1.996-.436 2.925-.123.932-.249 1.894-.436 2.938-.275 1.523-1.354 3.03-2.397 4.488-.375.523-.729 1.02-1.047 1.515-1.092 1.701-4.568 7.551-4.085 12.196l.003-.003Zm-6.324-35.313c.48.235.984.52 1.522.868.462.299.993.453 1.539.453.05 0 .099 0 .147-.003.588-.028 1.142-.235 1.606-.596.622-.484 1.213-.877 1.809-1.201l.213-.115.023-.021a.328.328 0 0 0 .069-.254.3414.3414 0 0 0-.137-.225l-2.499-1.779a.821.821 0 0 0-.877-.047l-.486.269c-.178.099-.388.113-.577.031l-.336-.141a.8279.8279 0 0 0-.927.207l-1.189 1.321c-.181-1.834-.53-3.6499-1.053-5.4161-.189-.6463-.407-1.2952-.614-1.9232-.483-1.4574-.945-2.8547-1.15-4.2781.782-.0262 1.683.0889 2.588.5154.268.1256.586.0131.712-.2538a.5307.5307 0 0 0-.255-.7091c-1.11-.5233-2.205-.6594-3.142-.6201-.003-.0864-.013-.1727-.013-.2591-.034-2.3287 1.202-5.0971 3.56-5.6387.417-.0968.903-.1413 1.37-.1858.774-.0733 1.578-.1465 2.226-.4553.601-.2852 1.281-.3035 1.861-.0523.518.225.898.6437 1.074 1.1905.034.0969.058.1937.081.2852.295 1.2796.153 2.5774-.097 3.9276-1.824.4736-2.995 1.5594-3.063 1.6222a.5341.5341 0 0 0-.019.7536.5345.5345 0 0 0 .754.0183c.013-.013.814-.7562 2.089-1.2088-.002.0183-.007.034-.01.0523-.32 1.5438-.651 3.1373-.494 4.7491.14 1.4444.662 2.7946 1.166 4.1002.496 1.2848.963 2.496 1.095 3.784.047.468.05.949.029 1.436l-5.046 4.077c-.291.235-.706.248-1.008.034-.62-.437-1.528-1.078-2.505-1.769.024-.845.011-1.693-.039-2.538l.003-.005ZM86.4012 251.735a.9103.9103 0 0 1-.2363.029c-.4883 0-.9293-.338-1.0396-.83-3.8013-16.777-8.4899-48.305-9.267-103.219-.4673-32.815.7088-58.803.7193-59.0621a1.0677 1.0677 0 0 1 1.1184-1.0152c.588.0288 1.0448.5259 1.0185 1.1146-.0131.2565-1.1866 26.1867-.7193 58.9437.7718 54.727 5.4395 86.092 9.2146 102.767.1286.571-.2311 1.144-.8086 1.272ZM82.487 86.2247c2.0713 1.6616 3.544 3.7967 4.497 5.5158 1.499 2.7029 2.5149 5.712 3.4994 8.6195l.3754 1.106a.5964.5964 0 0 1 .021.063s0-.005-.0026-.008c-3.0768-6.2664-6.0328-11.4473-8.3902-15.2963Zm35.934 35.8843c-6.185.845-12.58 1.716-17.571-.783-1.0865-.544-1.9029-1.475-2.3019-2.624-.9976-2.855-2.1186-5.673-3.2028-8.399-1.184-2.975-2.4073-6.053-3.4732-9.179l-.3754-1.105c-1.0002-2.9537-2.0345-6.0073-3.5781-8.794-1.8141-3.2759-4.1531-5.746-6.8046-7.2035 0-.0026-.0053-.0052-.0053-.0104a279.6135 279.6135 0 0 0-1.0816-1.6799c-.0183-.0288-.0393-.0549-.0551-.0837.1234 0 .2914.0209.5303.0811.2389.068.4778.1334.7141.2015 1.52.4265 2.9533.8268 4.0192 1.808l.7245-.7823c-1.2548-1.1539-2.8824-1.6118-4.455-2.0514-.8085-.2251-1.6433-.4606-2.3968-.785-.6327-.2721-.9004-.5286-.9241-.887-.0183-.2879.1444-.5914.428-.7955.5801-.4213 1.3782-.3663 2.0791-.2564 3.5414.5521 7.0724 2.7396 9.9444 6.1595 2.6278 3.1268 4.4602 6.8424 6.2349 10.4376 1.2627 2.5564 2.4152 5.2964 3.5284 7.9464 1.121 2.666 2.279 5.422 3.557 8.007.184.372.373.754.664 1.096.998 1.186 2.681 1.327 3.857 1.33h.197c3.943 0 6.917-.566 10.062-1.165 2.838-.539 5.773-1.112 9.837-1.381h.039c1.145-.163 2.394-.228 3.822-.228 2.626 0 5.508.269 8.062.539.079 2.481-.435 6.84-.441 6.887-.002.029-.338 2.881-.774 4.199-.63 1.903-1.78 3.549-2.998 5.291-.772 1.104-1.557 2.237-2.203 3.444-.273-1.821-.64-3.684-1.247-5.474-1.346-4.006-3.551-4.728-5.14-4.634-.16 0-.32.002-.501.008h-.011l-.42.007v.006c-2.706.081-5.565.468-8.337.845l-.003.008Zm16.872 18.101s.336-.026.507-.036c.344-.026.685-.05 1.032-.076.328-.024.661-.047.992-.071.331-.023.662-.047.992-.07.328-.024.657-.045.987-.066.331-.021.662-.044.995-.065.331-.021.665-.04.995-.06.334-.019.667-.04 1.001-.058.336-.018.674-.034 1.01-.05.334-.015.664-.034.998-.047.341-.016.685-.026 1.026-.039.331-.013.664-.026.995-.037.347-.01.693-.018 1.037-.026.331-.008.664-.016.995-.021.349-.005.698-.008 1.045-.01.331 0 .662-.006.995-.006.352 0 .703.006 1.055.011.328.003.659.005.987.013.357.008.712.021 1.069.031.325.011.651.019.976.032.36.016.722.036 1.082.057.32.019.641.032.961.055.367.024.732.058 1.097.087.313.026.628.047.94.076.375.036.751.081 1.124.12.301.034.603.063.903.099.393.05.787.11 1.181.165.278.039.557.073.835.118.436.068.871.149 1.305.228.231.041.464.078.695.123.664.128 1.326.269 1.982.421l.504.12c.26.063.523.123.785.183.082.019.166.037.247.055.189.042.381.081.572.121.103.021.205.036.31.057.173.032.347.06.523.087.11.015.22.031.33.044.084.011.166.024.25.034.344 5.084 2.244 10.362 5.647 15.697-.633 6.196-2.518 11.56-5.45 15.524-2.578 3.488-5.86 5.663-9.488 6.288-1.733.298-3.505.241-5.277-.17-.252-.058-.506-.126-.758-.196h-.006c-3.097-.887-6.182-2.86-8.936-5.712-.378-4.786-1.255-8.672-2.754-12.217-.714-1.691-1.591-3.321-2.441-4.901-.483-.898-.982-1.824-1.441-2.745-.47-.942-.914-1.905-1.318-2.863-.181-.426-.355-.855-.523-1.284-.055-.139-.105-.28-.157-.419-.113-.293-.223-.586-.331-.882-.06-.165-.115-.332-.173-.497-.095-.272-.189-.544-.278-.816-.058-.176-.111-.351-.166-.526-.084-.267-.168-.534-.249-.803-.053-.178-.103-.359-.155-.537-.076-.267-.152-.536-.226-.803-.05-.181-.094-.364-.142-.544-.068-.267-.136-.534-.199-.801-.045-.188-.087-.377-.129-.565a72.474 72.474 0 0 1-.17-.78c-.042-.202-.082-.403-.121-.607-.029-.144-.055-.288-.082-.432"/><path d="M160.288 165.196c.089-.28-.068-.578-.349-.667-.281-.089-.58.068-.67.348-.304.958-.123 2.059.47 2.87.105.144.268.22.433.22.108 0 .218-.034.315-.102a.5307.5307 0 0 0 .119-.743c-.399-.544-.518-1.282-.315-1.923l-.003-.003Z"/></g><path fill="#5EB39B" d="M126.585 211.254c-22.65 0-43.9431-8.792-59.9595-24.753-16.0165-15.962-24.8346-37.188-24.8346-59.764s8.8207-43.7987 24.8346-59.7626c16.0138-15.9638 37.3095-24.753 59.9595-24.753 22.651 0 43.944 8.7918 59.96 24.753 16.017 15.9613 24.835 37.1866 24.835 59.7626s-8.821 43.8-24.835 59.764c-16.013 15.963-37.309 24.753-59.96 24.753Zm0-163.7994c-21.245 0-41.2207 8.2475-56.2449 23.2223C55.316 85.6517 47.0413 105.561 47.0413 126.737c0 21.177 8.2747 41.086 23.2988 56.061 15.0242 14.975 34.9999 23.222 56.2449 23.222 21.246 0 41.222-8.247 56.246-23.222 15.024-14.975 23.299-34.884 23.299-56.061 0-21.176-8.275-41.0853-23.299-56.0601-15.024-14.9748-35-23.2223-56.246-23.2223ZM73.115 214.812c-.6091 1.06-.357 1.688.8243 3.077l.9293 1.099c1.6723 2.005 1.8351 3.19.9425 4.741-1.1105 1.932-2.8405 2.413-5.3003 1.008-2.3654-1.35-3.04-3.145-1.9611-5.573l1.1893.68c-.6747 1.651-.2941 2.857 1.4044 3.828 1.6041.916 2.6253.68 3.3708-.618.6012-1.044.4621-1.795-.7718-3.278l-.9293-1.099c-1.5752-1.845-1.9138-2.941-.9766-4.571.9188-1.599 2.6331-2.235 5.0299-.866 2.3181 1.324 2.809 3.179 1.6119 5.374l-1.1892-.68c.7875-1.589.5644-2.703-1.0396-3.619-1.6198-.924-2.5701-.481-3.1345.5v-.003ZM92.9091 220.914l-3.2395 7.918c-1.0763 2.635-3.2737 3.415-5.7807 2.397-2.4914-1.013-3.5126-3.101-2.4362-5.736l3.2395-7.92 1.3546.552-3.2395 7.918c-.7115 1.74-.2967 3.286 1.5488 4.037 1.8797.764 3.2448-.06 3.9563-1.8l3.2395-7.921 1.3546.552.0026.003ZM96.188 235.25l-1.3808-.353 3.187-12.361 3.3838.866c3.066.785 4.04 2.353 3.494 4.472l-.186.725c-.404 1.573-1.646 2.496-3.618 2.386l1.943 6.013-1.559-.4-1.8223-5.757-2.1605-.554-1.2812 4.961v.002Zm2.8773-11.159-1.289 4.997 1.9847.508c2.037.521 3.176-.089 3.515-1.397l.168-.655c.341-1.324-.215-2.388-2.412-2.951l-1.9667-.505v.003ZM111.152 232.56l-.725 5.66-1.415-.18 1.62-12.662 7.658.973-.158 1.23-6.243-.793-.58 4.54 5.154.654-.158 1.23-5.153-.654v.002ZM130.074 234.9l-.27-3.766c-.221-3.074 1.525-4.806 4.355-5.008 2.772-.196 4.355 1.39 4.747 3.813l-1.386.099c-.35-1.803-1.376-2.808-3.256-2.674-2.189.157-3.15 1.578-3 3.668l.27 3.784c.147 2.054 1.302 3.326 3.455 3.171 1.861-.133 2.872-1.135 2.877-3.111l1.386-.099c.045 2.666-1.528 4.257-4.119 4.443-2.882.204-4.838-1.246-5.059-4.32ZM151.958 233.128l-5.371 1.128-.515 3.498-1.467.309 2.016-13.467 1.468-.309 7.256 11.521-1.523.319-1.866-2.999h.002Zm-4.289-6.944-.959 6.798 4.584-.963-3.625-5.835ZM158.8 223.962l3.74 9.682-1.296.497-4.602-11.911 1.656-.636 7.443 6.424 1.247-9.76 1.52-.583 4.602 11.91-1.316.505-3.741-9.681-1.215 8.985-1.076.414-6.965-5.846h.003ZM178.371 221.074l2.557 4.445-1.237.707-6.369-11.074 3.032-1.732c2.746-1.567 4.542-1.122 5.634.775l.373.649c1.037 1.802.346 3.754-2.163 5.186l-1.825 1.041-.002.003Zm-3.193-5.553 2.576 4.477 1.777-1.015c1.824-1.041 2.213-2.274 1.541-3.443l-.336-.587c-.683-1.187-1.827-1.562-3.794-.439l-1.761 1.007h-.003ZM7.7181 117.653c1.6382.17 2.2604-.634 3.4522-2.944l1.4544-2.821c2.8536-5.521 5.1165-6.978 9.54-6.52 5.4867.57 8.1907 4.027 7.474 10.882-.588 5.623-3.0951 9.19-8.4374 9.828-.8348.1-1.5489-.602-1.4623-1.436l.3938-3.763c.0578-.547.4489-1.013.9897-1.136 1.9033-.426 2.6751-1.462 2.9455-4.032.2678-2.572-.4515-3.595-2.255-3.783-1.9663-.205-2.6279.594-4.0403 3.417l-1.2601 2.551c-2.465 4.985-4.7621 6.767-9.267 6.301-4.749-.492-7.8258-3.949-7.1485-10.438.6117-5.866 3.7961-8.805 8.4401-9.045.806-.042 1.4623.643 1.3783 1.444l-.3938 3.768c-.063.602-.533 1.07-1.1315 1.162-1.5987.243-2.5018 1.135-2.7223 3.252-.2337 2.245.6221 3.158 2.0555 3.307l-.0053.006ZM11.3383 73.2333c.2547-.6751 1.0134-1.0179 1.6907-.764l16.4969 6.183c6.2034 2.3261 8.1119 7.6431 5.7518 13.9046-2.3469 6.2222-7.2981 8.9701-13.5015 6.6461L5.2793 93.02c-.6773-.2538-1.0212-1.01-.7665-1.6851l1.394-3.6972c.2546-.6751 1.0133-1.0179 1.6906-.7641l16.2291 6.081c2.8142 1.0545 5.1691.403 6.2139-2.3628 1.058-2.805-.2861-4.8407-3.0978-5.8952l-16.2291-6.081c-.6773-.2538-1.0212-1.01-.7665-1.685l1.394-3.6973h-.0027ZM44.3741 73.5133l-2.2131 3.0771c-.4227.5861-1.2417.7222-1.8324.3009L19.0407 61.6784c-.588-.4212-.7246-1.2376-.3019-1.8264l5.1376-7.1407c3.8144-5.3038 8.6842-6.7194 13.2022-3.4931l1.1708.8373c2.5727 1.8395 3.657 4.3462 3.4732 7.0779-.0446.6829.4699 1.2743 1.1498 1.358l9.1122 1.1147c.9897.1203 1.4885 1.2533.9057 2.0619l-2.4835 3.4512a1.3145 1.3145 0 0 1-1.2785.5286l-9.4586-1.5386a1.3145 1.3145 0 0 0-1.2785.5286l-.6563.9132c-.4227.5861-.2862 1.4051.3019 1.8264l6.0301 4.3095c.5881.4213.7246 1.2377.3019 1.8264h.0053ZM27.3364 59.7264l4.0245 2.8757c.588.4213 1.4097.2852 1.8324-.3009l1.1052-1.5386c1.751-2.4334 1.52-4.3671-.1182-5.5393l-.7035-.5024c-1.6723-1.1958-3.5834-.7928-5.3345 1.6406l-1.1052 1.5386c-.4226.5861-.2861 1.4051.3019 1.8263h-.0026ZM54.9327 46.387l5.6469 6.484c.4751.5468.4174 1.3711-.1313 1.8447l-2.8667 2.4805c-.5487.4736-1.3756.416-1.8508-.1308L38.5592 37.3493c-.4751-.5469-.4174-1.3711.1313-1.8447l11.8529-10.257c.5486-.4737 1.3756-.4161 1.8507.1308l1.9506 2.2372c.4751.5468.4174 1.3711-.1313 1.8447l-7.0014 6.06c-.5487.4736-.6065 1.3005-.1313 1.8447l2.4625 2.8259c.4751.5469 1.3047.6045 1.8507.1309l5.4474-4.7151c.5486-.4736 1.3756-.4161 1.8508.1308l1.9505 2.2372c.4752.5469.4174 1.3711-.1313 1.8447l-5.4473 4.7151c-.5487.4736-.6064 1.3004-.1313 1.8447v.0078ZM60.7082 18.5438l14.6015-7.7006c.6405-.3376 1.436-.0942 1.7746.5442l1.3914 2.6192c.3386.6385.0945 1.4313-.5461 1.7689l-8.9231 4.7072c-.6405.3376-.8847 1.1304-.546 1.7688l1.3703 2.5826c.3387.6385 1.1341.8818 1.7747.5443l7.1038-3.747c.6406-.3375 1.436-.0942 1.7747.5443l1.3913 2.6192c.3387.6384.0945 1.4312-.546 1.7688l-7.1039 3.747c-.6405.3375-.8846 1.1303-.546 1.7688l1.7957 3.3806c.3386.6385 1.1341.8818 1.7746.5443l8.9231-4.7073c.6406-.3375 1.436-.0942 1.7747.5443l1.3913 2.6192c.3387.6384.0945 1.4313-.546 1.7688L74.1913 43.93c-.6405.3376-1.436.0942-1.7746-.5442L60.1648 20.31c-.3387-.6384-.0945-1.4313.546-1.7688l-.0026.0026ZM98.9944 32.9613l-3.6884.8975c-.7036.17-1.415-.2591-1.5857-.9603L87.5091 7.5332c-.1707-.7013.2599-1.4104.9634-1.5804l8.5635-2.0829c6.361-1.5464 10.981.539 12.299 5.9214l.341 1.3947c.751 3.064-.065 5.6727-1.989 7.6273-.481.4893-.478 1.2717-.016 1.7793l6.185 6.7613c.672.7353.31 1.918-.659 2.1535l-4.14 1.0074c-.486.1177-.995-.0471-1.315-.4292l-6.172-7.3081a1.3164 1.3164 0 0 0-1.315-.4291l-1.0952.2669c-.7036.17-1.1367.8791-.9635 1.5804l1.7589 7.1852c.1708.7012-.2599 1.4103-.9634 1.5804h.0026Zm-3.9168-21.5242 1.1734 4.7937c.1707.7012.8821 1.1329 1.5857.9602l1.8455-.4474c2.9188-.7091 4.0058-2.3261 3.5278-4.2807l-.204-.8374c-.489-1.9938-2.2-2.928-5.1194-2.2188l-1.8456.4474c-.7035.1701-1.1367.8792-.9634 1.5804v.0026ZM123.984 7.9126c-.026 1.6406.829 2.1875 3.242 3.1713l2.946 1.1958c5.767 2.3497 7.421 4.4717 7.35 8.9016-.089 5.4975-3.308 8.4831-10.225 8.3705-5.671-.0915-9.456-2.2712-10.561-7.5201-.174-.8216.464-1.5909 1.307-1.5778l3.793.0602c.554.0079 1.053.3585 1.221.8844.593 1.8526 1.696 2.5303 4.29 2.5721 2.593.0419 3.554-.764 3.583-2.5695.032-1.9703-.822-2.559-3.77-3.7129l-2.659-1.0283c-5.198-2.0122-7.18-4.1395-7.106-8.6531.078-4.7596 3.263-8.114 9.807-8.0094 5.918.0968 9.131 2.9986 9.779 7.5907.113.7955-.514 1.5072-1.323 1.4941l-3.801-.0628c-.607-.0105-1.116-.4343-1.26-1.023-.383-1.5648-1.355-2.3864-3.489-2.4204-2.263-.0367-3.103.8948-3.127 2.3287l.003.0079ZM152.032 10.6339c-.397 1.5935.315 2.3183 2.446 3.8149l2.602 1.8238c5.09 3.5821 6.224 6.0156 5.158 10.3199-1.325 5.3378-5.134 7.5253-11.847 5.8716-5.505-1.358-8.703-4.3278-8.598-9.6892.016-.84.811-1.447 1.631-1.2455l3.683.9079c.535.1335.945.5835.989 1.133.163 1.9363 1.082 2.8442 3.6 3.4644 2.517.6201 3.636.0523 4.069-1.7008.475-1.9127-.226-2.6768-2.838-4.4613l-2.36-1.5961c-4.61-3.1242-6.064-5.6388-4.978-10.0216 1.148-4.621 5.007-7.1773 11.36-5.61 5.744 1.4182 8.222 4.9637 7.82 9.5846-.071.8007-.842 1.3528-1.625 1.1592l-3.688-.9106c-.588-.1439-.99-.6751-.998-1.2769-.021-1.6118-.782-2.627-2.853-3.1373-2.198-.5416-3.224.178-3.571 1.57h-.002ZM195.936 36.1954l-12.399 9.7416c-.475.3741-1.147.3741-1.625 0l-3.985-3.1243a1.3004 1.3004 0 0 1-.389-1.5568l10.926-24.6484c.347-.7823 1.339-1.0283 2.011-.4997l3.4 2.6636c.488.3821.641 1.0545.365 1.6093l-6.203 12.4916c-.62 1.2507.889 2.4701 1.987 1.6092l11.126-8.7342a1.3121 1.3121 0 0 1 1.622 0l4.416 3.4618c.483.3767.637 1.0387.372 1.5908l-6.048 12.6644c-.601 1.2586.926 2.457 2.013 1.5778l10.921-8.8441c.475-.3847 1.158-.3899 1.638-.0131l3.187 2.4962c.675.5286.667 1.5464-.013 2.0671l-21.456 16.3956c-.475.3637-1.139.3585-1.609-.0104l-4.468-3.5036a1.3043 1.3043 0 0 1-.381-1.5752l6.595-14.284c.577-1.2482-.922-2.4256-2.006-1.5752h.003ZM214.213 72.6472l-4.44-6.5677a1.311 1.311 0 0 0-1.467-.5207l-3.221.9682c-.552.1648-1.148-.0445-1.468-.5207l-2.226-3.2917c-.504-.7457-.121-1.7636.751-1.9965l26.785-7.104a1.3112 1.3112 0 0 1 1.425.5337l2.796 4.1369a1.305 1.305 0 0 1-.039 1.5176l-16.665 22.0736c-.543.7196-1.633.6908-2.137-.0549l-2.339-3.4618c-.323-.4762-.294-1.1042.066-1.5516l2.11-2.6114a1.2996 1.2996 0 0 0 .066-1.5516l.003.0026Zm6.925-10.9819-4.613 1.379c-.848.2538-1.205 1.2533-.711 1.9834l1.596 2.3627c.494.7301 1.559.7746 2.113.089l3.017-3.7417c.806-1.0022-.166-2.4413-1.402-2.0724ZM218.048 89.1631l21.635-17.0209c.7-.5521 1.737-.2591 2.045.5756l1.48 4.0139a1.307 1.307 0 0 1-.449 1.5019l-12.884 9.5454c-1.053.7797-.433 2.4439.874 2.3549l15.99-1.0937c.583-.0393 1.121.3087 1.323.853l1.378 3.7417c.308.8347-.294 1.727-1.183 1.7584l-27.544.9838c-.567.0209-1.084-.3245-1.279-.8556l-1.801-4.8826c-.197-.5312-.026-1.1278.42-1.4784l-.005.0026ZM250.301 105.347l1.691 16.497c.074.725-.449 1.33-1.171 1.353l-2.958.094c-.722.024-1.365-.544-1.439-1.269l-1.034-10.084c-.074-.725-.72-1.293-1.439-1.269l-2.917.094c-.721.024-1.244.628-1.17 1.353l.824 8.028c.073.724-.449 1.329-1.171 1.352l-2.959.095c-.721.023-1.365-.545-1.438-1.269l-.824-8.028c-.074-.725-.72-1.293-1.439-1.269l-3.817.123c-.722.023-1.245.628-1.171 1.353l1.034 10.084c.074.725-.449 1.329-1.171 1.353l-2.958.094c-.722.023-1.365-.544-1.439-1.269l-1.69-16.498c-.074-.725.449-1.329 1.17-1.353l26.05-.839c.722-.024 1.366.544 1.439 1.269l-.003.005Z"/></g><defs><clipPath id="a"><path fill="#fff" d="M0 0h252v256H0z"/></clipPath></defs></svg>