<svg width="330" height="100" viewBox="0 0 330 100" fill="none" xmlns="http://www.w3.org/2000/svg">
<g clip-path="url(#clip0_13_465)">
<path d="M13.2478 24.8593C12.2646 24.4532 11.2836 24.0572 10.3025 23.6733C7.88904 22.7326 7.03084 22.224 7.03084 20.4792C7.03084 18.9575 7.84875 17.8761 10.097 17.661C12.2606 17.458 13.2336 18.3043 13.6245 20.1134C13.7534 20.7044 14.2248 21.1044 14.7708 21.0742C16.1104 20.9978 17.4501 20.9235 18.7918 20.8491C19.513 20.8109 20.065 20.0149 19.9623 19.1706C19.2934 13.6086 16.046 10.6215 10.097 11.5522C3.59602 12.5995 0.491597 16.4811 0.491597 21.1506C0.491597 25.6332 2.49205 27.6212 7.68557 29.7881C8.57197 30.156 9.45837 30.5339 10.3448 30.9198C13.2901 32.2284 14.1503 32.942 14.1503 35.1733C14.1503 37.2276 13.2095 38.0759 10.6308 37.8327C8.02804 37.5895 6.9281 36.7573 6.31164 34.727C6.15451 34.2064 5.69922 33.8385 5.19356 33.8084C3.8559 33.728 2.51824 33.6456 1.18259 33.5632C0.43519 33.5189 -0.128885 34.1662 0.0282498 34.8999C1.16446 40.2468 4.97599 43.0992 10.6732 43.9776C17.5468 45.0571 20.6996 41.8308 20.6996 35.1914C20.6996 29.8907 19.0194 27.2674 13.2498 24.8573L13.2478 24.8593Z" fill="#5EB39B"/>
<path d="M46.7377 7.33899C45.3376 7.49377 43.9395 7.65056 42.5394 7.80936C41.8846 7.88574 41.3568 8.67774 41.3548 9.57626V34.1622C41.3548 37.5693 39.3866 40.2549 36.9268 40.0519C33.9735 39.8106 32.5371 37.1291 32.5371 33.2375V10.5411C32.5371 9.68883 32.0073 9.06167 31.3546 9.14409C29.9565 9.31897 28.5584 9.49385 27.1623 9.67476C26.5096 9.7612 25.9797 10.4889 25.9797 11.303V33.3501C25.9797 41.4911 30.2808 46.6371 36.9248 47.5356C43.6111 48.4261 47.9202 43.6842 47.9202 34.1742C47.9202 25.7498 47.9202 17.3253 47.9202 8.90287C47.9202 7.96816 47.3904 7.26863 46.7357 7.341L46.7377 7.33899Z" fill="#5EB39B"/>
<path d="M71.2145 34.5381C70.9123 33.6536 71.0936 32.5581 71.6315 32.0475C74.0087 29.8022 75.4511 25.989 75.4511 20.841V18.5254C75.4511 9.54813 71.4603 4.83638 64.9251 5.48967C61.9496 5.76707 58.9761 6.05653 56.0026 6.36006C55.3479 6.42639 54.8181 7.26663 54.8181 8.23149V47.22C54.8181 48.1849 55.3479 49.0251 56.0026 49.0914C57.3483 49.2281 58.6941 49.3628 60.0418 49.4934C60.6965 49.5598 61.2264 48.802 61.2264 47.8049V36.1562C61.2264 35.1612 61.7562 34.3692 62.4109 34.3873C62.8521 34.3994 63.2953 34.4134 63.7365 34.4255C64.1877 34.4376 64.5987 34.8436 64.7982 35.4728C66.2386 40.0056 67.677 44.6189 69.1174 49.3065C69.3188 49.9578 69.7298 50.396 70.181 50.4382C71.696 50.5729 73.2089 50.7015 74.7239 50.8302C75.6244 50.9086 76.1965 49.397 75.7654 48.0904C74.2464 43.5012 72.7295 38.9825 71.2125 34.5381H71.2145ZM68.8716 20.5576C68.8716 23.7296 67.4332 25.8081 64.4315 25.8221C63.7586 25.8282 63.0858 25.8322 62.4109 25.8382C61.7562 25.8422 61.2243 25.0402 61.2264 24.0432V16.1454C61.2264 15.1504 61.7562 14.3101 62.4109 14.2719C63.0838 14.2317 63.7566 14.1935 64.4315 14.1553C67.4312 13.9764 68.8716 15.9665 68.8716 19.2008V20.5576Z" fill="#5EB39B"/>
<path d="M82.4376 51.4533C83.7853 51.5578 85.1351 51.6584 86.4828 51.7569C87.1376 51.8071 87.6714 50.9548 87.6694 49.8553V35.0185C87.6694 33.921 88.2012 33.0385 88.856 33.0486C91.344 33.0868 93.8319 33.125 96.3199 33.1591C96.9766 33.1692 97.5065 32.2626 97.5085 31.1329C97.5085 29.2856 97.5085 27.4363 97.5085 25.587C97.5085 24.4573 96.9766 23.5487 96.3199 23.5567C93.8319 23.5829 91.344 23.613 88.856 23.6412C88.2012 23.6492 87.6694 22.7647 87.6694 21.6672V14.9614C87.6694 13.8639 88.2012 12.9513 88.856 12.9211C92.0289 12.7824 95.2038 12.6538 98.3788 12.5332C99.0355 12.509 99.5674 11.5703 99.5674 10.4346V4.8605C99.5674 3.72678 99.0355 2.83831 98.3788 2.88052C93.0624 3.21219 87.748 3.58406 82.4356 3.99212C81.7809 4.04438 81.249 4.95698 81.249 6.0324V49.407C81.249 50.4824 81.7809 51.397 82.4356 51.4473L82.4376 51.4533Z" fill="#5EB39B"/>
<path d="M122.066 1.66439C116.469 1.89154 110.877 2.16089 105.285 2.47447C104.63 2.51267 104.096 3.4715 104.096 4.61727V50.8302C104.096 51.976 104.628 52.9368 105.285 52.973C110.877 53.2866 116.471 53.5559 122.066 53.7831C122.723 53.8092 123.256 52.8685 123.254 51.6785V45.837C123.254 44.649 122.723 43.6721 122.066 43.656C118.613 43.5696 115.162 43.4751 111.711 43.3686C111.054 43.3465 110.523 42.3896 110.523 41.2278V33.9853C110.523 32.8234 111.054 31.8867 111.711 31.8907C114.475 31.9128 117.241 31.935 120.005 31.953C120.662 31.9591 121.194 31.0023 121.194 29.8163V23.9949C121.194 22.809 120.662 21.8541 120.005 21.8622C117.239 21.8883 114.475 21.9185 111.711 21.9486C111.054 21.9547 110.523 21.0199 110.523 19.8581V14.2197C110.523 13.0578 111.054 12.099 111.711 12.0789C115.162 11.9744 118.615 11.8779 122.066 11.7914C122.723 11.7753 123.256 10.7984 123.254 9.61044V3.769C123.254 2.58101 122.723 1.63826 122.066 1.66439Z" fill="#5EB39B"/>
<path d="M135.664 52.0644V37.9452C135.664 36.7372 136.198 35.7643 136.853 35.7683C137.296 35.7723 137.739 35.7763 138.182 35.7783C138.634 35.7823 139.047 36.2567 139.248 37.0065C140.692 42.3917 142.137 47.7989 143.581 53.2202C143.781 53.974 144.194 54.4565 144.647 54.4665C146.166 54.4967 147.685 54.5228 149.202 54.5469C150.106 54.561 150.679 52.77 150.245 51.2905C148.722 46.0883 147.201 40.8961 145.678 35.72C145.376 34.6908 145.558 33.3983 146.097 32.7893C148.481 30.1138 149.927 25.7076 149.927 19.7495C149.927 18.855 149.927 17.9605 149.927 17.066C149.927 6.71183 145.928 0.928682 139.371 1.09753C136.387 1.17191 133.402 1.25633 130.418 1.35483C129.761 1.37493 129.23 2.36593 129.23 3.56396V51.8775C129.23 53.0755 129.761 54.0665 130.418 54.0866C131.768 54.1308 133.12 54.173 134.471 54.2132C135.128 54.2333 135.66 53.2685 135.66 52.0604L135.664 52.0644ZM135.664 13.691C135.664 12.4849 136.198 11.4959 136.853 11.4839C137.528 11.4718 138.204 11.4618 138.879 11.4517C141.889 11.4035 143.334 13.8297 143.334 17.6469V19.251C143.334 22.9919 141.891 25.4382 138.879 25.4422C138.204 25.4422 137.528 25.4442 136.853 25.4462C136.196 25.4462 135.662 24.4713 135.664 23.2632V13.691Z" fill="#5EB39B"/>
<path d="M164.815 44.9747C162.19 44.9747 161.08 43.7023 160.459 40.1664C160.298 39.2619 159.843 38.6528 159.333 38.6508C157.983 38.6468 156.636 38.6428 155.286 38.6367C154.532 38.6327 153.962 39.9232 154.119 41.2981C155.268 51.3307 159.114 55.4394 164.857 55.4475C171.785 55.4495 174.962 49.7126 174.96 39.4126C174.96 31.1068 173.27 27.187 167.454 22.9456C166.465 22.226 165.473 21.5084 164.484 20.7888C162.051 19.0179 161.184 18.0208 161.184 14.9413C161.184 12.2477 162.008 10.4728 164.277 10.4708C166.459 10.4688 167.438 12.0387 167.833 15.082C167.963 16.079 168.437 16.7866 168.989 16.7866C170.339 16.7866 171.688 16.7906 173.04 16.7946C173.765 16.7967 174.323 15.5966 174.219 14.2559C173.548 5.49972 170.276 -0.00803936 164.281 1.16214e-06C157.723 0.0201025 154.589 6.4485 154.589 15.3534C154.589 23.804 156.609 27.7197 161.847 31.344C162.74 31.9611 163.634 32.5762 164.527 33.1933C167.496 35.2718 168.362 36.3512 168.362 40.0478C168.362 43.4349 167.416 44.9787 164.815 44.9767V44.9747Z" fill="#5EB39B"/>
<path d="M192.485 23.006C191.495 22.2903 190.506 21.5747 189.515 20.8571C187.082 19.0882 186.215 18.0852 186.215 15.0277C186.215 12.3482 187.041 10.5994 189.308 10.6296C191.487 10.6597 192.468 12.2276 192.863 15.2368C192.992 16.2258 193.47 16.9253 194.018 16.9313C195.367 16.9454 196.717 16.9595 198.067 16.9756C198.792 16.9836 199.348 15.8097 199.245 14.493C198.571 5.88768 195.303 0.391978 189.308 0.249259C182.752 0.100509 179.618 6.45252 179.618 15.3614C179.618 23.806 181.638 27.7358 186.874 31.3158C187.767 31.9249 188.661 32.534 189.555 33.139C192.523 35.1853 193.391 36.2407 193.389 39.889C193.389 43.2339 192.44 44.7717 189.844 44.8098C187.221 44.844 186.109 43.6058 185.488 40.0941C185.331 39.1955 184.872 38.5945 184.362 38.5985C183.012 38.6086 181.664 38.6166 180.315 38.6227C179.561 38.6267 178.991 39.9212 179.148 41.2941C180.295 51.3166 184.144 55.3168 189.884 55.1841C196.812 55.0113 199.983 49.3025 199.985 39.2016C199.985 31.0445 198.295 27.2152 192.483 23.0039L192.485 23.006Z" fill="#5EB39B"/>
<path d="M252.407 4.19715C250.971 4.08258 249.535 3.97202 248.096 3.86146C247.542 3.81925 247.061 4.42028 246.938 5.31479C245.858 13.1965 244.776 21.1607 243.697 29.2012C243.417 31.2736 241.658 31.2977 241.38 29.2112C240.298 21.1245 239.218 12.9633 238.136 4.73386C238.016 3.80317 237.534 3.1157 236.978 3.07751C235.04 2.95087 233.102 2.83026 231.162 2.71368C230.614 2.6795 230.137 3.30465 230.008 4.2253C228.845 12.5151 227.685 20.8732 226.522 29.2977C226.224 31.4565 224.464 31.4284 224.204 29.2434C223.203 20.827 222.201 12.3563 221.198 3.83734C221.081 2.8564 220.598 2.13074 220.036 2.10461C218.507 2.02822 216.975 1.95586 215.444 1.8855C214.669 1.84932 214.101 3.13781 214.292 4.49666C216.548 20.4249 218.803 36.1743 221.059 51.7086C221.192 52.6353 221.667 53.2624 222.211 53.2343C223.968 53.1438 225.723 53.0474 227.479 52.9489C228.027 52.9167 228.507 52.2312 228.634 51.2965C229.917 41.9454 231.2 32.6767 232.486 23.4924C232.778 21.3938 234.504 21.432 234.796 23.5205C236.069 32.6747 237.343 41.7404 238.614 50.7116C238.741 51.6121 239.22 52.2232 239.768 52.185C241.728 52.0523 243.688 51.9136 245.647 51.7689C246.189 51.7287 246.662 51.0814 246.797 50.199C249.049 35.3843 251.301 20.8712 253.554 6.69977C253.745 5.49168 253.179 4.25947 252.403 4.19715H252.407Z" fill="#5EB39B"/>
<path d="M270.45 7.00531C270.287 6.26156 269.835 5.72888 269.33 5.68063C267.605 5.5158 265.881 5.35499 264.156 5.1982C263.651 5.15197 263.202 5.6143 263.036 6.35202C259.994 19.9345 256.95 34.0315 253.906 48.5708C253.64 49.8452 254.213 51.1076 255.028 51.0392C256.443 50.9227 257.859 50.8041 259.273 50.6814C259.793 50.6372 260.252 50.0583 260.405 49.2542C260.754 47.4331 261.102 45.6199 261.451 43.8128C261.604 43.0168 262.063 42.454 262.583 42.4258C265.289 42.269 267.994 42.1062 270.698 41.9354C271.217 41.9032 271.677 42.3876 271.83 43.1294C272.178 44.8139 272.527 46.4923 272.875 48.1607C273.028 48.8944 273.488 49.3608 274.008 49.3085C275.488 49.1598 276.971 49.009 278.452 48.8542C279.266 48.7678 279.838 47.5376 279.572 46.438C276.534 33.8667 273.494 20.6983 270.452 7.00129L270.45 7.00531ZM268.194 33.4828C267.13 33.5089 266.066 33.535 265.002 33.5591C264.203 33.5792 263.633 32.3752 263.87 31.1751C264.402 28.4836 264.934 25.8101 265.466 23.1547C265.81 21.428 267.386 21.4762 267.73 23.1969C268.262 25.8483 268.794 28.4815 269.326 31.0967C269.563 32.2606 268.991 33.4586 268.194 33.4807V33.4828Z" fill="#5EB39B"/>
<path d="M303.17 9.45566C301.756 9.27475 300.342 9.09785 298.926 8.92297C298.4 8.85865 297.936 9.25866 297.789 9.90794C296.252 16.6901 294.717 23.6834 293.18 30.8776C292.85 32.4234 291.244 32.4817 290.91 30.9259C289.35 23.6894 287.791 16.2539 286.232 8.62949C286.083 7.90384 285.621 7.36311 285.096 7.30482C283.583 7.13798 282.068 6.97315 280.555 6.81233C279.749 6.72389 279.179 7.82142 279.429 8.96518C282.303 22.0994 285.178 34.6888 288.053 46.6712C288.212 47.3366 288.665 47.7426 289.177 47.6843C290.97 47.4793 292.765 47.2702 294.558 47.0552C295.07 46.9928 295.525 46.4984 295.682 45.829C298.553 33.7602 301.424 22.3145 304.294 11.5562C304.544 10.6215 303.976 9.56018 303.17 9.45365V9.45566Z" fill="#5EB39B"/>
<path d="M329.146 12.9613C323.598 12.107 318.046 11.2989 312.488 10.5331C311.835 10.4406 311.134 10.9834 310.92 11.7472C308.049 21.9888 305.177 32.9541 302.302 44.5807C302.088 45.445 302.443 46.0863 303.098 46.0019C308.66 45.2923 314.218 44.5405 319.772 43.7425C320.425 43.648 321.124 42.9585 321.339 42.2087C321.69 40.9785 322.039 39.7604 322.389 38.5543C322.603 37.8186 322.248 37.2739 321.595 37.3301C318.169 37.6337 314.742 37.9272 311.313 38.2106C310.66 38.2669 310.304 37.6518 310.519 36.8437C310.962 35.1693 311.408 33.5109 311.851 31.8686C312.064 31.0766 312.768 30.4294 313.418 30.4173C316.164 30.357 318.91 30.2967 321.654 30.2324C322.304 30.2163 323.008 29.6213 323.219 28.9117C323.568 27.7458 323.918 26.59 324.269 25.4483C324.482 24.7528 324.128 24.1718 323.475 24.1497C320.731 24.0573 317.987 23.9648 315.241 23.8783C314.589 23.8582 314.234 23.223 314.448 22.4652C314.794 21.2411 315.139 20.0249 315.483 18.8229C315.697 18.0771 316.398 17.5243 317.05 17.5826C320.477 17.8821 323.904 18.1897 327.327 18.5093C327.979 18.5696 328.678 18.0872 328.892 17.4419C329.241 16.3806 329.591 15.3313 329.94 14.292C330.153 13.6629 329.797 13.0699 329.148 12.9694L329.146 12.9613Z" fill="#5EB39B"/>
<path d="M183.727 73.0361C178.151 70.1254 170.752 68.5213 162.887 68.5213C155.022 68.5213 147.622 70.1254 142.046 73.0361C136.361 76.0051 133.231 79.9912 133.231 84.2607C133.231 88.5302 136.361 92.5163 142.046 95.4852C147.622 98.3959 155.022 100 162.887 100C170.752 100 178.151 98.3959 183.727 95.4852C189.412 92.5163 192.543 88.5302 192.543 84.2607C192.543 79.9912 189.412 76.0051 183.727 73.0361ZM162.887 98.9346C147.123 98.9346 134.3 92.3514 134.3 84.2607C134.3 76.1699 147.125 69.5867 162.887 69.5867C178.649 69.5867 191.473 76.1699 191.473 84.2607C191.473 92.3514 178.649 98.9346 162.887 98.9346Z" fill="#5EB39B"/>
<path d="M152.369 85.4748C153.549 84.2546 154.121 83.5089 154.121 82.1681C154.121 80.5962 153.239 79.567 151.309 79.567C149.379 79.567 148.402 80.6505 148.322 82.4797H149.625C149.72 81.2997 150.223 80.7188 151.281 80.7188C152.286 80.7188 152.748 81.1791 152.748 82.1681C152.748 82.9682 152.53 83.4687 151.484 84.5803L148.239 88.1302V89.1875H154.242V88.0357H150.115L152.369 85.4748Z" fill="#5EB39B"/>
<path d="M159.132 79.565C157.149 79.565 155.967 80.6625 155.967 82.6144V86.2869C155.967 88.2387 157.149 89.3222 159.132 89.3222C161.114 89.3222 162.309 88.2246 162.309 86.2869V82.6003C162.309 80.6625 161.128 79.565 159.132 79.565ZM160.939 86.2607C160.939 87.4126 160.395 88.1724 159.132 88.1724C157.869 88.1724 157.339 87.4126 157.339 86.2607V82.6425C157.339 81.4766 157.883 80.7188 159.132 80.7188C160.381 80.7188 160.939 81.4766 160.939 82.6284V86.2607Z" fill="#5EB39B"/>
<path d="M168.014 85.4748C169.194 84.2546 169.766 83.5089 169.766 82.1681C169.766 80.5962 168.884 79.567 166.954 79.567C165.024 79.567 164.047 80.6505 163.967 82.4797H165.27C165.365 81.2997 165.868 80.7188 166.926 80.7188C167.931 80.7188 168.393 81.1791 168.393 82.1681C168.393 82.9682 168.175 83.4687 167.129 84.5803L163.884 88.1302V89.1875H169.887V88.0357H165.76L168.014 85.4748Z" fill="#5EB39B"/>
<path d="M173.961 83.1712H173.05V80.8535H176.894V79.7017H171.761V84.323H173.906C175.347 84.323 176.012 84.8778 176.012 86.0296V86.6668C176.012 87.7241 175.319 88.2528 174.313 88.2528C173.308 88.2528 172.724 87.7523 172.643 86.7492H171.34C171.408 88.4297 172.454 89.4046 174.368 89.4046C176.282 89.4046 177.384 88.3071 177.384 86.6949V86.0035C177.384 84.0657 176.215 83.1712 173.961 83.1712Z" fill="#5EB39B"/>
<path d="M71.3454 72.1496C68.6217 71.822 67.2962 73.0401 67.0685 74.8332C66.8389 76.6604 67.5742 77.5307 69.7519 78.6082C70.181 78.8233 70.6101 79.0363 71.0412 79.2514C72.7637 80.1238 73.1928 80.749 73.0538 81.9229C72.8845 83.3802 72.0324 83.9853 70.183 83.7622C68.2229 83.525 67.3929 82.5722 67.3707 80.8213C66.9134 80.7651 66.4581 80.7068 66.0028 80.6505C65.9504 83.2556 67.2841 84.6366 70.0198 84.9682C72.8644 85.312 74.2746 84.2084 74.5244 82.0395C74.7258 80.2947 74.1013 79.2916 71.7705 78.1137C71.3414 77.9006 70.9123 77.6875 70.4832 77.4725C68.8494 76.6624 68.374 76.186 68.523 74.998C68.66 73.8964 69.3591 73.1386 71.2024 73.3597C73.0276 73.5768 73.6702 74.4975 73.5775 76.2362C74.0308 76.2885 74.4841 76.3428 74.9374 76.395C75.163 73.9507 73.9825 72.4672 71.3495 72.1537L71.3454 72.1496Z" fill="#5EB39B"/>
<path d="M87.4981 82.544C87.3168 84.3813 86.2391 85.5391 84.2044 85.328C82.2039 85.123 81.3658 83.7682 81.5613 81.9349C81.8574 79.1509 82.1535 76.3649 82.4517 73.5808C81.9702 73.5306 81.4887 73.4783 81.0052 73.4261C80.7031 76.2101 80.4029 78.9941 80.1007 81.7782C79.7985 84.5562 81.3779 86.2607 84.0794 86.5402C86.8011 86.8196 88.6928 85.4708 88.9607 82.6867C89.2307 79.8967 89.5006 77.1066 89.7726 74.3186C89.2911 74.2723 88.8076 74.2261 88.3261 74.1779C88.0501 76.9659 87.7741 79.756 87.5002 82.544H87.4981Z" fill="#5EB39B"/>
<path d="M99.3619 75.1789C98.2095 75.0824 97.0572 74.9839 95.9049 74.8814C95.5342 79.0504 95.1635 83.2194 94.7928 87.3884C95.2703 87.4306 95.7477 87.4729 96.2272 87.5151C96.3723 85.8406 96.5193 84.1662 96.6644 82.4918C97.4077 82.5561 98.1511 82.6204 98.8945 82.6827C99.8192 84.4476 100.752 86.2105 101.689 87.9734C102.229 88.0176 102.768 88.0598 103.308 88.102C102.311 86.2648 101.32 84.4255 100.337 82.5862C102.305 82.3691 103.365 81.2616 103.49 79.6695C103.508 79.4243 103.528 79.1811 103.548 78.9358C103.715 76.787 102.492 75.4362 99.3619 75.1749V75.1789ZM102.09 78.8615C102.071 79.0826 102.053 79.3037 102.037 79.5228C101.93 80.8455 100.913 81.6314 98.8139 81.4545C98.133 81.3962 97.4521 81.3379 96.7711 81.2796C96.9182 79.5931 97.0653 77.9066 97.2123 76.2222C97.8832 76.2804 98.554 76.3367 99.2249 76.393C101.473 76.58 102.198 77.5187 102.092 78.8615H102.09Z" fill="#5EB39B"/>
<path d="M108.625 88.5061C109.102 88.5402 109.582 88.5744 110.061 88.6086C110.19 86.7392 110.321 84.8697 110.45 82.9983C112.18 83.1189 113.911 83.2335 115.641 83.342C115.668 82.936 115.692 82.5279 115.718 82.1219C113.99 82.0133 112.263 81.8988 110.535 81.7802C110.639 80.2806 110.742 78.7811 110.847 77.2815C112.928 77.4242 115.009 77.5609 117.09 77.6875C117.114 77.2815 117.14 76.8734 117.164 76.4674C114.616 76.3126 112.068 76.1458 109.519 75.9649C109.221 80.1459 108.923 84.327 108.625 88.5081V88.5061Z" fill="#5EB39B"/>
<path d="M212.856 88.1121C210.684 88.2407 209.542 86.9563 209.429 84.9099C209.359 83.6536 209.288 82.3973 209.218 81.141C209.101 79.0564 210.078 77.6594 212.255 77.5287C214.125 77.4162 215.134 78.4212 215.471 80.2203C215.932 80.1902 216.393 80.16 216.855 80.1299C216.474 77.7157 214.915 76.1297 212.163 76.2965C209.359 76.4674 207.596 78.1579 207.759 81.2214C207.827 82.4717 207.896 83.722 207.962 84.9723C208.128 88.0337 210.074 89.5131 212.987 89.3423C215.604 89.1875 217.201 87.6075 217.171 84.9522C216.708 84.9823 216.244 85.0125 215.779 85.0426C215.759 87.0085 214.733 88.0035 212.856 88.1141V88.1121Z" fill="#5EB39B"/>
<path d="M225.485 75.5608C224.244 79.9107 222.977 84.2566 221.684 88.5965C222.187 88.5603 222.691 88.5262 223.192 88.49C223.523 87.3603 223.851 86.2326 224.178 85.1009C226.011 84.9642 227.842 84.8235 229.673 84.6748C230.167 85.7421 230.66 86.8075 231.158 87.8749C231.68 87.8327 232.199 87.7885 232.721 87.7442C230.779 83.6476 228.861 79.5489 226.968 75.4442C226.472 75.4844 225.979 75.5226 225.483 75.5608H225.485ZM224.472 83.8586C225.092 81.6616 225.705 79.4645 226.311 77.2654C227.254 79.3439 228.201 81.4204 229.156 83.4948C227.594 83.6214 226.033 83.7421 224.472 83.8586Z" fill="#5EB39B"/>
<path d="M247.623 73.5266C246.386 76.5578 245.131 79.5871 243.858 82.6103C242.029 79.8947 240.217 77.1729 238.422 74.4492C237.838 74.5035 237.252 74.5578 236.668 74.612C237.057 78.8414 237.445 83.0687 237.834 87.296C238.3 87.2538 238.765 87.2115 239.232 87.1673C238.91 83.73 238.588 80.2927 238.265 76.8574C239.964 79.3559 241.676 81.8485 243.402 84.3391C243.787 84.3009 244.172 84.2627 244.557 84.2245C245.751 81.4445 246.93 78.6625 248.094 75.8764C248.459 79.3117 248.826 82.749 249.19 86.1844C249.662 86.1341 250.133 86.0839 250.604 86.0336C250.147 81.8063 249.69 77.579 249.233 73.3537C248.697 73.412 248.161 73.4683 247.625 73.5266H247.623Z" fill="#5EB39B"/>
<path d="M263.874 75.1246C263.598 72.9517 262.122 71.8562 259.001 72.2341C257.851 72.3728 256.702 72.5094 255.554 72.6421C256.046 76.8674 256.537 81.0947 257.029 85.32C257.506 85.2657 257.984 85.2095 258.461 85.1532C258.26 83.4566 258.06 81.7601 257.861 80.0655C258.56 79.9831 259.259 79.9007 259.956 79.8163C262.837 79.4705 264.233 77.9288 263.971 75.8664C263.939 75.6191 263.909 75.3719 263.876 75.1246H263.874ZM259.751 78.5941C259.072 78.6765 258.393 78.7569 257.714 78.8373C257.512 77.1287 257.311 75.4201 257.107 73.7115C257.776 73.6331 258.445 73.5527 259.114 73.4723C261.354 73.2009 262.261 73.9869 262.43 75.3437C262.458 75.5669 262.486 75.79 262.512 76.0131C262.68 77.3518 261.844 78.3408 259.751 78.5941Z" fill="#5EB39B"/>
</g>
<defs>
<clipPath id="clip0_13_465">
<rect width="330" height="100" fill="white"/>
</clipPath>
</defs>
</svg>
