<svg xmlns="http://www.w3.org/2000/svg" width="330" height="100" fill="none"><g fill="#5EB39B" clip-path="url(#a)"><path d="M13.2478 24.8593a169.6484 169.6484 0 0 0-2.9453-1.186c-2.4135-.9407-3.2717-1.4493-3.2717-3.1941 0-1.5217.818-2.6031 3.0662-2.8182 2.1636-.203 3.1366.6433 3.5275 2.4524.1289.591.6003.991 1.1463.9608 1.3396-.0764 2.6793-.1507 4.021-.2251.7212-.0382 1.2732-.8342 1.1705-1.6785-.6689-5.562-3.9163-8.5491-9.8653-7.6184C3.596 12.5995.4916 16.4811.4916 21.1506c0 4.4826 2.0004 6.4706 7.194 8.6375.8864.3679 1.7728.7458 2.6592 1.1317 2.9453 1.3086 3.8055 2.0222 3.8055 4.2535 0 2.0543-.9408 2.9026-3.5195 2.6594-2.6028-.2432-3.7027-1.0754-4.3192-3.1057-.157-.5206-.6124-.8885-1.118-.9186a2540.288 2540.288 0 0 1-4.011-.2452c-.7474-.0443-1.3115.603-1.1544 1.3367 1.1363 5.3469 4.9478 8.1993 10.645 9.0777 6.8736 1.0795 10.0264-2.1468 10.0264-8.7862 0-5.3007-1.6802-7.924-7.4498-10.3341l-.002.002ZM46.7377 7.339a1489.108 1489.108 0 0 0-4.1983.4704c-.6548.0763-1.1826.8683-1.1846 1.7669v24.5859c0 3.4071-1.9682 6.0927-4.428 5.8897-2.9533-.2413-4.3897-2.9228-4.3897-6.8144V10.5411c0-.8523-.5298-1.4794-1.1825-1.397-1.3981.1749-2.7962.3498-4.1923.5307-.6527.0864-1.1826.8141-1.1826 1.6282v22.0471c0 8.141 4.3011 13.287 10.9451 14.1855 6.6863.8905 10.9954-3.8514 10.9954-13.3614V8.9029c0-.9347-.5298-1.6343-1.1845-1.5619l.002-.002ZM71.2145 34.5381c-.3022-.8845-.1209-1.98.417-2.4906 2.3772-2.2453 3.8196-6.0585 3.8196-11.2065v-2.3156c0-8.9773-3.9908-13.689-10.526-13.0357-2.9755.2774-5.949.5668-8.9225.8704-.6547.0663-1.1845.9065-1.1845 1.8714V47.22c0 .9649.5298 1.8051 1.1845 1.8714 1.3457.1367 2.6915.2714 4.0392.402.6547.0664 1.1846-.6914 1.1846-1.6885V36.1562c0-.995.5298-1.787 1.1845-1.7689.4412.0121.8844.0261 1.3256.0382.4512.0121.8622.4181 1.0617 1.0473 1.4404 4.5328 2.8788 9.1461 4.3192 13.8337.2014.6513.6124 1.0895 1.0636 1.1317 1.515.1347 3.0279.2633 4.5429.392.9005.0784 1.4726-1.4332 1.0415-2.7398a1540.7633 1540.7633 0 0 0-4.5529-13.5523h.002Zm-2.3429-13.9805c0 3.172-1.4384 5.2505-4.4401 5.2645-.6729.0061-1.3457.0101-2.0206.0161-.6547.004-1.1866-.798-1.1845-1.795v-7.8978c0-.995.5298-1.8353 1.1845-1.8735a646.5622 646.5622 0 0 1 2.0206-.1166c2.9997-.1789 4.4401 1.8112 4.4401 5.0455v1.3568ZM82.4376 51.4533c1.3477.1045 2.6975.2051 4.0452.3036.6548.0502 1.1886-.8021 1.1866-1.9016V35.0185c0-1.0975.5318-1.98 1.1866-1.9699 2.488.0382 4.9759.0764 7.4639.1105.6567.0101 1.1866-.8965 1.1886-2.0262V25.587c0-1.1297-.5319-2.0383-1.1886-2.0303-2.488.0262-4.9759.0563-7.4639.0845-.6548.008-1.1866-.8765-1.1866-1.974v-6.7058c0-1.0975.5318-2.0101 1.1866-2.0403 3.1729-.1387 6.3478-.2673 9.5228-.3879.6567-.0242 1.1886-.9629 1.1886-2.0986V4.8605c0-1.1337-.5319-2.0222-1.1886-1.98-5.3164.3317-10.6308.7036-15.9432 1.1116-.6547.0523-1.1866.9649-1.1866 2.0403V49.407c0 1.0754.5319 1.99 1.1866 2.0403l.002.006ZM122.066 1.6644c-5.597.2271-11.189.4965-16.781.81-.655.0383-1.189.9971-1.189 2.1429v46.2129c0 1.1458.532 2.1066 1.189 2.1428 5.592.3136 11.186.5829 16.781.8101.657.0261 1.19-.9146 1.188-2.1046V45.837c0-1.188-.531-2.1649-1.188-2.181-3.453-.0864-6.904-.1809-10.355-.2874-.657-.0221-1.188-.979-1.188-2.1408v-7.2425c0-1.1619.531-2.0986 1.188-2.0946 2.764.0221 5.53.0443 8.294.0623.657.0061 1.189-.9507 1.189-2.1367v-5.8214c0-1.1859-.532-2.1408-1.189-2.1327-2.766.0261-5.53.0563-8.294.0864-.657.0061-1.188-.9287-1.188-2.0905v-5.6384c0-1.1619.531-2.1207 1.188-2.1408 3.451-.1045 6.904-.201 10.355-.2875.657-.0161 1.19-.993 1.188-2.181V3.769c0-1.188-.531-2.1307-1.188-2.1046ZM135.664 52.0644V37.9452c0-1.208.534-2.1809 1.189-2.1769.443.004.886.008 1.329.01.452.004.865.4784 1.066 1.2282 1.444 5.3852 2.889 10.7924 4.333 16.2137.2.7538.613 1.2363 1.066 1.2463 1.519.0302 3.038.0563 4.555.0804.904.0141 1.477-1.7769 1.043-3.2564-1.523-5.2022-3.044-10.3944-4.567-15.5705-.302-1.0292-.12-2.3217.419-2.9307 2.384-2.6755 3.83-7.0817 3.83-13.0398V17.066c0-10.3542-3.999-16.1373-10.556-15.9685-2.984.0744-5.969.1588-8.953.2573-.657.0201-1.188 1.0111-1.188 2.2092v48.3135c0 1.198.531 2.189 1.188 2.2091 1.35.0442 2.702.0864 4.053.1266.657.0201 1.189-.9447 1.189-2.1528l.004.004Zm0-38.3734c0-1.2061.534-2.1951 1.189-2.2071.675-.0121 1.351-.0221 2.026-.0322 3.01-.0482 4.455 2.378 4.455 6.1952v1.6041c0 3.7409-1.443 6.1872-4.455 6.1912-.675 0-1.351.002-2.026.004-.657 0-1.191-.9749-1.189-2.183V13.691ZM164.815 44.9747c-2.625 0-3.735-1.2724-4.356-4.8083-.161-.9045-.616-1.5136-1.126-1.5156-1.35-.004-2.697-.008-4.047-.0141-.754-.004-1.324 1.2865-1.167 2.6614 1.149 10.0326 4.995 14.1413 10.738 14.1494 6.928.002 10.105-5.7349 10.103-16.0349 0-8.3058-1.69-12.2256-7.506-16.467-.989-.7196-1.981-1.4372-2.97-2.1568-2.433-1.7709-3.3-2.768-3.3-5.8475 0-2.6936.824-4.4685 3.093-4.4705 2.182-.002 3.161 1.5679 3.556 4.6112.13.997.604 1.7046 1.156 1.7046 1.35 0 2.699.004 4.051.008.725.0021 1.283-1.198 1.179-2.5387-.671-8.7562-3.943-14.264-9.938-14.2559-6.558.0201-9.692 6.4485-9.692 15.3534 0 8.4506 2.02 12.3663 7.258 15.9906.893.6171 1.787 1.2322 2.68 1.8493 2.969 2.0785 3.835 3.1579 3.835 6.8545 0 3.3871-.946 4.9309-3.547 4.9289v-.002ZM192.485 23.006c-.99-.7157-1.979-1.4313-2.97-2.1489-2.433-1.7689-3.3-2.7719-3.3-5.8294 0-2.6795.826-4.4283 3.093-4.3981 2.179.0301 3.16 1.598 3.555 4.6072.129.989.607 1.6885 1.155 1.6945 1.349.0141 2.699.0282 4.049.0443.725.008 1.281-1.1659 1.178-2.4826-.674-8.6053-3.942-14.101-9.937-14.2437-6.556-.1488-9.69 6.2032-9.69 15.1121 0 8.4446 2.02 12.3744 7.256 15.9544.893.6091 1.787 1.2182 2.681 1.8232 2.968 2.0463 3.836 3.1017 3.834 6.75 0 3.3449-.949 4.8827-3.545 4.9208-2.623.0342-3.735-1.204-4.356-4.7157-.157-.8986-.616-1.4996-1.126-1.4956-1.35.0101-2.698.0181-4.047.0242-.754.004-1.324 1.2985-1.167 2.6714 1.147 10.0225 4.996 14.0227 10.736 13.89 6.928-.1728 10.099-5.8816 10.101-15.9825 0-8.1571-1.69-11.9864-7.502-16.1977l.002.0021ZM252.407 4.1971c-1.436-.1145-2.872-.225-4.311-.3356-.554-.0423-1.035.5588-1.158 1.4533-1.08 7.8817-2.162 15.8459-3.241 23.8864-.28 2.0724-2.039 2.0965-2.317.01-1.082-8.0867-2.162-16.2479-3.244-24.4773-.12-.9307-.602-1.6182-1.158-1.6564-1.938-.1266-3.876-.2472-5.816-.3638-.548-.0342-1.025.591-1.154 1.5116-1.163 8.2898-2.323 16.6479-3.486 25.0724-.298 2.1588-2.058 2.1307-2.318-.0543-1.001-8.4164-2.003-16.8871-3.006-25.406-.117-.981-.6-1.7067-1.162-1.7328a1151.404 1151.404 0 0 0-4.592-.2191c-.775-.0362-1.343 1.2523-1.152 2.6112 2.256 15.9282 4.511 31.6776 6.767 47.2119.133.9267.608 1.5538 1.152 1.5257 1.757-.0905 3.512-.1869 5.268-.2854.548-.0322 1.028-.7177 1.155-1.6524 1.283-9.3511 2.566-18.6198 3.852-27.8041.292-2.0986 2.018-2.0604 2.31.0281 1.273 9.1542 2.547 18.2199 3.818 27.1911.127.9005.606 1.5116 1.154 1.4734 1.96-.1327 3.92-.2714 5.879-.4161.542-.0402 1.015-.6875 1.15-1.5699 2.252-14.8147 4.504-29.3278 6.757-43.4992.191-1.2081-.375-2.4403-1.151-2.5027h.004ZM270.45 7.0053c-.163-.7437-.615-1.2764-1.12-1.3247-1.725-.1648-3.449-.3256-5.174-.4824-.505-.0462-.954.4161-1.12 1.1538-3.042 13.5825-6.086 27.6795-9.13 42.2188-.266 1.2744.307 2.5368 1.122 2.4684 1.415-.1165 2.831-.2351 4.245-.3578.52-.0442.979-.6231 1.132-1.4272.349-1.8211.697-3.6343 1.046-5.4414.153-.796.612-1.3588 1.132-1.387 2.706-.1568 5.411-.3196 8.115-.4904.519-.0322.979.4522 1.132 1.194.348 1.6845.697 3.3629 1.045 5.0313.153.7337.613 1.2001 1.133 1.1478 1.48-.1487 2.963-.2995 4.444-.4543.814-.0864 1.386-1.3166 1.12-2.4162-3.038-12.5713-6.078-25.7397-9.12-39.4367l-.002.004Zm-2.256 26.4775c-1.064.0261-2.128.0522-3.192.0763-.799.0201-1.369-1.1839-1.132-2.384.532-2.6915 1.064-5.365 1.596-8.0204.344-1.7267 1.92-1.6785 2.264.0422.532 2.6514 1.064 5.2846 1.596 7.8998.237 1.1639-.335 2.3619-1.132 2.384v.0021ZM303.17 9.4557c-1.414-.181-2.828-.3579-4.244-.5327-.526-.0643-.99.3357-1.137.985-1.537 6.7821-3.072 13.7754-4.609 20.9696-.33 1.5458-1.936 1.6041-2.27.0483-1.56-7.2365-3.119-14.672-4.678-22.2964-.149-.7257-.611-1.2664-1.136-1.3247-1.513-.1668-3.028-.3316-4.541-.4925-.806-.0884-1.376 1.0091-1.126 2.1529 2.874 13.1342 5.749 25.7236 8.624 37.706.159.6654.612 1.0714 1.124 1.0131 1.793-.205 3.588-.4141 5.381-.6291.512-.0624.967-.5568 1.124-1.2262 2.871-12.0688 5.742-23.5145 8.612-34.2728.25-.9347-.318-1.996-1.124-2.1026v.002ZM329.146 12.9613c-5.548-.8543-11.1-1.6624-16.658-2.4282-.653-.0925-1.354.4503-1.568 1.2141-2.871 10.2416-5.743 21.2069-8.618 32.8335-.214.8643.141 1.5056.796 1.4212 5.562-.7096 11.12-1.4614 16.674-2.2594.653-.0945 1.352-.784 1.567-1.5338.351-1.2302.7-2.4483 1.05-3.6544.214-.7357-.141-1.2804-.794-1.2242-3.426.3036-6.853.5971-10.282.8805-.653.0563-1.009-.5588-.794-1.3669.443-1.6744.889-3.3328 1.332-4.9751.213-.792.917-1.4392 1.567-1.4513 2.746-.0603 5.492-.1206 8.236-.1849.65-.0161 1.354-.6111 1.565-1.3207a488.611 488.611 0 0 1 1.05-3.4634c.213-.6955-.141-1.2765-.794-1.2986-2.744-.0924-5.488-.1849-8.234-.2714-.652-.0201-1.007-.6553-.793-1.4131.346-1.2241.691-2.4403 1.035-3.6423.214-.7458.915-1.2986 1.567-1.2403 3.427.2995 6.854.6071 10.277.9267.652.0603 1.351-.4221 1.565-1.0674.349-1.0613.699-2.1106 1.048-3.1499.213-.6291-.143-1.2221-.792-1.3226l-.002-.0081ZM183.727 73.0361c-5.576-2.9107-12.975-4.5148-20.84-4.5148s-15.265 1.6041-20.841 4.5148c-5.685 2.969-8.815 6.9551-8.815 11.2246 0 4.2695 3.13 8.2556 8.815 11.2245C147.622 98.3959 155.022 100 162.887 100s15.264-1.6041 20.84-4.5148c5.685-2.9689 8.816-6.955 8.816-11.2245 0-4.2695-3.131-8.2556-8.816-11.2246Zm-20.84 25.8985c-15.764 0-28.587-6.5832-28.587-14.6739 0-8.0908 12.825-14.674 28.587-14.674s28.586 6.5832 28.586 14.674c0 8.0907-12.824 14.6739-28.586 14.6739Z"/><path d="M152.369 85.4748c1.18-1.2202 1.752-1.9659 1.752-3.3067 0-1.5719-.882-2.6011-2.812-2.6011-1.93 0-2.907 1.0835-2.987 2.9127h1.303c.095-1.18.598-1.7609 1.656-1.7609 1.005 0 1.467.4603 1.467 1.4493 0 .8001-.218 1.3006-1.264 2.4122l-3.245 3.5499v1.0573h6.003v-1.1518h-4.127l2.254-2.5609ZM159.132 79.565c-1.983 0-3.165 1.0975-3.165 3.0494v3.6725c0 1.9518 1.182 3.0353 3.165 3.0353 1.982 0 3.177-1.0976 3.177-3.0353v-3.6866c0-1.9378-1.181-3.0353-3.177-3.0353Zm1.807 6.6957c0 1.1519-.544 1.9117-1.807 1.9117s-1.793-.7598-1.793-1.9117v-3.6182c0-1.1659.544-1.9237 1.793-1.9237 1.249 0 1.807.7578 1.807 1.9096v3.6323ZM168.014 85.4748c1.18-1.2202 1.752-1.9659 1.752-3.3067 0-1.5719-.882-2.6011-2.812-2.6011-1.93 0-2.907 1.0835-2.987 2.9127h1.303c.095-1.18.598-1.7609 1.656-1.7609 1.005 0 1.467.4603 1.467 1.4493 0 .8001-.218 1.3006-1.264 2.4122l-3.245 3.5499v1.0573h6.003v-1.1518h-4.127l2.254-2.5609ZM173.961 83.1712h-.911v-2.3177h3.844v-1.1518h-5.133v4.6213h2.145c1.441 0 2.106.5548 2.106 1.7066v.6372c0 1.0573-.693 1.586-1.699 1.586-1.005 0-1.589-.5005-1.67-1.5036h-1.303c.068 1.6805 1.114 2.6554 3.028 2.6554s3.016-1.0975 3.016-2.7097v-.6914c0-1.9378-1.169-2.8323-3.423-2.8323ZM71.3454 72.1496c-2.7237-.3276-4.0492.8905-4.2769 2.6836-.2296 1.8272.5057 2.6975 2.6834 3.775.4291.2151.8582.4281 1.2893.6432 1.7225.8724 2.1516 1.4976 2.0126 2.6715-.1693 1.4573-1.0214 2.0624-2.8708 1.8393-1.9601-.2372-2.7901-1.19-2.8123-2.9409-.4573-.0562-.9126-.1145-1.3679-.1708-.0524 2.6051 1.2813 3.9861 4.017 4.3177 2.8446.3438 4.2548-.7598 4.5046-2.9287.2014-1.7448-.4231-2.7479-2.7539-3.9258a405.3771 405.3771 0 0 1-1.2873-.6412c-1.6338-.8101-2.1092-1.2865-1.9602-2.4745.137-1.1016.8361-1.8594 2.6794-1.6383 1.8252.2171 2.4678 1.1378 2.3751 2.8765.4533.0523.9066.1066 1.3599.1588.2256-2.4443-.9549-3.9278-3.5879-4.2413l-.0041-.0041ZM87.4981 82.544c-.1813 1.8373-1.259 2.9951-3.2937 2.784-2.0005-.205-2.8386-1.5598-2.6431-3.3931.2961-2.784.5922-5.57.8904-8.3541-.4815-.0502-.963-.1025-1.4465-.1547-.3021 2.784-.6023 5.568-.9045 8.3521-.3022 2.778 1.2772 4.4825 3.9787 4.762 2.7217.2794 4.6134-1.0694 4.8813-3.8535.27-2.79.5399-5.5801.8119-8.3681-.4815-.0463-.965-.0925-1.4465-.1407-.276 2.788-.552 5.5781-.8259 8.3661h-.0021ZM99.3619 75.1789a670.3648 670.3648 0 0 1-3.457-.2975l-1.1121 12.507c.4775.0422.9549.0845 1.4344.1267.1451-1.6745.2921-3.3489.4372-5.0233.7433.0643 1.4867.1286 2.2301.1909a1010.4517 1010.4517 0 0 0 2.7945 5.2907c.54.0442 1.079.0864 1.619.1286a982.1414 982.1414 0 0 1-2.971-5.5158c1.968-.2171 3.028-1.3246 3.153-2.9167.018-.2452.038-.4884.058-.7337.167-2.1488-1.056-3.4996-4.1861-3.7609v.004Zm2.7281 3.6826c-.019.2211-.037.4422-.053.6613-.107 1.3227-1.124 2.1086-3.2231 1.9317l-2.0428-.1749.4412-5.0574c.6709.0582 1.3417.1145 2.0126.1708 2.2481.187 2.9731 1.1257 2.8671 2.4685h-.002ZM108.625 88.5061l1.436.1025c.129-1.8694.26-3.7389.389-5.6103 1.73.1206 3.461.2352 5.191.3437.027-.406.051-.8141.077-1.2201a901.2958 901.2958 0 0 1-5.183-.3417c.104-1.4996.207-2.9991.312-4.4987 2.081.1427 4.162.2794 6.243.406.024-.406.05-.8141.074-1.2201a753.1812 753.1812 0 0 1-7.645-.5025l-.894 12.5432v-.002ZM212.856 88.1121c-2.172.1286-3.314-1.1558-3.427-3.2022-.07-1.2563-.141-2.5126-.211-3.7689-.117-2.0846.86-3.4816 3.037-3.6123 1.87-.1125 2.879.8925 3.216 2.6916l1.384-.0904c-.381-2.4142-1.94-4.0002-4.692-3.8334-2.804.1709-4.567 1.8614-4.404 4.9249.068 1.2503.137 2.5006.203 3.7509.166 3.0614 2.112 4.5408 5.025 4.37 2.617-.1548 4.214-1.7348 4.184-4.3901l-1.392.0904c-.02 1.9659-1.046 2.9609-2.923 3.0715v-.002ZM225.485 75.5608a1165.7644 1165.7644 0 0 1-3.801 13.0357c.503-.0362 1.007-.0703 1.508-.1065.331-1.1297.659-2.2574.986-3.3891a835.531 835.531 0 0 0 5.495-.4261c.494 1.0673.987 2.1327 1.485 3.2001.522-.0422 1.041-.0864 1.563-.1307-1.942-4.0966-3.86-8.1953-5.753-12.3-.496.0402-.989.0784-1.485.1166h.002Zm-1.013 8.2978c.62-2.197 1.233-4.3941 1.839-6.5932.943 2.0785 1.89 4.155 2.845 6.2294-1.562.1266-3.123.2473-4.684.3638ZM247.623 73.5266a887.3934 887.3934 0 0 1-3.765 9.0837 977.5447 977.5447 0 0 1-5.436-8.1611l-1.754.1628c.389 4.2294.777 8.4567 1.166 12.684.466-.0422.931-.0845 1.398-.1287-.322-3.4373-.644-6.8746-.967-10.3099 1.699 2.4985 3.411 4.9911 5.137 7.4817l1.155-.1146c1.194-2.78 2.373-5.562 3.537-8.3481.365 3.4353.732 6.8726 1.096 10.308l1.414-.1508c-.457-4.2273-.914-8.4546-1.371-12.6799-.536.0583-1.072.1146-1.608.1729h-.002ZM263.874 75.1246c-.276-2.1729-1.752-3.2684-4.873-2.8905-1.15.1387-2.299.2753-3.447.408.492 4.2253.983 8.4526 1.475 12.6779.477-.0543.955-.1105 1.432-.1668-.201-1.6966-.401-3.3931-.6-5.0877.699-.0824 1.398-.1648 2.095-.2492 2.881-.3458 4.277-1.8875 4.015-3.9499-.032-.2473-.062-.4945-.095-.7418h-.002Zm-4.123 3.4695c-.679.0824-1.358.1628-2.037.2432-.202-1.7086-.403-3.4172-.607-5.1258.669-.0784 1.338-.1588 2.007-.2392 2.24-.2714 3.147.5146 3.316 1.8714.028.2232.056.4463.082.6694.168 1.3387-.668 2.3277-2.761 2.581Z"/></g><defs><clipPath id="a"><path fill="#fff" d="M0 0h330v100H0z"/></clipPath></defs></svg>