<svg width="252" height="256" viewBox="0 0 252 256" fill="none" xmlns="http://www.w3.org/2000/svg">
<g clip-path="url(#clip0_13_493)">
<mask id="mask0_13_493" style="mask-type:luminance" maskUnits="userSpaceOnUse" x="44" y="44" width="165" height="165">
<path d="M126.585 208.768C171.966 208.768 208.755 172.1 208.755 126.868C208.755 81.6365 171.966 44.9688 126.585 44.9688C81.2045 44.9688 44.4161 81.6365 44.4161 126.868C44.4161 172.1 81.2045 208.768 126.585 208.768Z" fill="white"/>
</mask>
<g mask="url(#mask0_13_493)">
<path d="M181.185 142.79L181.342 143.335C182.398 146.896 183.894 151.383 186.217 155.606C188.184 159.189 190.691 162.491 193.114 165.688C194.382 167.358 195.65 169.027 196.915 170.696L198.49 172.774C202.407 177.936 206.846 183.79 207.886 190.616L208.941 190.457C207.86 183.363 203.334 177.397 199.341 172.133L197.766 170.055C196.5 168.386 195.232 166.714 193.964 165.047C191.565 161.884 189.084 158.61 187.154 155.099C185.015 151.205 183.584 147.068 182.558 143.667C182.413 143.188 182.623 142.683 183.056 142.432C183.931 141.927 184.789 141.335 185.54 140.566C187.546 138.504 188.454 135.275 187.916 132.138C187.325 128.703 185.283 126.062 183.671 124.451C183.516 124.294 183.356 124.139 183.196 123.985C182.39 123.202 181.628 122.465 181.266 121.52C180.951 120.696 180.967 119.78 180.985 118.809C181.001 117.993 181.017 117.15 180.828 116.321C180.489 114.827 179.554 113.631 178.654 112.474C178.04 111.687 177.46 110.944 177.05 110.112C176.184 108.348 176.155 106.357 176.126 104.25C176.108 103.023 176.092 101.754 175.895 100.524C175.496 98.0125 174.312 95.6078 172.558 93.75C172.351 93.5303 172.136 93.3183 171.92 93.1064C171.348 92.5412 170.807 92.01 170.44 91.3689C169.972 90.5473 169.799 89.5399 169.647 88.6529C168.912 84.3905 167.804 79.5943 165.139 76.3235C163.48 74.2799 160.17 73.8691 158.057 75.4469C157.944 75.5307 157.836 75.6196 157.726 75.706C157.416 75.9572 157.125 76.1927 156.815 76.2555C156.329 76.3575 155.83 76.054 155.255 75.7008C154.933 75.5019 154.596 75.2978 154.234 75.1513C152.124 74.293 149.947 75.7348 148.839 76.6715C146.776 78.4168 145.148 80.6671 144.135 83.1816C143.825 83.9535 143.571 84.7542 143.324 85.5261C142.857 86.994 142.415 88.3834 141.623 89.608C141.145 90.3458 140.557 91.0026 139.929 91.6934C139.097 92.6171 138.236 93.5721 137.672 94.7391C136.963 96.207 136.811 97.8189 136.661 99.3757C136.582 100.216 136.498 101.082 136.33 101.898C135.75 104.677 134.183 107.029 132.466 109.478C132.269 109.758 131.946 109.926 131.602 109.934C130.468 109.955 129.439 110.02 128.481 110.153C124.362 110.431 121.267 111.033 118.534 111.551C115.252 112.176 112.414 112.713 108.479 112.694C106.946 112.689 105.977 112.388 105.434 111.744C105.227 111.498 105.072 111.19 104.909 110.863C103.646 108.306 102.494 105.567 101.381 102.913C100.26 100.247 99.102 97.4918 97.8261 94.9092C96.0252 91.259 94.1639 87.4859 91.4521 84.2596C88.4121 80.6435 84.6502 78.3252 80.8541 77.7312C79.9904 77.5978 78.8826 77.5271 77.9847 78.1761C77.4072 78.5895 77.0738 79.2515 77.1158 79.903C77.1473 80.3923 77.3599 80.7586 77.6277 81.0308C76.6485 81.0412 75.6772 81.5672 75.1547 82.5824C69.1246 94.255 53.1082 129.404 55.1873 169.888C57.2718 210.372 76.806 243.707 84.0017 254.7C85.2015 256.539 87.8661 256.403 88.8741 254.451C94.9016 242.781 110.921 207.63 108.842 167.146C107.98 150.405 104.132 134.888 99.4118 121.667C99.7084 121.899 100.031 122.103 100.375 122.276C103.016 123.598 105.972 124.037 109.065 124.037C112.162 124.037 115.394 123.595 118.573 123.163C121.24 122.8 123.986 122.428 126.572 122.334C126.312 123.87 126.184 125.432 126.207 126.986C126.218 127.727 126.263 128.475 126.305 129.2C126.415 131.094 126.517 132.886 126.11 134.64C125.853 135.752 125.401 136.793 124.924 137.895C124.511 138.847 124.084 139.831 123.795 140.862C123.204 142.976 123.283 145.99 125.441 147.526C125.913 147.864 126.433 148.084 126.935 148.298C127.381 148.489 127.804 148.667 128.174 148.918C129.008 149.484 129.544 150.397 130.108 151.36C130.271 151.637 130.434 151.914 130.605 152.184C131.665 153.861 132.983 154.774 134.33 154.774C134.38 154.774 134.427 154.774 134.477 154.772C135.711 154.714 136.916 153.851 137.703 152.464C137.779 152.33 137.85 152.194 137.916 152.058C138.186 152.66 138.467 153.259 138.764 153.851C139.231 154.787 139.735 155.722 140.221 156.624C141.058 158.181 141.925 159.79 142.618 161.434C144.09 164.916 144.944 168.752 145.306 173.507C145.6 177.39 145.524 181.44 145.45 185.357C145.295 193.521 145.138 201.962 148.291 209.558L149.278 209.15C146.209 201.758 146.366 193.432 146.519 185.378C146.584 181.906 146.65 178.332 146.464 174.841C148.824 177.081 151.396 178.719 154.008 179.65C154.581 179.854 155.09 180.205 155.486 180.666L163.548 189.983C164.969 195.465 165.029 201.269 163.719 206.779L164.759 207.025C166.006 201.781 166.045 196.279 164.893 191.019C165.152 191.108 165.426 191.155 165.709 191.155C165.793 191.155 165.877 191.15 165.961 191.142C166.315 191.108 166.652 190.996 166.953 190.831C167.116 195.967 167.896 201.07 169.29 206.018L170.319 205.73C168.849 200.523 168.066 195.143 167.99 189.735C168.074 189.565 168.145 189.384 168.19 189.19L171.592 174.255C171.695 173.802 171.894 173.376 172.157 172.994C174.735 169.239 176.457 164.401 177.184 158.882C177.302 159.055 177.42 159.228 177.538 159.398C178.73 161.088 180.019 162.716 181.355 164.296C187.866 176.817 190.139 191.365 187.756 205.264L188.808 205.445C191.014 192.592 189.299 179.195 183.988 167.3C185.175 168.614 186.377 169.901 187.567 171.175C188.711 172.4 189.895 173.669 191.04 174.93C195.211 179.535 199.816 185.127 202.349 191.684L203.347 191.302C200.75 184.583 196.07 178.894 191.833 174.218C190.685 172.952 189.496 171.68 188.349 170.453C184.907 166.769 181.347 162.959 178.41 158.788C178.024 158.239 177.641 157.668 177.268 157.093C173.797 151.7 171.912 146.386 171.66 141.296C171.642 140.87 171.632 140.485 171.632 140.114C171.632 138.931 171.726 137.722 171.815 136.552C171.928 135.082 172.046 133.559 171.986 132.044C171.873 129.202 171.125 126.342 169.825 123.773C168.857 121.858 168.445 119.704 168.602 117.37C168.652 116.611 168.757 115.889 168.909 115.177L168.935 115.19C169.135 115.298 169.321 115.405 169.508 115.52C173.057 117.705 174.913 121.889 176.134 125.291C177.465 129.001 178.504 132.907 179.507 136.683C180.035 138.667 180.581 140.721 181.164 142.72C181.172 142.743 181.179 142.769 181.185 142.796V142.79ZM159.456 138.716C157.763 138.622 156.405 138.517 155.203 138.421C152.772 138.23 151 138.088 148.624 138.253C148.396 134.352 146.259 129.071 144.311 125.395C142.329 121.656 141.428 118.04 141.636 114.646C141.694 113.694 141.736 112.681 141.699 111.655L142.741 111.771C145.44 112.064 147.989 112.338 150.302 112.406C150.795 112.419 151.36 112.406 151.84 112.069C152.407 111.668 152.596 111.012 152.714 110.36C152.903 109.316 153.029 108.262 153.105 107.202C153.867 107.738 154.554 108.225 155.053 108.578C155.381 108.811 155.767 108.924 156.151 108.924C156.579 108.924 157.004 108.782 157.353 108.502L161.619 105.056C161.608 105.156 161.601 105.255 161.59 105.355C161.538 105.904 161.482 106.469 161.454 107.029C161.32 109.758 162.829 112.296 165.305 113.503C165.817 113.751 166.344 113.982 166.854 114.204L167.313 114.408C167.489 114.487 167.673 114.57 167.854 114.657C167.667 115.693 167.539 116.653 167.418 117.582C167.295 118.514 167.169 119.476 166.982 120.52C166.707 122.043 165.628 123.55 164.585 125.008C164.21 125.531 163.856 126.028 163.538 126.523C162.446 128.224 158.97 134.074 159.453 138.719L159.456 138.716ZM153.132 103.403C153.612 103.638 154.116 103.923 154.654 104.271C155.116 104.57 155.647 104.724 156.193 104.724C156.243 104.724 156.292 104.724 156.34 104.721C156.928 104.693 157.482 104.486 157.946 104.125C158.568 103.641 159.159 103.248 159.755 102.924L159.968 102.809L159.991 102.788C160.049 102.715 160.073 102.626 160.06 102.534C160.046 102.442 159.997 102.364 159.923 102.309L157.424 100.53C157.167 100.346 156.823 100.328 156.547 100.483L156.061 100.752C155.883 100.851 155.673 100.865 155.484 100.783L155.148 100.642C154.828 100.509 154.455 100.592 154.221 100.849L153.032 102.17C152.851 100.336 152.502 98.5201 151.979 96.7539C151.79 96.1076 151.572 95.4587 151.365 94.8307C150.882 93.3733 150.42 91.976 150.215 90.5526C150.997 90.5264 151.898 90.6415 152.803 91.068C153.071 91.1936 153.389 91.0811 153.515 90.8142C153.641 90.5473 153.528 90.2307 153.26 90.1051C152.15 89.5818 151.055 89.4457 150.118 89.485C150.115 89.3986 150.105 89.3123 150.105 89.2259C150.071 86.8972 151.307 84.1288 153.665 83.5872C154.082 83.4904 154.568 83.4459 155.035 83.4014C155.809 83.3281 156.613 83.2549 157.261 82.9461C157.862 82.6609 158.542 82.6426 159.122 82.8938C159.64 83.1188 160.02 83.5375 160.196 84.0843C160.23 84.1812 160.254 84.278 160.277 84.3695C160.572 85.6491 160.43 86.9469 160.18 88.2971C158.356 88.7707 157.185 89.8565 157.117 89.9193C156.904 90.1234 156.896 90.4584 157.098 90.6729C157.203 90.7828 157.345 90.8378 157.484 90.8378C157.616 90.8378 157.749 90.7881 157.852 90.6912C157.865 90.6782 158.666 89.935 159.941 89.4824C159.939 89.5007 159.934 89.5164 159.931 89.5347C159.611 91.0785 159.28 92.672 159.437 94.2838C159.577 95.7282 160.099 97.0784 160.603 98.384C161.099 99.6688 161.566 100.88 161.698 102.168C161.745 102.636 161.748 103.117 161.727 103.604L156.681 107.681C156.39 107.916 155.975 107.929 155.673 107.715C155.053 107.278 154.145 106.637 153.168 105.946C153.192 105.101 153.179 104.253 153.129 103.408L153.132 103.403ZM86.4012 251.735C86.3224 251.756 86.2437 251.764 86.1649 251.764C85.6766 251.764 85.2356 251.426 85.1253 250.934C81.324 234.157 76.6354 202.629 75.8583 147.715C75.391 114.9 76.5671 88.912 76.5776 88.6529C76.6065 88.0668 77.1 87.6115 77.696 87.6377C78.284 87.6665 78.7408 88.1636 78.7145 88.7523C78.7014 89.0088 77.5279 114.939 77.9952 147.696C78.767 202.423 83.4347 233.788 87.2098 250.463C87.3384 251.034 86.9787 251.607 86.4012 251.735ZM82.487 86.2247C84.5583 87.8863 86.031 90.0214 86.984 91.7405C88.483 94.4434 89.4989 97.4525 90.4834 100.36L90.8588 101.466C90.8667 101.487 90.8745 101.508 90.8798 101.529C90.8798 101.529 90.8798 101.524 90.8772 101.521C87.8004 95.2546 84.8444 90.0737 82.487 86.2247ZM118.421 122.109C112.236 122.954 105.841 123.825 100.85 121.326C99.7635 120.782 98.9471 119.851 98.5481 118.702C97.5505 115.847 96.4295 113.029 95.3453 110.303C94.1613 107.328 92.938 104.25 91.8721 101.124L91.4967 100.019C90.4965 97.0653 89.4622 94.0117 87.9186 91.225C86.1045 87.9491 83.7655 85.479 81.114 84.0215C81.114 84.0189 81.1087 84.0163 81.1087 84.0111C80.7202 83.404 80.3606 82.8441 80.0271 82.3312C80.0088 82.3024 79.9878 82.2763 79.972 82.2475C80.0954 82.2475 80.2634 82.2684 80.5023 82.3286C80.7412 82.3966 80.9801 82.462 81.2164 82.5301C82.7364 82.9566 84.1697 83.3569 85.2356 84.3381L85.9601 83.5558C84.7053 82.4019 83.0777 81.944 81.5051 81.5044C80.6966 81.2793 79.8618 81.0438 79.1083 80.7194C78.4756 80.4473 78.2079 80.1908 78.1842 79.8324C78.1659 79.5445 78.3286 79.241 78.6122 79.0369C79.1923 78.6156 79.9904 78.6706 80.6913 78.7805C84.2327 79.3326 87.7637 81.5201 90.6357 84.94C93.2635 88.0668 95.0959 91.7824 96.8706 95.3776C98.1333 97.934 99.2858 100.674 100.399 103.324C101.52 105.99 102.678 108.746 103.956 111.331C104.14 111.703 104.329 112.085 104.62 112.427C105.618 113.613 107.301 113.754 108.477 113.757C108.542 113.757 108.608 113.757 108.674 113.757C112.617 113.757 115.591 113.191 118.736 112.592C121.574 112.053 124.509 111.48 128.573 111.211H128.612C129.757 111.048 131.006 110.983 132.434 110.983C135.06 110.983 137.942 111.252 140.496 111.522C140.575 114.003 140.061 118.362 140.055 118.409C140.053 118.438 139.717 121.29 139.281 122.608C138.651 124.511 137.501 126.157 136.283 127.899C135.511 129.003 134.726 130.136 134.08 131.343C133.807 129.522 133.44 127.659 132.833 125.869C131.487 121.863 129.282 121.141 127.693 121.235C127.533 121.235 127.373 121.237 127.192 121.243C127.192 121.243 127.184 121.243 127.181 121.243L126.761 121.25V121.256C124.055 121.337 121.196 121.724 118.424 122.101L118.421 122.109ZM135.293 140.21C135.293 140.21 135.629 140.184 135.8 140.174C136.144 140.148 136.485 140.124 136.832 140.098C137.16 140.074 137.493 140.051 137.824 140.027C138.155 140.004 138.486 139.98 138.816 139.957C139.144 139.933 139.473 139.912 139.803 139.891C140.134 139.87 140.465 139.847 140.798 139.826C141.129 139.805 141.463 139.786 141.793 139.766C142.127 139.747 142.46 139.726 142.794 139.708C143.13 139.69 143.468 139.674 143.804 139.658C144.138 139.643 144.468 139.624 144.802 139.611C145.143 139.595 145.487 139.585 145.828 139.572C146.159 139.559 146.492 139.546 146.823 139.535C147.17 139.525 147.516 139.517 147.86 139.509C148.191 139.501 148.524 139.493 148.855 139.488C149.204 139.483 149.553 139.48 149.9 139.478C150.231 139.478 150.562 139.472 150.895 139.472C151.247 139.472 151.598 139.478 151.95 139.483C152.278 139.486 152.609 139.488 152.937 139.496C153.294 139.504 153.649 139.517 154.006 139.527C154.331 139.538 154.657 139.546 154.982 139.559C155.342 139.575 155.704 139.595 156.064 139.616C156.384 139.635 156.705 139.648 157.025 139.671C157.392 139.695 157.757 139.729 158.122 139.758C158.435 139.784 158.75 139.805 159.062 139.834C159.437 139.87 159.813 139.915 160.186 139.954C160.487 139.988 160.789 140.017 161.089 140.053C161.482 140.103 161.876 140.163 162.27 140.218C162.548 140.257 162.827 140.291 163.105 140.336C163.541 140.404 163.976 140.485 164.41 140.564C164.641 140.605 164.874 140.642 165.105 140.687C165.769 140.815 166.431 140.956 167.087 141.108L167.591 141.228C167.851 141.291 168.114 141.351 168.376 141.411C168.458 141.43 168.542 141.448 168.623 141.466C168.812 141.508 169.004 141.547 169.195 141.587C169.298 141.608 169.4 141.623 169.505 141.644C169.678 141.676 169.852 141.704 170.028 141.731C170.138 141.746 170.248 141.762 170.358 141.775C170.442 141.786 170.524 141.799 170.608 141.809C170.952 146.893 172.852 152.171 176.255 157.506C175.622 163.702 173.737 169.066 170.805 173.03C168.227 176.518 164.945 178.693 161.317 179.318C159.584 179.616 157.812 179.559 156.04 179.148C155.788 179.09 155.534 179.022 155.282 178.952H155.276C152.179 178.065 149.094 176.092 146.34 173.24C145.962 168.454 145.085 164.568 143.586 161.023C142.872 159.332 141.995 157.702 141.145 156.122C140.662 155.224 140.163 154.298 139.704 153.377C139.234 152.435 138.79 151.472 138.386 150.514C138.205 150.088 138.031 149.659 137.863 149.23C137.808 149.091 137.758 148.95 137.706 148.811C137.593 148.518 137.483 148.225 137.375 147.929C137.315 147.764 137.26 147.597 137.202 147.432C137.107 147.16 137.013 146.888 136.924 146.616C136.866 146.44 136.813 146.265 136.758 146.09C136.674 145.823 136.59 145.556 136.509 145.287C136.456 145.109 136.406 144.928 136.354 144.75C136.278 144.483 136.202 144.214 136.128 143.947C136.078 143.766 136.034 143.583 135.986 143.403C135.918 143.136 135.85 142.869 135.787 142.602C135.742 142.414 135.7 142.225 135.658 142.037C135.6 141.778 135.543 141.516 135.488 141.257C135.446 141.055 135.406 140.854 135.367 140.65C135.338 140.506 135.312 140.362 135.285 140.218" fill="#5EB39B"/>
<path d="M160.288 165.196C160.377 164.916 160.22 164.618 159.939 164.529C159.658 164.44 159.359 164.597 159.269 164.877C158.965 165.835 159.146 166.936 159.739 167.747C159.844 167.891 160.007 167.967 160.172 167.967C160.28 167.967 160.39 167.933 160.487 167.865C160.726 167.692 160.779 167.36 160.606 167.122C160.207 166.578 160.088 165.84 160.291 165.199L160.288 165.196Z" fill="#5EB39B"/>
</g>
<path d="M126.585 211.254C103.935 211.254 82.6419 202.462 66.6255 186.501C50.609 170.539 41.7909 149.313 41.7909 126.737C41.7909 104.161 50.6116 82.9383 66.6255 66.9744C82.6393 51.0106 103.935 42.2214 126.585 42.2214C149.236 42.2214 170.529 51.0132 186.545 66.9744C202.562 82.9357 211.38 104.161 211.38 126.737C211.38 149.313 202.559 170.537 186.545 186.501C170.532 202.464 149.236 211.254 126.585 211.254ZM126.585 47.4546C105.34 47.4546 85.3643 55.7021 70.3401 70.6769C55.316 85.6517 47.0413 105.561 47.0413 126.737C47.0413 147.914 55.316 167.823 70.3401 182.798C85.3643 197.773 105.34 206.02 126.585 206.02C147.831 206.02 167.807 197.773 182.831 182.798C197.855 167.823 206.13 147.914 206.13 126.737C206.13 105.561 197.855 85.6517 182.831 70.6769C167.807 55.7021 147.831 47.4546 126.585 47.4546Z" fill="#5EB39B"/>
<path d="M73.115 214.812C72.5059 215.872 72.758 216.5 73.9393 217.889L74.8686 218.988C76.5409 220.993 76.7037 222.178 75.8111 223.729C74.7006 225.661 72.9706 226.142 70.5108 224.737C68.1454 223.387 67.4708 221.592 68.5497 219.164L69.739 219.844C69.0643 221.495 69.4449 222.701 71.1434 223.672C72.7475 224.588 73.7687 224.352 74.5142 223.054C75.1154 222.01 74.9763 221.259 73.7424 219.776L72.8131 218.677C71.2379 216.832 70.8993 215.736 71.8365 214.106C72.7553 212.507 74.4696 211.871 76.8664 213.24C79.1845 214.564 79.6754 216.419 78.4783 218.614L77.2891 217.934C78.0766 216.345 77.8535 215.231 76.2495 214.315C74.6297 213.391 73.6794 213.834 73.115 214.815V214.812Z" fill="#5EB39B"/>
<path d="M92.9091 220.914L89.6696 228.832C88.5933 231.467 86.3959 232.247 83.8889 231.229C81.3975 230.216 80.3763 228.128 81.4527 225.493L84.6922 217.573L86.0468 218.125L82.8073 226.043C82.0958 227.783 82.5106 229.329 84.3561 230.08C86.2358 230.844 87.6009 230.02 88.3124 228.28L91.5519 220.359L92.9065 220.911L92.9091 220.914Z" fill="#5EB39B"/>
<path d="M96.188 235.25L94.8072 234.897L97.9942 222.536L101.378 223.402C104.444 224.187 105.418 225.755 104.872 227.874L104.686 228.599C104.282 230.172 103.04 231.095 101.068 230.985L103.011 236.998L101.452 236.598L99.6297 230.841L97.4692 230.287L96.188 235.248V235.25ZM99.0653 224.091L97.7763 229.088L99.761 229.596C101.798 230.117 102.937 229.507 103.276 228.199L103.444 227.544C103.785 226.22 103.229 225.156 101.032 224.593L99.0653 224.088V224.091Z" fill="#5EB39B"/>
<path d="M111.152 232.56L110.427 238.22L109.012 238.04L110.632 225.378L118.29 226.351L118.132 227.581L111.889 226.788L111.309 231.328L116.463 231.982L116.305 233.212L111.152 232.558V232.56Z" fill="#5EB39B"/>
<path d="M130.074 234.9L129.804 231.134C129.583 228.06 131.329 226.328 134.159 226.126C136.931 225.93 138.514 227.516 138.906 229.939L137.52 230.038C137.17 228.235 136.144 227.23 134.264 227.364C132.075 227.521 131.114 228.942 131.264 231.032L131.534 234.816C131.681 236.87 132.836 238.142 134.989 237.987C136.85 237.854 137.861 236.852 137.866 234.876L139.252 234.777C139.297 237.443 137.724 239.034 135.133 239.22C132.251 239.424 130.295 237.974 130.074 234.9Z" fill="#5EB39B"/>
<path d="M151.958 233.128L146.587 234.256L146.072 237.754L144.605 238.063L146.621 224.596L148.089 224.287L155.345 235.808L153.822 236.127L151.956 233.128H151.958ZM147.669 226.184L146.71 232.982L151.294 232.019L147.669 226.184Z" fill="#5EB39B"/>
<path d="M158.8 223.962L162.54 233.644L161.244 234.141L156.642 222.23L158.298 221.594L165.741 228.018L166.988 218.258L168.508 217.675L173.11 229.585L171.794 230.09L168.053 220.409L166.838 229.394L165.762 229.808L158.797 223.962H158.8Z" fill="#5EB39B"/>
<path d="M178.371 221.074L180.928 225.519L179.691 226.226L173.322 215.152L176.354 213.42C179.1 211.853 180.896 212.298 181.988 214.195L182.361 214.844C183.398 216.646 182.707 218.598 180.198 220.03L178.373 221.071L178.371 221.074ZM175.178 215.521L177.754 219.998L179.531 218.983C181.355 217.942 181.744 216.709 181.072 215.54L180.736 214.953C180.053 213.766 178.909 213.391 176.942 214.514L175.181 215.521H175.178Z" fill="#5EB39B"/>
<path d="M7.71815 117.653C9.35629 117.823 9.97847 117.019 11.1703 114.709L12.6247 111.888C15.4783 106.367 17.7412 104.91 22.1647 105.368C27.6514 105.938 30.3554 109.395 29.6387 116.25C29.0507 121.873 26.5436 125.44 21.2013 126.078C20.3665 126.178 19.6524 125.476 19.739 124.642L20.1328 120.879C20.1906 120.332 20.5817 119.866 21.1225 119.743C23.0258 119.317 23.7976 118.281 24.068 115.711C24.3358 113.139 23.6165 112.116 21.813 111.928C19.8467 111.723 19.1851 112.522 17.7727 115.345L16.5126 117.896C14.0476 122.881 11.7505 124.663 7.24562 124.197C2.49659 123.705 -0.580162 120.248 0.0971444 113.759C0.70882 107.893 3.89321 104.954 8.53722 104.714C9.34317 104.672 9.99947 105.357 9.91546 106.158L9.52168 109.926C9.45868 110.528 8.98876 110.996 8.39021 111.088C6.79145 111.331 5.88838 112.223 5.66786 114.34C5.43421 116.585 6.29004 117.498 7.72341 117.647L7.71815 117.653Z" fill="#5EB39B"/>
<path d="M11.3383 73.2333C11.593 72.5582 12.3517 72.2154 13.029 72.4693L29.5259 78.6523C35.7293 80.9784 37.6378 86.2954 35.2777 92.5569C32.9308 98.7791 27.9796 101.527 21.7762 99.203L5.27934 93.02C4.60203 92.7662 4.25813 92.01 4.51278 91.3349L5.90677 87.6377C6.16141 86.9626 6.9201 86.6198 7.59741 86.8736L23.8265 92.9546C26.6407 94.0091 28.9956 93.3576 30.0404 90.5918C31.0984 87.7868 29.7543 85.7511 26.9426 84.6966L10.7135 78.6156C10.0362 78.3618 9.69233 77.6056 9.94698 76.9306L11.341 73.2333H11.3383Z" fill="#5EB39B"/>
<path d="M44.3741 73.5133L42.161 76.5904C41.7383 77.1765 40.9193 77.3126 40.3286 76.8913L19.0407 61.6784C18.4527 61.2572 18.3161 60.4408 18.7388 59.852L23.8764 52.7113C27.6908 47.4075 32.5606 45.9919 37.0786 49.2182L38.2494 50.0555C40.8221 51.895 41.9064 54.4017 41.7226 57.1334C41.678 57.8163 42.1925 58.4077 42.8724 58.4914L51.9846 59.6061C52.9743 59.7264 53.4731 60.8594 52.8903 61.668L50.4068 65.1192C50.1154 65.5222 49.6219 65.7289 49.1283 65.6478L39.6697 64.1092C39.1761 64.0281 38.6826 64.2348 38.3912 64.6378L37.7349 65.551C37.3122 66.1371 37.4487 66.9561 38.0368 67.3774L44.0669 71.6869C44.655 72.1082 44.7915 72.9246 44.3688 73.5133H44.3741ZM27.3364 59.7264L31.3609 62.6021C31.9489 63.0234 32.7706 62.8873 33.1933 62.3012L34.2985 60.7626C36.0495 58.3292 35.8185 56.3955 34.1803 55.2233L33.4768 54.7209C31.8045 53.5251 29.8934 53.9281 28.1423 56.3615L27.0371 57.9001C26.6145 58.4862 26.751 59.3052 27.339 59.7264H27.3364Z" fill="#5EB39B"/>
<path d="M54.9327 46.387L60.5796 52.871C61.0547 53.4178 60.997 54.2421 60.4483 54.7157L57.5816 57.1962C57.0329 57.6698 56.206 57.6122 55.7308 57.0654L38.5592 37.3493C38.0841 36.8024 38.1418 35.9782 38.6905 35.5046L50.5434 25.2476C51.092 24.7739 51.919 24.8315 52.3941 25.3784L54.3447 27.6156C54.8198 28.1624 54.7621 28.9867 54.2134 29.4603L47.212 35.5203C46.6633 35.9939 46.6055 36.8208 47.0807 37.365L49.5432 40.1909C50.0183 40.7378 50.8479 40.7954 51.3939 40.3218L56.8413 35.6067C57.3899 35.1331 58.2169 35.1906 58.6921 35.7375L60.6426 37.9747C61.1178 38.5216 61.06 39.3458 60.5113 39.8194L55.064 44.5345C54.5153 45.0081 54.4576 45.8349 54.9327 46.3792V46.387Z" fill="#5EB39B"/>
<path d="M60.7082 18.5438L75.3097 10.8432C75.9502 10.5056 76.7457 10.749 77.0843 11.3874L78.4757 14.0066C78.8143 14.6451 78.5702 15.4379 77.9296 15.7755L69.0065 20.4827C68.366 20.8203 68.1218 21.6131 68.4605 22.2515L69.8308 24.8341C70.1695 25.4726 70.9649 25.7159 71.6055 25.3784L78.7093 21.6314C79.3499 21.2939 80.1453 21.5372 80.484 22.1757L81.8753 24.7949C82.214 25.4333 81.9698 26.2261 81.3293 26.5637L74.2254 30.3107C73.5849 30.6482 73.3408 31.441 73.6794 32.0795L75.4751 35.4601C75.8137 36.0986 76.6092 36.3419 77.2497 36.0044L86.1728 31.2971C86.8134 30.9596 87.6088 31.2029 87.9475 31.8414L89.3388 34.4606C89.6775 35.099 89.4333 35.8919 88.7928 36.2294L74.1913 43.93C73.5508 44.2676 72.7553 44.0242 72.4167 43.3858L60.1648 20.31C59.8261 19.6716 60.0703 18.8787 60.7108 18.5412L60.7082 18.5438Z" fill="#5EB39B"/>
<path d="M98.9944 32.9613L95.306 33.8588C94.6024 34.0288 93.891 33.5997 93.7203 32.8985L87.5091 7.53319C87.3384 6.83194 87.769 6.12284 88.4725 5.95276L97.036 3.86995C103.397 2.32354 108.017 4.40897 109.335 9.79131L109.676 11.186C110.427 14.25 109.611 16.8587 107.687 18.8133C107.206 19.3026 107.209 20.085 107.671 20.5926L113.856 27.3539C114.528 28.0892 114.166 29.2719 113.197 29.5074L109.057 30.5148C108.571 30.6325 108.062 30.4677 107.742 30.0856L101.57 22.7775C101.249 22.3981 100.74 22.2306 100.255 22.3484L99.1598 22.6153C98.4562 22.7853 98.0231 23.4944 98.1963 24.1957L99.9552 31.3809C100.126 32.0821 99.6953 32.7912 98.9918 32.9613H98.9944ZM95.0776 11.4371L96.251 16.2308C96.4217 16.932 97.1331 17.3637 97.8367 17.191L99.6822 16.7436C102.601 16.0345 103.688 14.4175 103.21 12.4629L103.006 11.6255C102.517 9.6317 100.806 8.69757 97.8866 9.40667L96.041 9.85411C95.3375 10.0242 94.9043 10.7333 95.0776 11.4345V11.4371Z" fill="#5EB39B"/>
<path d="M123.984 7.91258C123.958 9.55319 124.813 10.1001 127.226 11.0839L130.172 12.2797C135.939 14.6294 137.593 16.7514 137.522 21.1813C137.433 26.6788 134.214 29.6644 127.297 29.5518C121.626 29.4603 117.841 27.2806 116.736 22.0317C116.562 21.2101 117.2 20.4408 118.043 20.4539L121.836 20.5141C122.39 20.522 122.889 20.8726 123.057 21.3985C123.65 23.2511 124.753 23.9288 127.347 23.9706C129.94 24.0125 130.901 23.2066 130.93 21.4011C130.962 19.4308 130.108 18.8421 127.16 17.6882L124.501 16.6599C119.303 14.6477 117.321 12.5204 117.395 8.00678C117.473 3.24719 120.658 -0.107286 127.202 -0.0026226C133.12 0.0941915 136.333 2.996 136.981 7.58812C137.094 8.38357 136.467 9.09528 135.658 9.0822L131.857 9.0194C131.25 9.00894 130.741 8.58505 130.597 7.99631C130.214 6.43159 129.242 5.60998 127.108 5.57596C124.845 5.53933 124.005 6.47084 123.981 7.90473L123.984 7.91258Z" fill="#5EB39B"/>
<path d="M152.032 10.6339C151.635 12.2274 152.347 12.9522 154.478 14.4488L157.08 16.2726C162.17 19.8547 163.304 22.2882 162.238 26.5925C160.913 31.9303 157.104 34.1178 150.391 32.4641C144.886 31.1061 141.688 28.1363 141.793 22.7749C141.809 21.9349 142.604 21.3279 143.424 21.5294L147.107 22.4373C147.642 22.5708 148.052 23.0208 148.096 23.5703C148.259 25.5066 149.178 26.4145 151.696 27.0347C154.213 27.6548 155.332 27.087 155.765 25.3339C156.24 23.4212 155.539 22.6571 152.927 20.8726L150.567 19.2765C145.957 16.1523 144.503 13.6377 145.589 9.2549C146.737 4.63399 150.596 2.07758 156.949 3.64492C162.693 5.06312 165.171 8.6086 164.769 13.2295C164.698 14.0302 163.927 14.5823 163.144 14.3887L159.456 13.4781C158.868 13.3342 158.466 12.803 158.458 12.2012C158.437 10.5894 157.676 9.57413 155.605 9.06389C153.407 8.52226 152.381 9.24182 152.034 10.6339H152.032Z" fill="#5EB39B"/>
<path d="M195.936 36.1954L183.537 45.937C183.062 46.3111 182.39 46.3111 181.912 45.937L177.927 42.8127C177.454 42.4438 177.294 41.8027 177.538 41.2559L188.464 16.6075C188.811 15.8252 189.803 15.5792 190.475 16.1078L193.875 18.7714C194.363 19.1535 194.516 19.8259 194.24 20.3807L188.037 32.8723C187.417 34.123 188.926 35.3424 190.024 34.4815L201.15 25.7473C201.625 25.3731 202.297 25.3731 202.772 25.7473L207.188 29.2091C207.671 29.5858 207.825 30.2478 207.56 30.7999L201.512 43.4643C200.911 44.7229 202.438 45.9213 203.525 45.0421L214.446 36.198C214.921 35.8133 215.604 35.8081 216.084 36.1849L219.271 38.6811C219.946 39.2097 219.938 40.2275 219.258 40.7482L197.802 57.1438C197.327 57.5075 196.663 57.5023 196.193 57.1334L191.725 53.6298C191.247 53.2556 191.09 52.604 191.344 52.0546L197.939 37.7706C198.516 36.5224 197.017 35.345 195.933 36.1954H195.936Z" fill="#5EB39B"/>
<path d="M214.213 72.6472L209.773 66.0795C209.45 65.6033 208.857 65.3914 208.306 65.5588L205.085 66.527C204.533 66.6918 203.937 66.4825 203.617 66.0063L201.391 62.7146C200.887 61.9689 201.27 60.951 202.142 60.7181L228.927 53.6141C229.468 53.4701 230.04 53.6847 230.352 54.1478L233.148 58.2847C233.461 58.7478 233.445 59.3575 233.109 59.8023L216.444 81.8759C215.901 82.5955 214.811 82.5667 214.307 81.821L211.968 78.3592C211.645 77.883 211.674 77.255 212.034 76.8076L214.144 74.1962C214.507 73.7488 214.533 73.1208 214.21 72.6446L214.213 72.6472ZM221.138 61.6653L216.525 63.0443C215.677 63.2981 215.32 64.2976 215.814 65.0277L217.41 67.3904C217.904 68.1205 218.969 68.165 219.523 67.4794L222.54 63.7377C223.346 62.7355 222.374 61.2964 221.138 61.6653Z" fill="#5EB39B"/>
<path d="M218.048 89.1631L239.683 72.1422C240.383 71.5901 241.42 71.8831 241.728 72.7178L243.208 76.7317C243.408 77.2759 243.227 77.8856 242.759 78.2336L229.875 87.779C228.822 88.5587 229.442 90.2229 230.749 90.1339L246.739 89.0402C247.322 89.0009 247.86 89.3489 248.062 89.8932L249.44 93.6349C249.748 94.4696 249.146 95.3619 248.257 95.3933L220.713 96.3771C220.146 96.398 219.629 96.0526 219.434 95.5215L217.633 90.6389C217.436 90.1077 217.607 89.5111 218.053 89.1605L218.048 89.1631Z" fill="#5EB39B"/>
<path d="M250.301 105.347L251.992 121.844C252.066 122.569 251.543 123.174 250.821 123.197L247.863 123.291C247.141 123.315 246.498 122.747 246.424 122.022L245.39 111.938C245.316 111.213 244.67 110.645 243.951 110.669L241.034 110.763C240.313 110.787 239.79 111.391 239.864 112.116L240.688 120.144C240.761 120.868 240.239 121.473 239.517 121.496L236.558 121.591C235.837 121.614 235.193 121.046 235.12 120.322L234.296 112.294C234.222 111.569 233.576 111.001 232.857 111.025L229.04 111.148C228.318 111.171 227.795 111.776 227.869 112.501L228.903 122.585C228.977 123.31 228.454 123.914 227.732 123.938L224.774 124.032C224.052 124.055 223.409 123.488 223.335 122.763L221.645 106.265C221.571 105.54 222.094 104.936 222.815 104.912L248.865 104.073C249.587 104.049 250.231 104.617 250.304 105.342L250.301 105.347Z" fill="#5EB39B"/>
</g>
<defs>
<clipPath id="clip0_13_493">
<rect width="252" height="256" fill="white"/>
</clipPath>
</defs>
</svg>
