<svg width="845" height="700" viewBox="0 0 845 944" fill="none" xmlns="http://www.w3.org/2000/svg">
<path d="M439.145 97.625C480.07 97 520.695 97.325 561.295 97C562.645 147.775 583.245 193.475 616.02 227.325L615.97 227.275C651.245 259.05 697.145 279.65 747.745 283.15L748.445 283.2V409.1C700.645 407.9 655.695 396.875 615.17 377.925L617.22 378.775C597.62 369.35 581.045 359.675 565.295 348.875L566.595 349.725C566.295 440.95 566.895 532.175 565.97 623.075C563.395 669.4 547.995 711.65 523.295 746.925L523.795 746.15C482.495 805.3 415.595 844.125 339.52 846.425H339.17C336.095 846.575 332.47 846.65 328.82 846.65C285.57 846.65 245.145 834.6 210.695 813.675L211.695 814.25C148.995 776.525 105.745 711.975 97.7448 636.9L97.6448 635.875C97.0198 620.25 96.7198 604.625 97.3448 589.325C109.595 469.85 209.695 377.425 331.37 377.425C345.045 377.425 358.445 378.6 371.47 380.825L370.07 380.625C370.695 426.85 368.82 473.1 368.82 519.325C358.245 515.5 346.045 513.275 333.32 513.275C286.62 513.275 246.895 543.125 232.195 584.8L231.97 585.55C228.645 596.225 226.72 608.5 226.72 621.2C226.72 626.35 227.045 631.45 227.645 636.45L227.595 635.85C235.895 687 279.745 725.6 332.62 725.6C334.145 725.6 335.645 725.575 337.145 725.5H336.92C373.495 724.4 405.245 704.725 423.195 675.65L423.445 675.2C430.12 665.9 434.695 654.65 436.22 642.425L436.245 642.075C439.37 586.15 438.12 530.55 438.42 474.625C438.72 348.725 438.12 223.125 439.045 97.55L439.145 97.625Z" fill="#79c7ad"/>
</svg>
