<svg width="1450" height="153" viewBox="0 0 1450 153" fill="none" xmlns="http://www.w3.org/2000/svg">
<path d="M0 65.1505L139 71.2796L402 65.1505L667 90.6882L992 58L1212 90.6882L1449 65.1505V153H0V65.1505Z" fill="white"/>
<path d="M987.158 0C1096.12 0 1170.92 81.6586 1260.36 80.9229C1349.8 80.1868 1407.48 59.8368 1449 35.5469V100.547C1407.48 124.837 1349.8 145.187 1260.36 145.923C1170.92 146.659 1096.12 65 987.158 65C878.2 65.0002 807.972 158.133 635.887 150.643C500.267 144.797 499.264 68.1609 375.668 71.4082C252.072 74.6557 206.241 154.539 104.079 129.644C35.7679 119.945 21.3473 93.0131 0 74.6982V9.69824C21.3473 28.0131 35.7679 54.9449 104.079 64.6436C206.241 89.5394 252.072 9.65565 375.668 6.4082C499.264 3.16089 500.267 79.7973 635.887 85.6426C807.972 93.1331 878.2 0.000156101 987.158 0Z" fill="#5EB39B"/>
<path d="M0.00521602 60.8429C0.135686 58.5441 1.30992 56.2453 3.5714 53.9465L5.18053 52.3417L9.39906 56.5055L7.4855 58.4574C5.65892 60.279 5.52845 61.9706 7.0506 63.4887C7.78993 64.226 8.61624 64.573 9.44255 64.5296C10.2689 64.4863 11.1821 63.9658 12.1824 62.9682C13.3566 61.7971 14.1395 60.4959 14.4874 59.0646C14.8353 57.6333 14.9223 55.5513 14.7483 52.8622C14.5309 49.4357 14.7048 46.7031 15.2702 44.6646C15.8356 42.626 16.9663 40.8043 18.5754 39.1562C20.7934 36.9441 23.0984 35.773 25.4469 35.6429C27.7953 35.5562 30.0568 36.5537 32.1878 38.679C34.3188 40.8043 35.3191 43.0164 35.1886 45.3152C35.0582 47.614 33.8404 49.9128 31.579 52.2116L30.4047 53.3827L26.1862 49.2188L27.6214 47.7875C28.5781 46.8333 29.1 45.9224 29.1435 45.0983C29.187 44.2742 28.8826 43.4935 28.1432 42.7995C26.6646 41.3248 25.012 41.4983 23.2289 43.2766C22.2286 44.3176 21.5328 45.5321 21.1848 46.9634C20.8369 48.3947 20.7934 50.4766 20.9674 53.1658C21.2283 56.6357 21.0544 59.3682 20.4455 61.3634C19.8367 63.3586 18.6624 65.267 16.8793 67.0453C14.5744 69.3441 12.2259 70.5586 9.87745 70.6453C7.4855 70.7321 5.22402 69.7345 3.04952 67.5658C0.918506 65.3971 -0.081764 63.1417 0.00521602 60.8429Z" fill="white"/>
<path d="M17.1403 77.5418C17.0098 75.1996 17.9231 72.7707 19.9671 70.2984L39.1462 46.7466L44.0171 50.6936L24.5771 74.5924C23.7073 75.6333 23.3158 76.5875 23.3593 77.4116C23.3593 78.2357 23.8377 78.9731 24.6205 79.5803C25.4034 80.2309 26.2297 80.4912 27.0125 80.361C27.8388 80.2309 28.6651 79.6237 29.5349 78.5827L48.9749 54.6839L53.6719 58.5008L34.4928 82.0526C32.4487 84.5683 30.2742 85.9562 27.9693 86.3032C25.6643 86.6502 23.3158 85.8695 20.9239 83.961C18.5754 82.0526 17.3142 79.9273 17.1403 77.5851V77.5418Z" fill="white"/>
<path d="M54.1068 58.7607L62.3264 63.0981C65.1967 64.6162 66.8928 66.3511 67.5017 68.3897C68.1105 70.3848 67.6756 72.7704 66.2405 75.5463L65.1097 77.715C63.1962 81.3583 60.7607 83.0499 57.8034 82.7463V82.833C58.8907 83.9607 59.4125 85.2619 59.2821 86.78C59.1516 88.2981 58.5862 90.1198 57.499 92.2017L54.2372 98.3607C53.7154 99.3583 53.3239 100.182 53.063 100.833C52.8021 101.484 52.6281 102.178 52.5846 102.915L46.9309 99.9222C47.0179 99.2282 47.1919 98.621 47.3658 98.1005C47.5833 97.58 48.0182 96.6258 48.714 95.3246L52.1062 88.9053C52.976 87.3005 53.2805 86.0427 53.1065 85.1318C52.9325 84.221 52.1932 83.4403 50.932 82.7463L49.0184 81.7487L41.0163 96.8427L35.493 93.9366L54.1068 58.7607ZM53.6719 77.8017C54.7591 78.3656 55.7594 78.5391 56.6292 78.2788C57.499 78.0186 58.2818 77.1945 58.9776 75.8499L60.4128 73.1174C61.0652 71.8595 61.3261 70.8186 61.1956 69.9945C61.0217 69.1704 60.4998 68.5198 59.4995 67.9993L56.9771 66.6547L51.6713 76.7174L53.6719 77.7583V77.8017Z" fill="white"/>
<path d="M71.8073 67.7393L87.5072 73.0742L85.6806 78.4525L75.9389 75.1561L72.3727 85.6525L80.0269 88.2549L78.2003 93.6332L70.5461 91.0308L64.9359 107.426L59.0212 105.431L71.8508 67.7826L71.8073 67.7393Z" fill="white"/>
<path d="M88.3334 73.1606L105.034 76.8474L103.816 82.3992L93.2478 80.057L90.9863 90.3365L99.3799 92.2016L98.1621 97.7534L89.7686 95.8884L87.1157 107.816L97.6837 110.158L96.466 115.71L79.7659 112.023L88.3769 73.204L88.3334 73.1606Z" fill="white"/>
<path d="M108.73 76.8911L117.776 78.9297C120.907 79.6236 123.038 80.8815 124.169 82.6598C125.3 84.4381 125.474 86.867 124.822 89.9032L124.3 92.2887C123.386 96.3224 121.473 98.5779 118.559 99.0116V99.1417C119.907 99.9224 120.733 101.05 121.038 102.568C121.342 104.086 121.212 105.951 120.69 108.25L119.124 115.06C118.863 116.188 118.689 117.055 118.602 117.792C118.515 118.486 118.559 119.224 118.689 119.961L112.47 118.573C112.383 117.879 112.383 117.272 112.47 116.708C112.514 116.144 112.731 115.147 113.036 113.672L114.645 106.559C115.036 104.78 115.036 103.479 114.645 102.655C114.21 101.831 113.34 101.267 111.905 100.92L109.774 100.443L105.99 117.055L99.8583 115.667L108.687 76.8911H108.73ZM113.297 95.3682C114.514 95.6285 115.515 95.5417 116.254 95.0646C116.993 94.5875 117.559 93.5899 117.907 92.1152L118.602 89.1224C118.907 87.7345 118.907 86.6501 118.559 85.9128C118.211 85.1755 117.472 84.6983 116.428 84.4381L113.645 83.7875L111.122 94.8477L113.34 95.3682H113.297Z" fill="white"/>
<path d="M126.387 118.963C124.996 117.098 124.43 114.583 124.735 111.373L124.952 109.118L130.867 109.638L130.606 112.371C130.388 114.93 131.345 116.318 133.476 116.535C134.52 116.621 135.39 116.404 135.955 115.841C136.52 115.277 136.912 114.279 137.042 112.891C137.216 111.243 136.955 109.725 136.303 108.38C135.651 107.036 134.389 105.388 132.519 103.436C130.171 100.92 128.562 98.7081 127.692 96.7996C126.822 94.8912 126.518 92.7659 126.735 90.4671C127.04 87.3442 128.04 85.002 129.779 83.3972C131.519 81.8358 133.911 81.1852 136.955 81.4454C139.956 81.7057 142.131 82.79 143.479 84.6551C144.87 86.5201 145.392 89.0358 145.088 92.2454L144.957 93.8936L139.043 93.3731L139.217 91.3346C139.347 89.99 139.173 88.949 138.695 88.2984C138.216 87.6478 137.477 87.2575 136.433 87.1707C134.346 86.9972 133.215 88.1683 132.954 90.684C132.824 92.1153 133.085 93.5032 133.737 94.8045C134.389 96.1057 135.651 97.7538 137.564 99.7057C139.956 102.221 141.565 104.433 142.392 106.385C143.218 108.337 143.479 110.549 143.261 113.021C142.957 116.274 141.913 118.703 140.174 120.265C138.39 121.87 135.998 122.52 132.911 122.217C129.866 121.956 127.692 120.872 126.3 119.007L126.387 118.963Z" fill="white"/>
<path d="M150.176 120.438C148.524 118.79 147.61 116.361 147.48 113.151L147.349 110.896L153.264 110.592L153.394 113.325C153.525 115.884 154.656 117.141 156.83 117.011C157.874 116.968 158.7 116.621 159.222 115.97C159.744 115.32 159.961 114.279 159.874 112.891C159.787 111.243 159.353 109.768 158.526 108.553C157.7 107.339 156.221 105.864 154.09 104.216C151.394 102.091 149.48 100.096 148.393 98.3173C147.262 96.539 146.653 94.5005 146.523 92.2017C146.349 89.0788 147.045 86.6065 148.524 84.7848C150.002 82.9631 152.307 82.0089 155.351 81.8354C158.352 81.7053 160.657 82.4426 162.266 84.0908C163.876 85.739 164.789 88.168 164.963 91.3776L165.05 93.0258L159.135 93.3294L159.048 91.2908C158.961 89.9463 158.657 88.9487 158.091 88.3414C157.526 87.7342 156.743 87.474 155.699 87.5174C153.612 87.6041 152.655 88.9487 152.742 91.4643C152.829 92.8957 153.264 94.2402 154.134 95.4547C155.004 96.6692 156.482 98.1005 158.613 99.792C161.353 101.917 163.267 103.913 164.31 105.691C165.398 107.513 166.007 109.638 166.137 112.153C166.311 115.407 165.615 117.966 164.093 119.787C162.571 121.609 160.266 122.607 157.178 122.737C154.134 122.91 151.785 122.129 150.176 120.481V120.438Z" fill="white"/>
<path d="M171.53 81.2284L177.357 79.6236L188.186 108.38H188.317L183.055 78.1056L189.665 76.2839L200.625 104.997H200.755L195.319 74.7658L200.538 73.3345L207.192 112.761L199.668 114.843L189.796 89.7297H189.665L194.058 116.361L186.055 118.573L171.573 81.2718L171.53 81.2284Z" fill="white"/>
<path d="M205.104 71.0356L213.019 67.9561L233.547 102.655L227.719 104.91L223.761 97.9705V98.0573L217.151 100.66L218.934 108.337L213.498 110.462L205.061 71.0356H205.104ZM221.152 93.3296L211.41 76.0235H211.323L215.933 95.3681L221.195 93.3296H221.152Z" fill="white"/>
<path d="M218.195 65.9175L223.979 63.4018L240.07 90.0765H240.157L231.59 60.1054L236.852 57.8066L247.246 96.6693L239.635 99.9657L218.195 65.9175Z" fill="white"/>
<path d="M239.505 56.5923L255.161 49.7393L257.466 54.9441L247.55 59.2814L251.812 68.9103L259.684 65.4405L261.989 70.6453L254.117 74.1152L259.032 85.3055L268.947 80.9682L271.252 86.173L255.596 93.026L239.548 56.6356L239.505 56.5923Z" fill="white"/>
<path d="M273.818 60.2354L279.429 57.98L281.69 63.5752L276.08 65.8306L273.818 60.2354Z" fill="white"/>
<path d="M300.217 72.4667C298.216 71.2956 296.694 69.2136 295.694 66.1341L294.998 63.9655L300.608 62.1438L301.478 64.7462C302.261 67.1751 303.696 68.0859 305.783 67.392C306.784 67.045 307.48 66.5245 307.784 65.7438C308.132 64.963 308.045 63.9221 307.61 62.5775C307.088 60.9727 306.262 59.7149 305.175 58.7606C304.044 57.8064 302.261 56.7655 299.738 55.7245C296.564 54.3799 294.215 52.992 292.693 51.5606C291.127 50.1293 289.997 48.3076 289.301 46.1389C288.3 43.1462 288.3 40.5871 289.301 38.4618C290.301 36.3365 292.215 34.7751 295.085 33.8642C297.955 32.9534 300.347 33.0402 302.348 34.2112C304.348 35.3823 305.827 37.4642 306.871 40.5438L307.393 42.1052L301.782 43.9269L301.13 41.9751C300.695 40.6739 300.13 39.8064 299.434 39.3727C298.738 38.9389 297.912 38.8956 296.911 39.1992C294.911 39.8498 294.346 41.3679 295.128 43.7968C295.563 45.1847 296.346 46.3124 297.477 47.2667C298.608 48.2209 300.434 49.2185 302.913 50.2594C306.131 51.604 308.48 52.992 310.002 54.4667C311.524 55.9414 312.655 57.8498 313.438 60.2353C314.438 63.3149 314.481 65.9606 313.438 68.1293C312.437 70.298 310.48 71.8594 307.567 72.8136C304.696 73.7679 302.217 73.6377 300.217 72.51V72.4667Z" fill="white"/>
<path d="M320.005 66.2647C318.048 64.9635 316.656 62.7514 315.873 59.6285L308.523 30.1779L314.612 28.6598L322.049 58.5442C322.397 59.8454 322.875 60.7562 323.571 61.2333C324.267 61.6671 325.093 61.7972 326.093 61.537C327.094 61.2767 327.789 60.7996 328.181 60.1056C328.572 59.3683 328.616 58.3707 328.268 57.0261L320.831 27.1418L326.702 25.7104L334.052 55.1611C334.835 58.2839 334.661 60.8864 333.53 62.9249C332.399 64.9635 330.355 66.3948 327.398 67.0888C324.441 67.7827 322.005 67.5225 320.048 66.2647H320.005Z" fill="white"/>
<path d="M332.704 24.4523L341.88 22.9776C345.055 22.4571 347.49 22.8475 349.23 24.0619C350.926 25.3197 352.013 27.445 352.535 30.5246L352.927 32.9535C353.579 37.0306 352.666 39.8065 350.143 41.3679V41.4981C351.752 41.7149 352.927 42.4523 353.796 43.7535C354.623 45.0547 355.232 46.833 355.623 49.1752L356.754 56.0715C356.928 57.1993 357.102 58.1101 357.319 58.7607C357.537 59.4113 357.797 60.1053 358.232 60.7125L351.926 61.7101C351.578 61.1029 351.361 60.539 351.187 59.9752C351.013 59.4113 350.839 58.4137 350.578 56.9824L349.404 49.7824C349.099 48.0041 348.621 46.7896 347.925 46.1824C347.229 45.5752 346.186 45.3583 344.75 45.6185L342.619 45.9655L345.316 62.7944L339.14 63.792L332.791 24.539L332.704 24.4523ZM343.881 39.9366C345.098 39.7197 346.012 39.286 346.49 38.5487C347.012 37.8113 347.142 36.6836 346.881 35.2089L346.403 32.1728C346.186 30.7414 345.751 29.7438 345.142 29.2234C344.533 28.6595 343.707 28.486 342.619 28.6595L339.793 29.0932L341.619 40.327L343.881 39.98V39.9366Z" fill="white"/>
<path d="M356.971 20.8958L373.497 19.5513L373.976 25.2332L363.712 26.0573L364.625 37.1175L372.671 36.4669L373.149 42.1489L365.104 42.7995L366.495 60.0621L360.233 60.5826L357.015 20.9392L356.971 20.8958Z" fill="white"/>
<path d="M377.977 19.3776L395.068 19.2041V24.886L384.283 25.0161L384.37 35.5125L392.981 35.4258V41.1077L384.457 41.1945L384.587 53.4258L395.416 53.2957V58.9776L378.368 59.1511L377.977 19.3776Z" fill="white"/>
<path d="M400.287 19.3345L409.551 20.0284C412.769 20.2887 415.074 21.1995 416.422 22.8044C417.77 24.4092 418.336 26.7513 418.118 29.8742L417.944 32.3031C417.64 36.4236 416.074 38.9393 413.247 39.8068V39.9369C414.726 40.5007 415.726 41.4983 416.248 42.973C416.77 44.4044 416.944 46.3128 416.77 48.655L416.248 55.6381C416.161 56.7658 416.118 57.6766 416.161 58.414C416.161 59.108 416.335 59.8019 416.552 60.5393L410.203 60.0622C410.029 59.4116 409.942 58.8044 409.898 58.1971C409.898 57.6333 409.898 56.5923 410.029 55.1176L410.594 47.8742C410.725 46.0525 410.551 44.7947 409.985 44.014C409.464 43.2333 408.463 42.7995 407.028 42.7128L404.854 42.5393L403.549 59.5417L397.286 59.0646L400.331 19.4212L400.287 19.3345ZM407.463 36.9875C408.724 37.0742 409.681 36.814 410.333 36.2501C410.986 35.6429 411.421 34.6019 411.508 33.0839L411.725 30.0044C411.856 28.573 411.682 27.5321 411.203 26.8381C410.725 26.1441 409.942 25.7538 408.855 25.667L406.028 25.4501L405.158 36.7706L407.42 36.9441L407.463 36.9875Z" fill="white"/>
<path d="M419.553 58.9776C418.336 56.9824 418.031 54.4233 418.64 51.2571L419.075 49.045L424.903 50.1294L424.381 52.8185C423.902 55.3342 424.729 56.8089 426.86 57.1992C427.903 57.4161 428.773 57.1992 429.426 56.7221C430.078 56.2016 430.556 55.2474 430.817 53.9028C431.122 52.2547 431.035 50.7366 430.513 49.3486C429.991 47.9607 428.904 46.1824 427.208 44.0571C425.077 41.3679 423.685 38.9824 423.033 36.9872C422.38 34.992 422.25 32.8667 422.685 30.5679C423.25 27.4884 424.511 25.233 426.381 23.845C428.251 22.4571 430.687 22.0233 433.688 22.5872C436.645 23.151 438.689 24.4089 439.907 26.404C441.124 28.3992 441.385 30.9583 440.777 34.1245L440.472 35.7294L434.644 34.645L435.036 32.6498C435.297 31.3053 435.21 30.2643 434.818 29.5703C434.427 28.8763 433.688 28.3992 432.687 28.2257C430.643 27.8354 429.382 28.8763 428.904 31.392C428.643 32.8233 428.773 34.2113 429.295 35.5559C429.817 36.9438 430.948 38.6787 432.6 40.8041C434.775 43.5366 436.123 45.8788 436.775 47.8739C437.384 49.8691 437.471 52.1245 437.036 54.5534C436.428 57.7631 435.166 60.0619 433.253 61.4932C431.339 62.9245 428.86 63.3149 425.859 62.751C422.859 62.1872 420.771 60.9294 419.553 58.9342V58.9776Z" fill="white"/>
<path d="M438.254 62.7944C437.297 60.6691 437.297 58.1101 438.254 55.0306L438.95 52.8619L444.604 54.6402L443.777 57.2426C442.994 59.7149 443.647 61.233 445.691 61.9269C446.691 62.2306 447.561 62.1872 448.3 61.7535C448.996 61.3197 449.605 60.4522 449.996 59.1077C450.518 57.5029 450.605 56.0282 450.257 54.5535C449.909 53.1221 449.039 51.2571 447.648 48.9149C445.865 45.9655 444.777 43.4498 444.343 41.4113C443.908 39.3727 444.082 37.2041 444.777 35.0354C445.734 32.0426 447.213 29.9607 449.257 28.7896C451.301 27.6185 453.78 27.4884 456.65 28.4426C459.521 29.3535 461.391 30.8715 462.347 32.9535C463.304 35.0788 463.261 37.6378 462.304 40.7173L461.826 42.2788L456.172 40.5004L456.781 38.5486C457.216 37.2474 457.259 36.2065 456.911 35.4691C456.607 34.7318 455.954 34.1679 454.954 33.8643C452.954 33.2137 451.562 34.1245 450.823 36.5535C450.388 37.9414 450.344 39.3294 450.692 40.7607C451.04 42.192 451.953 44.0571 453.345 46.3559C455.172 49.3053 456.259 51.8209 456.607 53.9029C456.998 55.9848 456.781 58.1968 456.041 60.5824C455.041 63.7053 453.519 65.8306 451.475 67.0016C449.387 68.1727 446.908 68.3028 443.995 67.3486C441.081 66.4378 439.167 64.9197 438.21 62.7944H438.254Z" fill="white"/>
<path d="M479.135 37.2476L484.484 40.0668L472.568 68.3897H472.655L489.616 42.8427L495.661 46.0524L483.918 74.4186H484.005L500.836 48.7849L505.62 51.3006L483.353 84.568L476.438 80.9247L486.528 55.8982H486.441L471.306 78.1921L463.957 74.2885L479.091 37.2476H479.135Z" fill="white"/>
<path d="M512.578 55.768L519.841 60.1053L504.881 97.5367L499.488 94.327L502.576 86.9535V87.0403L496.4 83.3969L491.399 89.4692L486.397 86.4764L512.491 55.7246L512.578 55.768ZM504.707 82.0523L512.448 63.7487H512.361L499.879 79.1463L504.707 82.0523Z" fill="white"/>
<path d="M524.843 63.1851L530.322 66.308L518.537 95.1513H518.624L537.498 70.4284L542.5 73.2911L517.493 104.867L510.273 100.747L524.799 63.2284L524.843 63.1851Z" fill="white"/>
<path d="M544.065 74.0283L559.461 81.4452L556.982 86.5633L547.24 81.8789L542.673 91.3343L550.415 95.0645L547.936 100.183L540.195 96.4524L534.845 107.469L544.587 112.154L542.108 117.272L526.713 109.855L544.065 74.0283Z" fill="white"/>
<path d="M563.592 101.137L569.289 103.132L567.289 108.814L561.592 106.819L563.592 101.137Z" fill="white"/>
<path d="M578.596 127.768C577.466 125.73 577.292 123.171 577.988 120.004L578.509 117.792L584.294 119.137L583.685 121.783C583.119 124.298 583.859 125.773 585.99 126.293C587.034 126.554 587.903 126.424 588.556 125.946C589.208 125.469 589.73 124.515 590.034 123.171C590.426 121.566 590.382 120.048 589.904 118.616C589.469 117.228 588.425 115.407 586.816 113.195C584.815 110.419 583.511 107.99 582.945 105.951C582.38 103.913 582.337 101.787 582.858 99.532C583.554 96.4525 584.902 94.2838 586.86 92.9393C588.817 91.6381 591.252 91.2911 594.209 91.985C597.123 92.679 599.167 94.0236 600.254 96.0188C601.342 98.0573 601.559 100.616 600.82 103.783L600.428 105.387L594.644 104.043L595.123 102.048C595.427 100.703 595.384 99.7055 595.036 98.9682C594.688 98.2308 593.992 97.7537 592.992 97.5368C590.948 97.0597 589.643 98.0573 589.078 100.53C588.73 101.918 588.817 103.349 589.295 104.737C589.773 106.125 590.817 107.903 592.383 110.115C594.427 112.934 595.732 115.32 596.253 117.359C596.775 119.397 596.775 121.609 596.253 124.038C595.514 127.204 594.166 129.46 592.209 130.804C590.252 132.149 587.773 132.453 584.772 131.759C581.815 131.065 579.771 129.72 578.64 127.681L578.596 127.768Z" fill="white"/>
<path d="M601.733 132.67C600.385 130.761 599.95 128.202 600.385 124.992L604.647 94.9346L610.866 95.802L606.517 126.294C606.343 127.638 606.473 128.636 606.908 129.33C607.387 130.024 608.126 130.414 609.126 130.544C610.127 130.674 610.953 130.501 611.605 129.98C612.214 129.46 612.649 128.506 612.823 127.161L617.172 96.6695L623.174 97.4936L618.912 127.551C618.477 130.718 617.302 133.06 615.519 134.578C613.693 136.053 611.301 136.573 608.257 136.183C605.256 135.749 603.081 134.578 601.733 132.67Z" fill="white"/>
<path d="M626.044 97.8403L635.307 98.4476C638.526 98.6644 640.831 99.5753 642.222 101.137C643.614 102.742 644.179 105.084 644.005 108.163L643.831 110.592C643.57 114.713 642.048 117.228 639.221 118.139V118.269C640.7 118.833 641.7 119.831 642.266 121.262C642.788 122.693 643.005 124.602 642.831 126.944L642.396 133.927C642.309 135.055 642.309 135.966 642.309 136.703C642.309 137.44 642.483 138.091 642.744 138.828L636.395 138.395C636.221 137.744 636.09 137.137 636.047 136.573C636.047 136.009 636.047 134.968 636.134 133.493L636.612 126.25C636.743 124.428 636.525 123.17 635.96 122.39C635.438 121.652 634.438 121.219 633.002 121.132L630.828 121.002L629.697 138.004L623.435 137.614L626.044 97.9271V97.8403ZM633.481 115.407C634.742 115.493 635.699 115.233 636.351 114.626C637.003 114.019 637.395 112.978 637.482 111.46L637.699 108.38C637.786 106.949 637.612 105.908 637.134 105.214C636.656 104.52 635.873 104.173 634.785 104.086L631.959 103.913L631.219 115.233L633.481 115.363V115.407Z" fill="white"/>
<path d="M647.919 99.0981L664.489 99.315L664.402 104.997L654.095 104.867L653.964 115.927L662.054 116.014L661.967 121.696L653.877 121.609L653.66 138.958L647.397 138.872L647.919 99.0981Z" fill="white"/>
<path d="M666.664 99.2283L683.755 98.6211L683.929 104.303L673.1 104.693L673.448 115.19L682.059 114.886L682.277 120.568L673.665 120.872L674.1 133.06L684.929 132.669L685.147 138.351L668.055 138.958L666.664 99.2283Z" fill="white"/>
<path d="M686.191 98.5341L695.454 97.7101C698.672 97.4064 701.064 97.9703 702.673 99.3149C704.283 100.659 705.239 102.915 705.5 105.994L705.718 108.423C706.066 112.544 704.935 115.276 702.326 116.578V116.708C703.891 117.011 705.022 117.879 705.805 119.18C706.587 120.481 707.022 122.346 707.24 124.688L707.849 131.628C707.936 132.756 708.066 133.667 708.197 134.361C708.327 135.055 708.588 135.705 708.936 136.356L702.586 136.92C702.325 136.312 702.108 135.705 701.978 135.141C701.847 134.578 701.717 133.58 701.586 132.105L700.934 124.862C700.76 123.04 700.368 121.826 699.716 121.132C699.064 120.481 698.02 120.178 696.585 120.308L694.41 120.481L695.932 137.44L689.67 138.004L686.147 98.404L686.191 98.5341ZM696.193 114.756C697.455 114.626 698.368 114.235 698.933 113.541C699.499 112.847 699.716 111.72 699.586 110.245L699.325 107.209C699.194 105.778 698.846 104.78 698.281 104.173C697.716 103.565 696.889 103.349 695.802 103.435L692.975 103.696L693.975 115.016L696.237 114.799L696.193 114.756Z" fill="white"/>
<path d="M714.72 133.624C712.937 132.149 711.806 129.807 711.328 126.64L710.98 124.385L716.851 123.518L717.242 126.207C717.634 128.766 718.851 129.893 721.026 129.546C722.07 129.373 722.853 128.983 723.287 128.289C723.722 127.595 723.853 126.554 723.679 125.166C723.418 123.518 722.853 122.13 721.896 120.958C720.939 119.831 719.33 118.486 717.068 117.055C714.198 115.19 712.111 113.412 710.806 111.72C709.501 110.028 708.718 108.077 708.37 105.778C707.935 102.655 708.37 100.139 709.675 98.1874C711.023 96.2356 713.154 95.0645 716.199 94.6308C719.156 94.197 721.548 94.7175 723.331 96.1922C725.114 97.6669 726.201 100.009 726.68 103.219L726.897 104.867L721.026 105.734L720.722 103.696C720.504 102.351 720.113 101.397 719.504 100.877C718.895 100.356 718.069 100.139 717.068 100.269C714.981 100.573 714.154 101.961 714.502 104.477C714.72 105.908 715.285 107.166 716.242 108.293C717.199 109.421 718.808 110.722 721.113 112.197C724.027 114.062 726.114 115.84 727.375 117.532C728.637 119.224 729.42 121.305 729.767 123.778C730.246 126.987 729.767 129.59 728.463 131.542C727.115 133.493 724.94 134.708 721.896 135.142C718.895 135.575 716.503 135.055 714.72 133.58V133.624Z" fill="white"/>
<path d="M736.595 130.24C734.725 128.852 733.464 126.597 732.855 123.431L732.42 121.219L738.248 120.048L738.77 122.737C739.292 125.252 740.597 126.293 742.728 125.903C743.771 125.686 744.511 125.209 744.902 124.515C745.337 123.778 745.38 122.737 745.12 121.392C744.772 119.744 744.119 118.399 743.119 117.315C742.119 116.231 740.423 115.016 738.074 113.672C735.073 111.937 732.899 110.289 731.551 108.684C730.202 107.079 729.246 105.171 728.811 102.872C728.202 99.7922 728.506 97.2332 729.724 95.238C730.942 93.2428 733.029 91.9416 736.03 91.3344C738.987 90.7272 741.379 91.1609 743.206 92.5055C745.076 93.8935 746.294 96.1489 746.946 99.3151L747.294 100.92L741.466 102.091L741.075 100.096C740.814 98.7513 740.336 97.8404 739.683 97.32C739.031 96.7995 738.205 96.6694 737.204 96.8428C735.16 97.2332 734.377 98.7079 734.899 101.18C735.204 102.612 735.813 103.826 736.856 104.91C737.9 105.995 739.553 107.209 741.901 108.51C744.902 110.202 747.077 111.893 748.425 113.498C749.773 115.146 750.686 117.142 751.165 119.614C751.817 122.824 751.513 125.426 750.295 127.465C749.077 129.503 746.946 130.804 743.902 131.412C740.901 132.019 738.509 131.628 736.639 130.24H736.595Z" fill="white"/>
<path d="M754.383 87.9511L760.167 86.2595L771.474 114.799H771.605L765.777 84.6113L772.344 82.7029L783.825 111.199H783.956L777.998 81.0547L783.173 79.5366L790.566 118.833L783.086 121.045L772.779 96.1053H772.649L777.519 122.65L769.561 124.992L754.426 87.9945L754.383 87.9511Z" fill="white"/>
<path d="M788.871 77.3246L796.873 74.5054L816.356 109.811L810.442 111.893L806.702 104.823V104.91L800.048 107.296L801.57 115.016L796.09 116.968L788.827 77.3246H788.871ZM804.266 100.096L795.003 82.5295H794.916L798.96 102.004L804.266 100.096Z" fill="white"/>
<path d="M802.178 72.5969L808.05 70.2547L823.271 97.4499H823.358L815.791 67.2186L821.14 65.0933L830.23 104.303L822.488 107.339L802.178 72.5969Z" fill="white"/>
<path d="M823.445 64.096L839.189 57.4165L841.406 62.6647L831.447 66.8719L835.579 76.5442L843.494 73.2045L845.712 78.4527L837.797 81.7924L842.581 93.0262L852.54 88.8189L854.758 94.0671L839.015 100.747L823.402 64.1394L823.445 64.096Z" fill="white"/>
<path d="M857.454 67.8693L862.978 65.4404L865.413 70.9489L859.89 73.3778L857.454 67.8693Z" fill="white"/>
<path d="M884.897 78.6694C882.809 77.6718 881.113 75.72 879.852 72.7706L878.982 70.6887L884.418 68.3899L885.505 70.9056C886.506 73.2911 888.028 74.0285 889.985 73.2044C890.985 72.7706 891.594 72.2068 891.855 71.3827C892.116 70.602 891.985 69.561 891.42 68.2598C890.768 66.7417 889.854 65.5273 888.637 64.6598C887.462 63.7923 885.549 62.9248 882.983 62.1008C879.721 61.0164 877.242 59.802 875.59 58.5441C873.937 57.2429 872.632 55.5514 871.719 53.4261C870.501 50.52 870.284 47.961 871.067 45.7923C871.849 43.5803 873.676 41.8887 876.459 40.7176C879.243 39.5465 881.635 39.4598 883.722 40.4574C885.81 41.455 887.506 43.4068 888.724 46.3995L889.376 47.9176L883.94 50.2164L883.157 48.3514C882.635 47.0935 881.983 46.2694 881.243 45.9224C880.504 45.5755 879.678 45.5755 878.721 45.9658C876.807 46.7899 876.329 48.3514 877.329 50.6935C877.895 52.0381 878.764 53.1224 879.982 53.9465C881.2 54.814 883.07 55.6381 885.679 56.4622C888.985 57.5465 891.464 58.7176 893.073 60.0622C894.682 61.4068 896.03 63.1851 896.987 65.4839C898.248 68.4767 898.509 71.0791 897.683 73.3345C896.856 75.5465 895.073 77.2815 892.246 78.4959C889.463 79.667 886.984 79.7971 884.897 78.7995V78.6694Z" fill="white"/>
<path d="M904.684 70.3848C902.597 69.3438 900.944 67.3052 899.77 64.3125L888.897 35.9896L894.769 33.7342L905.815 62.4908C906.293 63.7486 906.902 64.5727 907.642 64.9631C908.381 65.3534 909.207 65.3534 910.164 64.9631C911.121 64.6161 911.73 64.0522 912.034 63.2715C912.339 62.4908 912.252 61.4932 911.73 60.2354L900.683 31.4787L906.337 29.3101L917.209 57.6329C918.384 60.6257 918.514 63.2281 917.644 65.3968C916.775 67.5655 914.904 69.2137 912.078 70.298C909.251 71.3823 906.772 71.4257 904.641 70.3848H904.684Z" fill="white"/>
<path d="M911.686 27.4452L920.558 24.6693C923.646 23.7151 926.125 23.7151 927.952 24.6693C929.822 25.6669 931.213 27.6187 932.127 30.6114L932.866 32.9536C934.127 36.9006 933.605 39.8066 931.3 41.6717V41.7584C932.909 41.7584 934.214 42.3223 935.258 43.45C936.302 44.5777 937.128 46.3126 937.824 48.5247L939.911 55.2042C940.259 56.2886 940.564 57.156 940.868 57.8066C941.173 58.4572 941.52 59.0645 942.042 59.6283L935.954 61.5367C935.562 60.9729 935.214 60.4524 934.953 59.9319C934.693 59.4114 934.388 58.4572 933.91 57.0259L931.735 50.0861C931.17 48.3512 930.518 47.2235 929.735 46.703C928.952 46.1825 927.865 46.1392 926.516 46.5729L924.429 47.2235L929.561 63.4886L923.559 65.3536L911.599 27.4018L911.686 27.4452ZM924.951 41.1512C926.125 40.7608 926.951 40.197 927.343 39.3729C927.734 38.5922 927.734 37.4645 927.256 35.9898L926.342 33.0837C925.908 31.6958 925.342 30.7849 924.69 30.3512C924.037 29.9175 923.124 29.8307 922.08 30.1343L919.384 31.0018L922.82 41.8452L924.994 41.1512H924.951Z" fill="white"/>
<path d="M935.214 20.3318L951.393 16.645L952.654 22.1968L942.608 24.4956L945.087 35.2956L952.958 33.5173L954.22 39.0691L946.348 40.8474L950.218 57.7631L944.086 59.151L935.214 20.3751V20.3318Z" fill="white"/>
<path d="M956.263 15.8209L973.225 13.6089L973.964 19.2474L963.222 20.6354L964.57 31.045L973.094 29.9173L973.833 35.5559L965.309 36.6836L966.918 48.7848L977.661 47.3968L978.4 53.0354L961.439 55.2474L956.263 15.8209Z" fill="white"/>
<path d="M978.922 13.1754L988.185 13.0019C991.404 12.9585 993.796 13.6525 995.274 15.1272C996.796 16.6019 997.579 18.9007 997.623 21.9802V24.4091C997.753 28.5296 996.405 31.1754 993.709 32.3031V32.4332C995.231 32.867 996.318 33.7778 996.97 35.1658C997.623 36.5537 997.971 38.4188 998.014 40.761L998.144 47.7441C998.144 48.8718 998.231 49.7826 998.318 50.4766C998.405 51.1706 998.623 51.8646 998.927 52.5585L992.534 52.6887C992.273 52.0381 992.143 51.4308 992.056 50.867C991.969 50.3031 991.925 49.2622 991.882 47.7875L991.751 40.5007C991.751 38.679 991.404 37.4212 990.795 36.7272C990.186 36.0332 989.186 35.6863 987.707 35.6863H985.532L985.837 52.7754L979.574 52.9055L978.835 13.132L978.922 13.1754ZM987.794 30.0477C989.055 30.0477 989.968 29.7007 990.577 29.0501C991.186 28.3995 991.491 27.3152 991.447 25.7971V22.7176C991.36 21.2863 991.099 20.2453 990.577 19.5947C990.055 18.9441 989.229 18.6405 988.142 18.6838H985.315L985.532 30.0911H987.794V30.0477Z" fill="white"/>
<path d="M1002.06 50.8669C1000.67 49.0019 1000.1 46.4862 1000.36 43.2766L1000.54 41.0212L1006.45 41.5416L1006.23 44.2742C1006.02 46.8332 1006.97 48.2212 1009.15 48.3946C1010.19 48.4814 1011.06 48.2212 1011.63 47.6573C1012.24 47.0934 1012.58 46.0959 1012.71 44.7079C1012.84 43.0597 1012.58 41.5416 1011.97 40.2404C1011.32 38.8959 1010.06 37.291 1008.15 35.3392C1005.76 32.8669 1004.15 30.6549 1003.28 28.7465C1002.41 26.838 1002.06 24.7127 1002.28 22.4139C1002.54 19.291 1003.54 16.9055 1005.28 15.344C1007.02 13.7826 1009.41 13.0886 1012.41 13.3489C1015.41 13.6091 1017.58 14.6501 1018.98 16.5151C1020.37 18.3802 1020.93 20.8959 1020.63 24.1055L1020.5 25.7537L1014.58 25.2332L1014.76 23.1946C1014.89 21.8501 1014.71 20.8091 1014.24 20.1585C1013.76 19.5079 1013.02 19.1175 1011.97 19.0308C1009.89 18.8573 1008.76 20.0284 1008.54 22.544C1008.41 23.9754 1008.67 25.3633 1009.36 26.6645C1010.02 27.9657 1011.32 29.6139 1013.19 31.5657C1015.63 34.038 1017.24 36.2501 1018.06 38.2019C1018.89 40.1537 1019.19 42.3657 1018.98 44.838C1018.72 48.091 1017.67 50.52 1015.93 52.1248C1014.19 53.7296 1011.76 54.3802 1008.71 54.1199C1005.67 53.8597 1003.45 52.8187 1002.06 50.9537V50.8669Z" fill="white"/>
<path d="M1021.45 52.7755C1020.24 50.8237 1019.89 48.2213 1020.45 45.055L1020.85 42.7996L1026.67 43.8406L1026.2 46.5297C1025.76 49.0454 1026.59 50.5201 1028.72 50.9104C1029.76 51.0839 1030.63 50.9104 1031.28 50.4333C1031.94 49.9562 1032.37 48.9586 1032.63 47.5707C1032.94 45.9225 1032.81 44.4044 1032.28 43.0165C1031.76 41.6285 1030.63 39.8936 1028.94 37.7683C1026.8 35.0791 1025.37 32.737 1024.72 30.7418C1024.02 28.7466 1023.89 26.6213 1024.28 24.3659C1024.85 21.2863 1026.06 19.0309 1027.94 17.5996C1029.81 16.1683 1032.24 15.7345 1035.24 16.255C1038.2 16.7755 1040.29 18.0333 1041.5 19.9851C1042.72 21.9369 1043.03 24.5394 1042.46 27.7056L1042.16 29.3104L1036.33 28.2695L1036.68 26.2743C1036.94 24.9297 1036.85 23.8888 1036.42 23.1948C1035.98 22.5008 1035.28 22.0237 1034.28 21.8502C1032.24 21.5032 1030.98 22.5442 1030.54 25.0598C1030.28 26.4912 1030.46 27.8791 1030.98 29.2237C1031.54 30.5683 1032.63 32.3466 1034.37 34.4285C1036.55 37.1177 1037.98 39.4598 1038.59 41.455C1039.24 43.4502 1039.33 45.7056 1038.89 48.1345C1038.33 51.3442 1037.07 53.643 1035.2 55.0743C1033.33 56.5056 1030.85 56.9394 1027.8 56.4189C1024.8 55.8984 1022.72 54.6406 1021.45 52.6454V52.7755Z" fill="white"/>
<path d="M1057.81 21.5464L1063.55 23.3681L1056.94 53.3392H1057.07L1069.16 25.1464L1075.69 27.2283L1069.25 57.2428H1069.34L1081.3 28.9633L1086.47 30.6114L1070.55 67.3054L1063.12 64.9633L1068.55 38.5488H1068.47L1057.59 63.2283L1049.68 60.7127L1057.9 21.5898L1057.81 21.5464Z" fill="white"/>
<path d="M1094.34 33.9077L1102.22 37.0306L1093.52 76.3704L1087.69 74.0716L1089.56 66.3077V66.3945L1082.91 63.7921L1078.95 70.6017L1073.56 68.4764L1094.3 33.9077H1094.34ZM1090.86 61.1463L1095.56 41.8451H1095.47L1085.65 59.0643L1090.91 61.1463H1090.86Z" fill="white"/>
<path d="M1108.83 39.6768L1114.61 42.2358L1105.87 72.1201H1105.96L1122.18 45.5756L1127.44 47.8743L1105.83 81.8358L1098.21 78.496L1108.78 39.6768H1108.83Z" fill="white"/>
<path d="M1130.53 49.3486L1146.01 56.5486L1143.62 61.7101L1133.79 57.1559L1129.35 66.698L1137.14 70.3414L1134.75 75.5028L1126.96 71.8595L1121.79 82.9197L1131.61 87.4739L1129.22 92.6354L1113.74 85.4354L1130.61 49.392L1130.53 49.3486Z" fill="white"/>
<path d="M1150.36 77.2378L1155.84 79.7968L1153.27 85.2619L1147.79 82.7029L1150.36 77.2378Z" fill="white"/>
<path d="M1161.1 105.214C1160.36 103.002 1160.62 100.443 1161.93 97.4934L1162.84 95.4114L1168.28 97.7536L1167.19 100.269C1166.15 102.611 1166.62 104.26 1168.62 105.084C1169.58 105.517 1170.45 105.517 1171.23 105.17C1171.97 104.823 1172.63 103.999 1173.19 102.698C1173.84 101.18 1174.1 99.662 1173.89 98.1873C1173.71 96.7126 1173.02 94.7608 1171.84 92.3319C1170.36 89.209 1169.54 86.6066 1169.32 84.5247C1169.1 82.4428 1169.45 80.3175 1170.41 78.1922C1171.67 75.3295 1173.37 73.3777 1175.5 72.4669C1177.63 71.556 1180.11 71.6428 1182.89 72.8572C1185.63 74.0283 1187.37 75.7632 1188.11 77.9319C1188.85 80.1006 1188.54 82.703 1187.28 85.6524L1186.63 87.1705L1181.19 84.8283L1182.02 82.9632C1182.54 81.7054 1182.72 80.7078 1182.5 79.9271C1182.28 79.1464 1181.67 78.5391 1180.71 78.1488C1178.8 77.3247 1177.32 78.062 1176.32 80.4042C1175.76 81.7054 1175.58 83.0934 1175.8 84.5681C1176.02 86.0428 1176.71 87.9946 1177.89 90.4235C1179.37 93.5464 1180.24 96.1488 1180.37 98.2741C1180.54 100.356 1180.11 102.568 1179.11 104.867C1177.8 107.86 1176.06 109.811 1173.89 110.766C1171.71 111.72 1169.19 111.59 1166.41 110.375C1163.62 109.161 1161.84 107.469 1161.1 105.257V105.214Z" fill="white"/>
<path d="M1182.28 114.192C1181.41 112.023 1181.5 109.421 1182.63 106.428L1193.28 78.0186L1199.16 80.1872L1188.33 109.031C1187.85 110.288 1187.76 111.329 1188.07 112.067C1188.37 112.804 1188.98 113.368 1189.98 113.758C1190.98 114.149 1191.81 114.105 1192.5 113.758C1193.2 113.411 1193.85 112.544 1194.33 111.286L1205.16 82.4427L1210.81 84.568L1200.16 112.978C1199.02 116.014 1197.42 118.009 1195.33 119.093C1193.24 120.134 1190.76 120.134 1187.89 119.093C1185.06 118.009 1183.19 116.404 1182.28 114.235V114.192Z" fill="white"/>
<path d="M1213.38 85.4355L1222.34 87.9512C1225.42 88.8187 1227.51 90.1633 1228.51 92.0283C1229.51 93.85 1229.6 96.2789 1228.77 99.2717L1228.12 101.614C1226.99 105.604 1224.99 107.73 1222.03 108.033V108.163C1223.34 109.031 1224.12 110.202 1224.34 111.72C1224.55 113.238 1224.34 115.146 1223.73 117.402L1221.81 124.125C1221.51 125.209 1221.29 126.12 1221.16 126.814C1221.03 127.508 1221.03 128.245 1221.16 128.983L1215.03 127.248C1214.99 126.554 1215.03 125.946 1215.07 125.383C1215.16 124.819 1215.38 123.821 1215.81 122.39L1217.77 115.407C1218.25 113.672 1218.33 112.37 1217.94 111.503C1217.55 110.636 1216.68 110.028 1215.29 109.638L1213.2 109.074L1208.59 125.469L1202.55 123.778L1213.33 85.4789L1213.38 85.4355ZM1216.99 104.13C1218.2 104.477 1219.2 104.433 1219.94 103.956C1220.73 103.522 1221.34 102.568 1221.73 101.093L1222.55 98.144C1222.94 96.756 1222.99 95.6717 1222.64 94.9343C1222.34 94.197 1221.64 93.6331 1220.55 93.3295L1217.81 92.5488L1214.72 103.479L1216.9 104.086L1216.99 104.13Z" fill="white"/>
<path d="M1233.56 90.9004L1249.91 93.6329L1248.95 99.2281L1238.77 97.5365L1236.95 108.467L1244.91 109.811L1243.95 115.406L1235.99 114.062L1233.12 131.151L1226.94 130.11L1233.51 90.9004H1233.56Z" fill="white"/>
<path d="M1250.43 93.6333L1267.52 94.3273L1267.3 100.009L1256.47 99.5755L1256.04 110.072L1264.65 110.419L1264.43 116.101L1255.82 115.754L1255.34 127.942L1266.17 128.375L1265.96 134.057L1248.86 133.363L1250.47 93.6333H1250.43Z" fill="white"/>
<path d="M1269.61 94.0671L1278.87 93.7635C1282.09 93.6768 1284.48 94.3274 1286 95.7587C1287.53 97.19 1288.35 99.4888 1288.44 102.568L1288.53 104.997C1288.66 109.118 1287.4 111.763 1284.7 112.978V113.108C1286.22 113.498 1287.35 114.409 1288.01 115.797C1288.66 117.185 1289.05 119.05 1289.14 121.392L1289.35 128.376C1289.35 129.503 1289.44 130.414 1289.57 131.108C1289.66 131.802 1289.88 132.496 1290.22 133.147L1283.83 133.363C1283.57 132.713 1283.4 132.106 1283.31 131.542C1283.22 130.978 1283.13 129.937 1283.09 128.462L1282.83 121.176C1282.79 119.354 1282.44 118.096 1281.83 117.402C1281.22 116.708 1280.18 116.361 1278.74 116.404L1276.57 116.491L1277.13 133.537L1270.87 133.754L1269.52 94.0237L1269.61 94.0671ZM1278.74 110.809C1280 110.809 1280.92 110.419 1281.53 109.768C1282.13 109.118 1282.39 108.033 1282.35 106.515L1282.26 103.436C1282.22 102.004 1281.92 100.963 1281.39 100.356C1280.87 99.749 1280.05 99.4454 1278.96 99.4888L1276.13 99.5755L1276.52 110.939L1278.79 110.853L1278.74 110.809Z" fill="white"/>
<path d="M1295.83 130.804C1294.14 129.199 1293.18 126.814 1292.96 123.604L1292.79 121.349L1298.7 120.915L1298.92 123.648C1299.1 126.207 1300.31 127.421 1302.44 127.248C1303.49 127.161 1304.27 126.814 1304.79 126.12C1305.31 125.469 1305.49 124.428 1305.4 123.04C1305.27 121.392 1304.79 119.961 1303.92 118.746C1303.05 117.532 1301.57 116.144 1299.36 114.496C1296.62 112.414 1294.66 110.505 1293.48 108.77C1292.31 107.035 1291.66 104.997 1291.48 102.698C1291.27 99.5752 1291.88 97.0596 1293.31 95.2379C1294.79 93.4162 1297.01 92.3752 1300.05 92.1584C1303.05 91.9415 1305.36 92.6355 1307.05 94.2403C1308.71 95.8451 1309.66 98.2306 1309.92 101.44L1310.05 103.088L1304.14 103.522L1303.97 101.484C1303.88 100.139 1303.53 99.1415 1302.97 98.5776C1302.4 98.0138 1301.57 97.7535 1300.57 97.8403C1298.49 98.0138 1297.53 99.3584 1297.75 101.874C1297.88 103.305 1298.36 104.607 1299.23 105.821C1300.1 106.992 1301.62 108.423 1303.79 110.028C1306.58 112.11 1308.53 114.019 1309.66 115.797C1310.79 117.575 1311.45 119.701 1311.62 122.216C1311.88 125.469 1311.27 128.028 1309.79 129.893C1308.32 131.758 1306.05 132.799 1302.97 133.016C1299.92 133.233 1297.57 132.539 1295.88 130.978L1295.83 130.804Z" fill="white"/>
<path d="M1317.75 128.982C1316.01 127.464 1314.93 125.079 1314.53 121.913L1314.27 119.657L1320.14 118.963L1320.49 121.652C1320.8 124.211 1322.01 125.339 1324.19 125.079C1325.23 124.949 1326.02 124.558 1326.49 123.864C1326.97 123.17 1327.1 122.129 1326.93 120.741C1326.71 119.093 1326.19 117.662 1325.28 116.491C1324.36 115.32 1322.8 113.975 1320.54 112.457C1317.71 110.505 1315.66 108.684 1314.4 106.992C1313.14 105.3 1312.4 103.305 1312.14 101.007C1311.75 97.8836 1312.27 95.3679 1313.62 93.4595C1314.97 91.5511 1317.19 90.4234 1320.19 90.0764C1323.19 89.7294 1325.54 90.2932 1327.28 91.8113C1329.02 93.3294 1330.06 95.7149 1330.45 98.8812L1330.67 100.529L1324.8 101.223L1324.54 99.1848C1324.36 97.8402 1323.97 96.886 1323.41 96.3222C1322.84 95.7583 1321.97 95.5414 1320.97 95.6716C1318.88 95.9318 1318.01 97.3198 1318.32 99.8354C1318.49 101.267 1319.06 102.568 1319.97 103.696C1320.88 104.823 1322.49 106.168 1324.71 107.686C1327.58 109.638 1329.63 111.46 1330.84 113.194C1332.06 114.929 1332.8 117.011 1333.1 119.484C1333.5 122.737 1333.02 125.296 1331.63 127.204C1330.23 129.113 1328.02 130.284 1324.97 130.631C1321.97 130.978 1319.58 130.414 1317.8 128.896L1317.75 128.982Z" fill="white"/>
<path d="M1338.89 88.2547L1344.8 86.9969L1353.85 116.317H1353.98L1350.54 85.7825L1357.24 84.3945L1366.46 113.715H1366.59L1362.98 83.2234L1368.29 82.0957L1372.55 121.826L1364.9 123.431L1356.55 97.7535H1356.41L1359.15 124.602L1351.02 126.293L1338.84 88.2114L1338.89 88.2547Z" fill="white"/>
<path d="M1373.72 80.3173L1381.86 77.9751L1399.21 114.365L1393.21 116.1L1389.9 108.814V108.944L1383.12 110.939L1384.2 118.746L1378.64 120.351L1373.77 80.3606L1373.72 80.3173ZM1387.73 103.956L1379.55 85.8691H1379.46L1382.33 105.561L1387.77 103.999L1387.73 103.956Z" fill="white"/>
<path d="M1386.64 76.5873L1392.6 74.462L1406.95 102.091H1407.04L1400.38 71.6427L1405.78 69.6909L1413.65 109.161L1405.82 111.98L1386.6 76.6307L1386.64 76.5873Z" fill="white"/>
<path d="M1407.34 68.997L1422.95 62.1006L1425.26 67.3054L1415.34 71.6861L1419.61 81.315L1427.48 77.8452L1429.78 83.05L1421.91 86.5199L1426.87 97.7102L1436.78 93.3295L1439.09 98.5343L1423.48 105.431L1407.34 69.0403V68.997Z" fill="white"/>
<path d="M1440.83 71.8596L1446.13 68.9536L1449.05 74.2452L1443.74 77.1512L1440.83 71.8596Z" fill="white"/>
</svg>

