<svg xmlns="http://www.w3.org/2000/svg" width="268" height="68" fill="none" class="clamp-sponsor md:h-14"><path fill="#EFF4FF" d="M0 51.4499c0 .5759.5826.9598 1.1652.9598h9.7102c.5826 0 1.1652-.3839 1.3594-1.1518l6.0203-50.106v-.192c0-.576-.3884-.9599-.7768-.9599H6.9913c-.5826 0-.7768.384-.7768.9599L0 51.4499ZM57.4841 22.4618c0 1.5358-.1942 3.0716-.3884 4.6075l-3.1072 24.1891c0 .5759-.5826 1.1518-1.1652 1.1518h-8.9334c-.5826 0-1.1652-.3839-1.1652-.9599v-.1919l2.9131-23.4212c.1942-.9599.1942-2.1118.1942-2.8797 0-1.1519-.1942-2.1117-.7769-2.6877-.7768-.7679-1.942-1.1518-3.6898-1.1518-3.4957 0-7.5739.9598-7.5739.9598l-3.6899 29.3725c0 .576-.5826 1.1519-1.3594 1.1519h-8.9333c-.5826 0-1.1652-.384-1.1652-.9599v-.192l3.884-31.4842c.971-2.8797 2.7189-3.6476 7.1855-4.6074 3.8841-.768 9.7102-1.7278 14.1768-1.7278 5.2435 0 9.1276.7679 11.458 2.8796 1.1652 1.3439 2.1362 3.2636 2.1362 5.9513ZM149.73.9593c0-.576-.194-.7679-.777-.7679h-10.487c-.582 0-.971.384-.971.9599l-6.408 52.6017c-.971 5.3754-3.302 5.3754-6.992 5.5673-1.553 0-2.913 0-3.884.192-1.165 0-1.553.384-1.748 1.5358l-.582 4.2235v.384c0 .9599.582 1.1519 1.359 1.1519 1.36.1919 1.942.3839 6.992.3839 8.545 0 15.536-2.4957 16.895-13.8223L149.73.9593Z"/><path fill="#EFF4FF" d="M124.483 42.0427c-2.33 6.5272-7.379 10.9426-19.031 10.9426-6.6033 0-10.6816-1.3438-13.2062-3.8395-2.5247-2.4957-3.3015-6.1433-3.3015-10.1748 0-4.6074.9711-11.5186 2.7189-15.5501 2.5246-6.1433 7.5739-10.1748 18.6438-10.1748 6.603 0 10.875 1.5358 13.205 3.8395 2.525 2.4957 3.302 5.7593 3.302 9.9828 0 4.6075-.777 10.9427-2.331 14.9743ZM114.191 22.269c-.971-.9599-2.331-1.5358-4.855-1.5358-5.244 0-6.992 2.3037-7.963 7.4871-.582 3.4556-1.165 7.4871-1.165 11.1347 0 2.3037.389 3.8395 1.36 4.7994.971.9599 2.33 1.3438 4.66 1.3438 5.438 0 6.992-2.4957 7.963-7.871.582-3.4556 1.165-7.1032 1.165-10.5588 0-2.3037-.194-3.8395-1.165-4.7994ZM187.213 42.0427c-2.33 6.5272-7.38 10.9426-19.032 10.9426-6.603 0-10.681-1.3438-13.206-3.8395-2.524-2.4957-3.301-6.1433-3.301-10.1748 0-4.6074.971-11.5186 2.719-15.5501 2.524-6.1433 7.574-10.1748 18.837-10.1748 6.603 0 10.876 1.5358 13.206 3.8395 2.525 2.4957 3.302 5.7593 3.302 9.9828-.195 4.6075-.971 10.9427-2.525 14.9743ZM176.92 22.269c-.971-.9599-2.33-1.5358-4.855-1.5358-5.243 0-6.991 2.3037-7.962 7.4871-.583 3.4556-1.165 7.4871-1.165 11.1347 0 2.3037.194 3.8395 1.359 4.7994.971.9599 2.33 1.3438 4.661 1.3438 5.438 0 6.991-2.4957 7.962-7.871.583-3.4556 1.165-7.1032 1.165-10.5588.195-2.3037-.194-3.8395-1.165-4.7994ZM229.936 40.8911c-2.524 8.0631-7.574 12.0946-19.226 12.0946-5.632 0-10.681-.7679-13.4-1.7278-2.913-.9599-3.496-2.1118-3.496-4.0315 0-.9599.195-2.1118.389-3.4556l5.049-42.043c0-.9599.583-1.5358 1.554-1.7278h8.933c.583 0 1.165.384 1.165.9599v.192l-1.165 9.2149-.583 4.2235s4.467-1.3439 9.128-1.3439c4.855 0 8.351.9599 10.487 3.0717 2.136 2.1117 3.301 5.3753 3.301 10.3667 0 4.6075-.776 9.7908-2.136 14.2063Zm-10.293-18.4298c-.971-1.1518-2.524-1.5358-4.855-1.5358-2.913 0-6.797.9599-6.797.9599l-2.913 23.0372s2.525.576 5.632.576c5.244 0 7.38-1.5358 8.739-9.023.583-3.0716.971-6.3352.971-9.5988.194-2.1118-.194-3.6476-.777-4.4155ZM266.446 21.1174c-.194.5759-.583.7679-1.165.7679h-.389c-.776 0-4.855-.9599-8.739-.9599-1.748 0-4.078.192-5.437 1.3439-.971.7679-1.36 1.9197-1.36 3.0716 0 3.0716 3.302 3.0716 6.797 3.8395 2.913.384 5.826 1.1519 7.768 3.0717 1.554 1.3438 2.331 3.4556 2.331 6.7192 0 3.4555-1.165 7.1031-3.69 9.7908-3.301 3.2636-8.351 4.6074-13.983 4.6074-6.214 0-12.04-1.5358-13.205-2.1117-.195-.192-.583-.192-.583-.7679v-.5759l1.554-4.6075c.194-.5759.582-.9599.971-.9599h.388c.971.192 6.02 1.7278 10.487 1.7278 2.136 0 3.884-.3839 5.243-1.5358 1.166-.9599 1.554-2.1117 1.554-3.2636 0-1.5358-.582-2.3037-1.554-2.8797-.971-.5759-2.33-.7679-4.078-.9599-2.719-.5759-6.408-.9598-8.739-3.2636-1.359-1.5358-2.33-3.4556-2.33-6.3352 0-3.2636.776-6.5272 2.913-9.0229 3.69-4.4155 9.904-4.9914 14.565-4.9914 5.826 0 10.293 1.1518 11.652 1.7278.583.1919.583.5759.583.9598v.384l-1.554 4.2235ZM90.1102 1.3433C88.945.9593 85.6435.1914 80.4001.1914c-8.545 0-13.0116 3.8396-13.9827 11.5186l-.3884 4.6075-.971 7.871-3.4956 25.341v.5759l-.1942 1.3439c0 .5759.5826.7679 1.1652.7679h8.5449c.5826 0 1.3594-.192 1.5536-.9599v-.5759l3.8841-26.4929h8.9333c.5826 0 1.1652-.3839 1.1652-1.1518l.7769-5.7593c0-.576-.3885-.9599-.9711-.9599h-9.3217l.5826-4.6075c.3884-3.0716 1.7478-3.8395 5.2435-3.8395 1.942 0 4.2725.384 5.0493.576h.3884c.5826 0 .7768-.384.971-.96l1.3594-4.9914v-.384c0-.3839-.1942-.7678-.5826-.7678Z"/></svg>