<svg width="942" height="83" viewBox="0 0 942 83" fill="none" xmlns="http://www.w3.org/2000/svg">
<g clip-path="url(#clip0_1_69)">
<path d="M-8.99999 31.5143C-8.91436 30 -8.14369 28.4857 -6.65945 26.9715L-5.60336 25.9143L-2.83467 28.6572L-4.09057 29.9429C-5.28938 31.1429 -5.37501 32.2572 -4.376 33.2572C-3.89077 33.7429 -3.34845 33.9715 -2.80613 33.9429C-2.26381 33.9143 -1.6644 33.5715 -1.00791 32.9143C-0.237249 32.1429 0.276528 31.2857 0.504873 30.3429C0.733218 29.4 0.790304 28.0286 0.676132 26.2572C0.533416 24 0.647588 22.2 1.01865 20.8572C1.38971 19.5143 2.13183 18.3143 3.18793 17.2286C4.64363 15.7715 6.15641 15 7.69774 14.9143C9.23907 14.8572 10.7233 15.5143 12.1219 16.9143C13.5205 18.3143 14.177 19.7715 14.0914 21.2857C14.0058 22.8 13.2066 24.3143 11.7223 25.8286L10.9517 26.6L8.18297 23.8572L9.1249 22.9143C9.75285 22.2857 10.0954 21.6857 10.1239 21.1429C10.1524 20.6 9.95265 20.0857 9.46741 19.6286C8.49695 18.6572 7.41231 18.7715 6.24204 19.9429C5.58555 20.6286 5.12886 21.4286 4.90051 22.3715C4.67217 23.3143 4.64363 24.6857 4.7578 26.4572C4.92906 28.7429 4.81488 30.5429 4.41528 31.8572C4.01568 33.1715 3.24501 34.4286 2.07475 35.6C0.56196 37.1143 -0.97937 37.9143 -2.5207 37.9715C-4.09057 38.0286 -5.57481 37.3715 -7.00197 35.9429C-8.40058 34.5143 -9.05707 33.0286 -8.99999 31.5143Z" fill="white"/>
<path d="M2.24599 42.5144C2.16036 40.9715 2.75977 39.3715 4.1013 37.7429L16.6888 22.2286L19.8856 24.8286L7.12687 40.5715C6.55601 41.2572 6.29912 41.8858 6.32766 42.4286C6.32766 42.9715 6.64163 43.4572 7.15541 43.8572C7.66919 44.2858 8.21151 44.4572 8.72528 44.3715C9.2676 44.2858 9.80992 43.8858 10.3808 43.2001L23.1396 27.4572L26.2222 29.9715L13.6347 45.4858C12.2932 47.1429 10.866 48.0572 9.35323 48.2858C7.84045 48.5143 6.29912 48.0001 4.72925 46.7429C3.18792 45.4858 2.36017 44.0858 2.24599 42.5429V42.5144Z" fill="white"/>
<path d="M26.5077 30.1429L31.9023 33.0001C33.7862 34.0001 34.8993 35.1429 35.2989 36.4858C35.6985 37.8001 35.4131 39.3715 34.4712 41.2001L33.7291 42.6287C32.4732 45.0287 30.8748 46.1429 28.9338 45.9429V46.0001C29.6474 46.7429 29.9899 47.6001 29.9043 48.6001C29.8187 49.6001 29.4476 50.8001 28.734 52.1715L26.5933 56.2287C26.2508 56.8858 25.9939 57.4287 25.8226 57.8572C25.6514 58.2858 25.5372 58.7429 25.5086 59.2287L21.798 57.2572C21.8551 56.8001 21.9693 56.4001 22.0835 56.0572C22.2262 55.7144 22.5116 55.0858 22.9683 54.2287L25.1947 50.0001C25.7655 48.9429 25.9653 48.1144 25.8512 47.5144C25.737 46.9144 25.2518 46.4001 24.424 45.9429L23.1681 45.2858L17.9162 55.2287L14.2912 53.3144L26.5077 30.1429ZM26.2222 42.6858C26.9358 43.0572 27.5923 43.1715 28.1632 43.0001C28.734 42.8287 29.2478 42.2858 29.7045 41.4001L30.6464 39.6001C31.0746 38.7715 31.2458 38.0858 31.1602 37.5429C31.046 37.0001 30.7035 36.5715 30.047 36.2287L28.3915 35.3429L24.9092 41.9715L26.2222 42.6572V42.6858Z" fill="white"/>
<path d="M38.1247 36.0573L48.4288 39.5715L47.23 43.1144L40.8363 40.943L38.4958 47.8573L43.5194 49.5715L42.3205 53.1144L37.297 51.4001L33.6149 62.2001L29.733 60.8858L38.1533 36.0858L38.1247 36.0573Z" fill="white"/>
<path d="M48.9711 39.6287L59.9317 42.0572L59.1325 45.7144L52.1965 44.1715L50.7122 50.9429L56.2211 52.1715L55.4218 55.8287L49.913 54.6001L48.1719 62.4572L55.1079 64.0001L54.3087 67.6572L43.3481 65.2287L48.9996 39.6572L48.9711 39.6287Z" fill="white"/>
<path d="M62.3578 42.0858L68.2948 43.4287C70.3499 43.8858 71.7485 44.7144 72.4906 45.8858C73.2327 47.0572 73.3469 48.6572 72.9188 50.6572L72.5763 52.2287C71.9769 54.8858 70.721 56.3715 68.8086 56.6572V56.743C69.6934 57.2572 70.2357 58.0001 70.4355 59.0001C70.6353 60.0001 70.5497 61.2287 70.2072 62.743L69.1796 67.2287C69.0084 67.9715 68.8942 68.543 68.8371 69.0287C68.78 69.4858 68.8086 69.9715 68.8942 70.4572L64.8125 69.543C64.7554 69.0858 64.7554 68.6858 64.8125 68.3144C64.8411 67.943 64.9838 67.2858 65.1836 66.3144L66.2397 61.6287C66.4966 60.4572 66.4966 59.6001 66.2397 59.0572C65.9543 58.5144 65.3834 58.143 64.4415 57.9144L63.0429 57.6001L60.5596 68.543L56.535 67.6287L62.3293 42.0858H62.3578ZM65.3548 54.2572C66.1541 54.4287 66.8105 54.3715 67.2958 54.0572C67.781 53.743 68.1521 53.0858 68.3804 52.1144L68.8371 50.143C69.0369 49.2287 69.0369 48.5144 68.8086 48.0287C68.5802 47.543 68.095 47.2287 67.41 47.0572L65.5832 46.6287L63.9277 53.9144L65.3834 54.2572H65.3548Z" fill="white"/>
<path d="M73.9463 69.8001C73.0329 68.5715 72.6619 66.9144 72.8617 64.8001L73.0044 63.3144L76.8863 63.6572L76.715 65.4572C76.5723 67.1429 77.2002 68.0572 78.5989 68.2001C79.2839 68.2572 79.8548 68.1144 80.2258 67.7429C80.5969 67.3715 80.8538 66.7144 80.9394 65.8001C81.0536 64.7144 80.8823 63.7144 80.4542 62.8287C80.026 61.9429 79.1983 60.8572 77.9709 59.5715C76.4296 57.9144 75.3735 56.4572 74.8026 55.2001C74.2318 53.9429 74.032 52.543 74.1747 51.0287C74.3745 48.9715 75.031 47.4287 76.1727 46.3715C77.3144 45.3429 78.8843 44.9144 80.8823 45.0858C82.8518 45.2572 84.2789 45.9715 85.1638 47.2001C86.0772 48.4287 86.4197 50.0858 86.2199 52.2001L86.1343 53.2858L82.2524 52.943L82.3665 51.6001C82.4522 50.7144 82.338 50.0287 82.024 49.6001C81.7101 49.1715 81.2248 48.9144 80.5398 48.8572C79.1697 48.743 78.4276 49.5144 78.2563 51.1715C78.1707 52.1144 78.342 53.0287 78.7701 53.8858C79.1983 54.743 80.026 55.8287 81.2819 57.1144C82.8518 58.7715 83.9079 60.2287 84.4502 61.5144C84.9925 62.8001 85.1638 64.2572 85.0211 65.8858C84.8213 68.0287 84.1362 69.6287 82.9945 70.6572C81.8242 71.7144 80.2544 72.143 78.2278 71.943C76.2298 71.7715 74.8026 71.0572 73.8892 69.8287L73.9463 69.8001Z" fill="white"/>
<path d="M89.5594 70.7715C88.4748 69.6857 87.8754 68.0857 87.7898 65.9715L87.7041 64.4857L91.586 64.2857L91.6716 66.0857C91.7572 67.7715 92.4994 68.6 93.9265 68.5143C94.6116 68.4857 95.1539 68.2572 95.4964 67.8286C95.8389 67.4 95.9816 66.7143 95.9245 65.8C95.8675 64.7143 95.582 63.7429 95.0397 62.9429C94.4974 62.1429 93.5269 61.1715 92.1283 60.0857C90.3586 58.6857 89.1027 57.3715 88.3892 56.2C87.647 55.0286 87.2474 53.6857 87.1618 52.1715C87.0476 50.1143 87.5043 48.4857 88.4748 47.2857C89.4453 46.0857 90.958 45.4572 92.9561 45.3429C94.9255 45.2572 96.4383 45.7429 97.4944 46.8286C98.5505 47.9143 99.1499 49.5143 99.2641 51.6286L99.3212 52.7143L95.4393 52.9143L95.3822 51.5715C95.3251 50.6857 95.1253 50.0286 94.7543 49.6286C94.3832 49.2286 93.8694 49.0572 93.1844 49.0857C91.8143 49.1429 91.1864 50.0286 91.2435 51.6857C91.3006 52.6286 91.586 53.5143 92.1568 54.3143C92.7277 55.1143 93.6982 56.0572 95.0968 57.1715C96.895 58.5715 98.1509 59.8857 98.8359 61.0572C99.5495 62.2572 99.9491 63.6572 100.035 65.3143C100.149 67.4572 99.6922 69.1429 98.6932 70.3429C97.6942 71.5429 96.1814 72.2 94.1549 72.2857C92.1568 72.4 90.6155 71.8857 89.5594 70.8V70.7715Z" fill="white"/>
<path d="M103.574 44.9429L107.399 43.8858L114.506 62.8286H114.592L111.138 42.8858L115.477 41.6858L122.669 60.6001H122.755L119.187 40.6858L122.612 39.7429L126.979 65.7144L122.042 67.0858L115.562 50.5429H115.477L118.359 68.0858L113.108 69.5429L103.603 44.9715L103.574 44.9429Z" fill="white"/>
<path d="M125.609 38.2286L130.804 36.2001L144.277 59.0572L140.452 60.5429L137.854 55.9715V56.0286L133.516 57.7429L134.686 62.8001L131.118 64.2001L125.581 38.2286H125.609ZM136.142 52.9144L129.748 41.5144H129.691L132.717 54.2572L136.17 52.9144H136.142Z" fill="white"/>
<path d="M134.201 34.8571L137.997 33.2L148.558 50.7714H148.615L142.992 31.0286L146.446 29.5143L153.268 55.1143L148.273 57.2857L134.201 34.8571Z" fill="white"/>
<path d="M148.187 28.7144L158.463 24.2001L159.975 27.6286L153.467 30.4858L156.265 36.8286L161.431 34.5429L162.944 37.9715L157.778 40.2572L161.003 47.6286L167.511 44.7715L169.023 48.2001L158.748 52.7144L148.216 28.7429L148.187 28.7144Z" fill="white"/>
<path d="M170.708 31.1144L174.39 29.6287L175.874 33.3144L172.192 34.8001L170.708 31.1144Z" fill="white"/>
<path d="M188.033 39.1714C186.72 38.4 185.721 37.0286 185.065 35L184.608 33.5714L188.29 32.3714L188.861 34.0857C189.375 35.6857 190.317 36.2857 191.687 35.8286C192.343 35.6 192.8 35.2572 193 34.7429C193.228 34.2286 193.171 33.5429 192.886 32.6572C192.543 31.6 192.001 30.7714 191.287 30.1429C190.545 29.5143 189.375 28.8286 187.719 28.1429C185.636 27.2572 184.094 26.3429 183.095 25.4C182.068 24.4572 181.326 23.2572 180.869 21.8286C180.212 19.8572 180.212 18.1714 180.869 16.7714C181.525 15.3714 182.781 14.3429 184.665 13.7429C186.549 13.1429 188.119 13.2 189.432 13.9714C190.745 14.7429 191.715 16.1143 192.4 18.1429L192.743 19.1714L189.061 20.3714L188.633 19.0857C188.347 18.2286 187.976 17.6572 187.519 17.3714C187.063 17.0857 186.52 17.0572 185.864 17.2572C184.551 17.6857 184.18 18.6857 184.694 20.2857C184.979 21.2 185.493 21.9429 186.235 22.5714C186.977 23.2 188.176 23.8572 189.803 24.5429C191.915 25.4286 193.456 26.3429 194.455 27.3143C195.454 28.2857 196.197 29.5429 196.71 31.1143C197.367 33.1429 197.395 34.8857 196.71 36.3143C196.054 37.7429 194.769 38.7714 192.857 39.4C190.973 40.0286 189.346 39.9429 188.033 39.2V39.1714Z" fill="white"/>
<path d="M201.02 35.0857C199.736 34.2286 198.823 32.7715 198.309 30.7143L193.485 11.3143L197.481 10.3143L202.362 30C202.59 30.8572 202.904 31.4572 203.361 31.7715C203.818 32.0572 204.36 32.1429 205.016 31.9715C205.673 31.8 206.13 31.4857 206.386 31.0286C206.643 30.5429 206.672 29.8857 206.444 29L201.563 9.31432L205.416 8.37146L210.24 27.7715C210.754 29.8286 210.639 31.5429 209.897 32.8857C209.155 34.2286 207.814 35.1715 205.873 35.6286C203.932 36.0857 202.333 35.9143 201.049 35.0857H201.02Z" fill="white"/>
<path d="M209.355 7.54295L215.378 6.57152C217.461 6.22866 219.06 6.4858 220.201 7.2858C221.314 8.11437 222.028 9.51437 222.371 11.5429L222.627 13.1429C223.056 15.8287 222.456 17.6572 220.801 18.6858V18.7715C221.857 18.9144 222.627 19.4001 223.198 20.2572C223.741 21.1144 224.14 22.2858 224.397 23.8287L225.139 28.3715C225.253 29.1144 225.368 29.7144 225.51 30.1429C225.653 30.5715 225.824 31.0287 226.11 31.4287L221.971 32.0858C221.743 31.6858 221.6 31.3144 221.486 30.9429C221.372 30.5715 221.257 29.9144 221.086 28.9715L220.315 24.2287C220.116 23.0572 219.802 22.2572 219.345 21.8572C218.888 21.4572 218.203 21.3144 217.261 21.4858L215.863 21.7144L217.632 32.8001L213.579 33.4572L209.412 7.60009L209.355 7.54295ZM216.69 17.7429C217.49 17.6001 218.089 17.3144 218.403 16.8287C218.746 16.3429 218.831 15.6001 218.66 14.6287L218.346 12.6287C218.203 11.6858 217.918 11.0287 217.518 10.6858C217.119 10.3144 216.576 10.2001 215.863 10.3144L214.007 10.6001L215.206 18.0001L216.69 17.7715V17.7429Z" fill="white"/>
<path d="M225.282 5.20005L236.128 4.31433L236.442 8.05719L229.706 8.60005L230.306 15.8858L235.586 15.4572L235.9 19.2L230.62 19.6286L231.533 31L227.423 31.3429L225.311 5.22862L225.282 5.20005Z" fill="white"/>
<path d="M239.068 4.2001L250.286 4.08582V7.82867L243.207 7.91439L243.264 14.8287L248.916 14.7715V18.5144L243.321 18.5715L243.407 26.6287L250.514 26.543V30.2858L239.325 30.4001L239.068 4.2001Z" fill="white"/>
<path d="M253.711 4.17151L259.791 4.62865C261.903 4.80008 263.416 5.40008 264.3 6.45722C265.185 7.51437 265.556 9.05722 265.414 11.1144L265.299 12.7144C265.1 15.4287 264.072 17.0858 262.217 17.6572V17.7429C263.187 18.1144 263.844 18.7715 264.186 19.7429C264.529 20.6858 264.643 21.9429 264.529 23.4858L264.186 28.0858C264.129 28.8287 264.101 29.4287 264.129 29.9144C264.129 30.3715 264.243 30.8287 264.386 31.3144L260.219 31.0001C260.105 30.5715 260.048 30.1715 260.019 29.7715C260.019 29.4001 260.019 28.7144 260.105 27.7429L260.476 22.9715C260.561 21.7715 260.447 20.9429 260.076 20.4287C259.734 19.9144 259.077 19.6287 258.135 19.5715L256.708 19.4572L255.852 30.6572L251.741 30.3429L253.74 4.22865L253.711 4.17151ZM258.421 15.8001C259.248 15.8572 259.876 15.6858 260.304 15.3144C260.733 14.9144 261.018 14.2287 261.075 13.2287L261.218 11.2001C261.303 10.2572 261.189 9.57151 260.875 9.11437C260.561 8.65722 260.048 8.40008 259.334 8.34294L257.479 8.20008L256.908 15.6572L258.392 15.7715L258.421 15.8001Z" fill="white"/>
<path d="M266.356 30.2858C265.556 28.9715 265.357 27.2858 265.756 25.2001L266.042 23.7429L269.866 24.4572L269.524 26.2286C269.21 27.8858 269.752 28.8572 271.151 29.1144C271.836 29.2572 272.407 29.1144 272.835 28.8001C273.263 28.4572 273.577 27.8286 273.748 26.9429C273.948 25.8572 273.891 24.8572 273.548 23.9429C273.206 23.0286 272.492 21.8572 271.379 20.4572C269.981 18.6858 269.067 17.1144 268.639 15.8001C268.211 14.4858 268.125 13.0858 268.411 11.5715C268.782 9.54293 269.609 8.05721 270.837 7.14293C272.064 6.22864 273.663 5.94293 275.632 6.31435C277.573 6.68578 278.915 7.51435 279.714 8.82864C280.513 10.1429 280.684 11.8286 280.285 13.9144L280.085 14.9715L276.26 14.2572L276.517 12.9429C276.688 12.0572 276.631 11.3715 276.374 10.9144C276.117 10.4572 275.632 10.1429 274.976 10.0286C273.634 9.7715 272.806 10.4572 272.492 12.1144C272.321 13.0572 272.407 13.9715 272.749 14.8572C273.092 15.7715 273.834 16.9144 274.919 18.3144C276.346 20.1144 277.23 21.6572 277.659 22.9715C278.058 24.2858 278.115 25.7715 277.83 27.3715C277.43 29.4858 276.603 31.0001 275.347 31.9429C274.091 32.8858 272.464 33.1429 270.494 32.7715C268.525 32.4001 267.155 31.5715 266.356 30.2572V30.2858Z" fill="white"/>
<path d="M278.629 32.8C278.001 31.4 278.001 29.7143 278.629 27.6858L279.086 26.2572L282.796 27.4286L282.254 29.1429C281.74 30.7715 282.169 31.7715 283.51 32.2286C284.167 32.4286 284.737 32.4 285.223 32.1143C285.679 31.8286 286.079 31.2572 286.336 30.3715C286.678 29.3143 286.735 28.3429 286.507 27.3715C286.279 26.4286 285.708 25.2 284.794 23.6572C283.624 21.7143 282.911 20.0572 282.625 18.7143C282.34 17.3715 282.454 15.9429 282.911 14.5143C283.539 12.5429 284.509 11.1715 285.851 10.4C287.192 9.62862 288.819 9.5429 290.703 10.1715C292.587 10.7715 293.814 11.7715 294.442 13.1429C295.07 14.5429 295.041 16.2286 294.414 18.2572L294.1 19.2858L290.389 18.1143L290.789 16.8286C291.074 15.9715 291.102 15.2858 290.874 14.8C290.674 14.3143 290.246 13.9429 289.59 13.7429C288.277 13.3143 287.363 13.9143 286.878 15.5143C286.593 16.4286 286.564 17.3429 286.792 18.2858C287.021 19.2286 287.62 20.4572 288.534 21.9715C289.732 23.9143 290.446 25.5715 290.674 26.9429C290.931 28.3143 290.789 29.7715 290.303 31.3429C289.647 33.4 288.648 34.8 287.306 35.5715C285.936 36.3429 284.309 36.4286 282.397 35.8C280.484 35.2 279.229 34.2 278.601 32.8H278.629Z" fill="white"/>
<path d="M305.46 15.9714L308.97 17.8286L301.15 36.4857H301.207L312.339 19.6572L316.306 21.7714L308.599 40.4572H308.657L319.703 23.5714L322.842 25.2286L308.228 47.1429L303.69 44.7429L310.312 28.2572H310.255L300.322 42.9429L295.498 40.3714L305.431 15.9714H305.46Z" fill="white"/>
<path d="M327.409 28.1715L332.176 31.0287L322.357 55.6858L318.818 53.5715L320.844 48.7144V48.7715L316.791 46.3715L313.509 50.3715L310.226 48.4001L327.352 28.1429L327.409 28.1715ZM322.243 45.4858L327.324 33.4287H327.267L319.075 43.5715L322.243 45.4858Z" fill="white"/>
<path d="M335.458 33.0573L339.055 35.1144L331.32 54.1144H331.377L343.765 37.8287L347.047 39.7144L330.635 60.5144L325.897 57.8001L335.43 33.0858L335.458 33.0573Z" fill="white"/>
<path d="M348.075 40.2001L358.179 45.0858L356.552 48.4572L350.158 45.3715L347.161 51.6001L352.242 54.0572L350.615 57.4286L345.534 54.9715L342.023 62.2286L348.417 65.3144L346.79 68.6858L336.686 63.8001L348.075 40.2001Z" fill="white"/>
<path d="M360.89 58.0573L364.63 59.3715L363.317 63.1144L359.577 61.8001L360.89 58.0573Z" fill="white"/>
<path d="M370.738 75.6C369.996 74.2572 369.882 72.5714 370.338 70.4857L370.681 69.0286L374.477 69.9143L374.077 71.6572C373.706 73.3143 374.192 74.2857 375.59 74.6286C376.275 74.8 376.846 74.7143 377.274 74.4C377.702 74.0857 378.045 73.4572 378.245 72.5714C378.502 71.5143 378.473 70.5143 378.159 69.5714C377.874 68.6572 377.189 67.4572 376.132 66C374.819 64.1714 373.963 62.5714 373.592 61.2286C373.221 59.8857 373.193 58.4857 373.535 57C373.992 54.9714 374.877 53.5429 376.161 52.6572C377.445 51.8 379.044 51.5714 380.985 52.0286C382.897 52.4857 384.239 53.3714 384.952 54.6857C385.666 56.0286 385.809 57.7143 385.323 59.8L385.066 60.8572L381.27 59.9714L381.584 58.6572C381.784 57.7714 381.756 57.1143 381.527 56.6286C381.299 56.1429 380.842 55.8286 380.186 55.6857C378.844 55.3714 377.988 56.0286 377.617 57.6572C377.388 58.5714 377.445 59.5143 377.759 60.4286C378.073 61.3429 378.758 62.5143 379.786 63.9714C381.128 65.8286 381.984 67.4 382.326 68.7429C382.669 70.0857 382.669 71.5429 382.326 73.1429C381.841 75.2286 380.956 76.7143 379.672 77.6C378.387 78.4857 376.76 78.6857 374.791 78.2286C372.85 77.7714 371.509 76.8857 370.766 75.5429L370.738 75.6Z" fill="white"/>
<path d="M385.923 78.8286C385.038 77.5714 384.753 75.8857 385.038 73.7714L387.835 53.9714L391.917 54.5429L389.063 74.6286C388.948 75.5143 389.034 76.1714 389.319 76.6286C389.633 77.0857 390.119 77.3429 390.775 77.4286C391.432 77.5143 391.974 77.4 392.402 77.0571C392.802 76.7143 393.087 76.0857 393.201 75.2L396.056 55.1143L399.995 55.6572L397.197 75.4571C396.912 77.5429 396.141 79.0857 394.971 80.0857C393.772 81.0571 392.202 81.4 390.204 81.1429C388.235 80.8571 386.808 80.0857 385.923 78.8286Z" fill="white"/>
<path d="M401.878 55.8857L407.958 56.2857C410.07 56.4286 411.583 57.0286 412.496 58.0572C413.41 59.1143 413.781 60.6572 413.667 62.6857L413.553 64.2857C413.381 67 412.382 68.6572 410.527 69.2572V69.3429C411.497 69.7143 412.154 70.3715 412.525 71.3143C412.867 72.2572 413.01 73.5143 412.896 75.0572L412.611 79.6572C412.554 80.4 412.554 81 412.554 81.4857C412.554 81.9715 412.668 82.4 412.839 82.8857L408.672 82.6C408.558 82.1715 408.472 81.7715 408.443 81.4C408.443 81.0286 408.443 80.3429 408.5 79.3715L408.814 74.6C408.9 73.4 408.757 72.5715 408.386 72.0572C408.044 71.5715 407.387 71.2857 406.445 71.2286L405.018 71.1429L404.276 82.3429L400.166 82.0857L401.878 55.9429V55.8857ZM406.759 67.4572C407.587 67.5143 408.215 67.3429 408.643 66.9429C409.071 66.5429 409.328 65.8572 409.385 64.8572L409.528 62.8286C409.585 61.8857 409.471 61.2 409.157 60.7429C408.843 60.2857 408.329 60.0572 407.616 60L405.76 59.8857L405.275 67.3429L406.759 67.4286V67.4572Z" fill="white"/>
<path d="M416.236 56.7144L427.111 56.8572L427.053 60.6001L420.289 60.5144L420.203 67.8001L425.512 67.8572L425.455 71.6001L420.146 71.5429L420.003 82.9715L415.893 82.9144L416.236 56.7144Z" fill="white"/>
<path d="M428.538 56.8L439.755 56.4L439.869 60.1429L432.762 60.4L432.99 67.3143L438.642 67.1143L438.785 70.8572L433.133 71.0572L433.419 79.0857L440.526 78.8286L440.668 82.5715L429.451 82.9715L428.538 56.8Z" fill="white"/>
<path d="M441.354 56.3429L447.433 55.8C449.545 55.6 451.115 55.9714 452.171 56.8571C453.228 57.7429 453.855 59.2286 454.027 61.2571L454.169 62.8571C454.398 65.5714 453.656 67.3714 451.943 68.2286V68.3143C452.971 68.5143 453.713 69.0857 454.226 69.9429C454.74 70.8 455.026 72.0286 455.168 73.5714L455.568 78.1429C455.625 78.8857 455.711 79.4857 455.796 79.9429C455.882 80.4 456.053 80.8286 456.282 81.2571L452.114 81.6286C451.943 81.2286 451.8 80.8286 451.715 80.4571C451.629 80.0857 451.543 79.4286 451.458 78.4571L451.03 73.6857C450.915 72.4857 450.659 71.6857 450.23 71.2286C449.802 70.8 449.117 70.6 448.175 70.6857L446.748 70.8L447.747 81.9714L443.637 82.3429L441.325 56.2571L441.354 56.3429ZM447.918 67.0286C448.746 66.9429 449.346 66.6857 449.717 66.2286C450.088 65.7714 450.23 65.0286 450.145 64.0571L449.974 62.0571C449.888 61.1143 449.66 60.4571 449.289 60.0571C448.917 59.6571 448.375 59.5143 447.662 59.5714L445.806 59.7429L446.463 67.2L447.947 67.0571L447.918 67.0286Z" fill="white"/>
<path d="M460.078 79.4572C458.907 78.4858 458.165 76.9429 457.851 74.8572L457.623 73.3715L461.476 72.8L461.733 74.5715C461.99 76.2572 462.789 77.0001 464.216 76.7715C464.902 76.6572 465.415 76.4 465.701 75.9429C465.986 75.4858 466.072 74.8001 465.958 73.8858C465.786 72.8001 465.415 71.8858 464.787 71.1143C464.159 70.3715 463.103 69.4858 461.619 68.5429C459.735 67.3143 458.365 66.1429 457.509 65.0286C456.653 63.9143 456.139 62.6286 455.91 61.1143C455.625 59.0572 455.91 57.4 456.767 56.1143C457.652 54.8286 459.05 54.0572 461.048 53.7715C462.989 53.4858 464.559 53.8286 465.729 54.8C466.9 55.7715 467.613 57.3143 467.927 59.4286L468.07 60.5143L464.216 61.0858L464.017 59.7429C463.874 58.8572 463.617 58.2286 463.218 57.8858C462.818 57.5429 462.276 57.4 461.619 57.4858C460.249 57.6858 459.707 58.6 459.935 60.2572C460.078 61.2 460.449 62.0286 461.077 62.7715C461.705 63.5143 462.761 64.3715 464.274 65.3429C466.186 66.5715 467.556 67.7429 468.384 68.8572C469.212 69.9715 469.725 71.3429 469.954 72.9715C470.268 75.0858 469.954 76.8 469.097 78.0858C468.213 79.3715 466.785 80.1715 464.787 80.4572C462.818 80.7429 461.248 80.4 460.078 79.4286V79.4572Z" fill="white"/>
<path d="M474.435 77.2286C473.208 76.3143 472.38 74.8286 471.98 72.7429L471.695 71.2858L475.52 70.5143L475.862 72.2858C476.205 73.9429 477.061 74.6286 478.46 74.3715C479.145 74.2286 479.63 73.9143 479.887 73.4572C480.172 72.9715 480.201 72.2858 480.029 71.4C479.801 70.3143 479.373 69.4286 478.716 68.7143C478.06 68 476.947 67.2 475.405 66.3143C473.436 65.1715 472.009 64.0858 471.124 63.0286C470.239 61.9715 469.611 60.7143 469.326 59.2C468.926 57.1715 469.126 55.4858 469.925 54.1715C470.724 52.8572 472.094 52 474.064 51.6C476.005 51.2 477.575 51.4858 478.774 52.3715C480.001 53.2858 480.8 54.7715 481.228 56.8572L481.457 57.9143L477.632 58.6858L477.375 57.3715C477.204 56.4858 476.89 55.8858 476.462 55.5429C476.033 55.2 475.491 55.1143 474.835 55.2286C473.493 55.4858 472.979 56.4572 473.322 58.0858C473.522 59.0286 473.921 59.8286 474.606 60.5429C475.291 61.2572 476.376 62.0572 477.917 62.9143C479.887 64.0286 481.314 65.1429 482.199 66.2C483.084 67.2858 483.683 68.6 483.997 70.2286C484.425 72.3429 484.225 74.0572 483.426 75.4C482.627 76.7429 481.228 77.6 479.23 78C477.261 78.4 475.691 78.1429 474.464 77.2286H474.435Z" fill="white"/>
<path d="M486.109 49.3715L489.905 48.2572L497.327 67.0572H497.412L493.587 47.1715L497.897 45.9143L505.433 64.6858H505.518L501.608 44.8286L505.005 43.8286L509.857 69.7143L504.948 71.1715L498.183 54.7429H498.097L501.294 72.2286L496.071 73.7715L486.138 49.4L486.109 49.3715Z" fill="white"/>
<path d="M508.744 42.3715L513.996 40.5144L526.783 63.7715L522.901 65.143L520.447 60.4858V60.543L516.08 62.1144L517.079 67.2001L513.482 68.4858L508.715 42.3715H508.744ZM518.848 57.3715L512.769 45.8001H512.711L515.366 58.6287L518.848 57.3715Z" fill="white"/>
<path d="M517.478 39.2572L521.331 37.7143L531.322 55.6286H531.379L526.412 35.7143L529.923 34.3143L535.888 60.1429L530.808 62.1429L517.478 39.2572Z" fill="white"/>
<path d="M531.436 33.6572L541.768 29.2572L543.224 32.7143L536.688 35.4858L539.399 41.8572L544.594 39.6572L546.05 43.1143L540.855 45.3143L543.995 52.7144L550.531 49.9429L551.987 53.4001L541.654 57.8001L531.407 33.6858L531.436 33.6572Z" fill="white"/>
<path d="M553.756 36.143L557.381 34.543L558.98 38.1715L555.355 39.7715L553.756 36.143Z" fill="white"/>
<path d="M571.767 43.2572C570.397 42.6 569.284 41.3143 568.456 39.3715L567.885 38L571.453 36.4858L572.167 38.1429C572.823 39.7143 573.822 40.2 575.107 39.6572C575.763 39.3715 576.163 39 576.334 38.4572C576.505 37.9429 576.42 37.2572 576.049 36.4C575.62 35.4 575.021 34.6 574.222 34.0286C573.451 33.4572 572.195 32.8858 570.511 32.3429C568.371 31.6286 566.744 30.8286 565.659 30C564.574 29.1429 563.718 28.0286 563.119 26.6286C562.319 24.7143 562.177 23.0286 562.69 21.6C563.204 20.1429 564.403 19.0286 566.23 18.2572C568.057 17.4858 569.626 17.4286 570.996 18.0858C572.367 18.7429 573.48 20.0286 574.279 22L574.707 23L571.139 24.5143L570.625 23.2858C570.283 22.4572 569.855 21.9143 569.37 21.6858C568.884 21.4572 568.342 21.4572 567.714 21.7143C566.458 22.2572 566.144 23.2858 566.801 24.8286C567.172 25.7143 567.743 26.4286 568.542 26.9715C569.341 27.5429 570.568 28.0858 572.281 28.6286C574.45 29.3429 576.077 30.1143 577.133 31C578.189 31.8858 579.074 33.0572 579.702 34.5715C580.53 36.5429 580.701 38.2572 580.159 39.7429C579.617 41.2 578.446 42.3429 576.591 43.1429C574.764 43.9143 573.137 44 571.767 43.3429V43.2572Z" fill="white"/>
<path d="M584.754 37.8001C583.384 37.1143 582.299 35.7715 581.529 33.8001L574.393 15.1429L578.246 13.6572L585.496 32.6001C585.81 33.4286 586.21 33.9715 586.695 34.2286C587.18 34.4858 587.723 34.4858 588.351 34.2286C588.979 34.0001 589.378 33.6286 589.578 33.1143C589.778 32.6001 589.721 31.9429 589.378 31.1143L582.128 12.1715L585.839 10.7429L592.975 29.4001C593.745 31.3715 593.831 33.0858 593.26 34.5143C592.689 35.9429 591.462 37.0286 589.607 37.7429C587.751 38.4572 586.124 38.4858 584.726 37.8001H584.754Z" fill="white"/>
<path d="M589.35 9.51436L595.172 7.68578C597.199 7.05721 598.826 7.05721 600.025 7.68578C601.252 8.34293 602.165 9.62864 602.765 11.6001L603.25 13.1429C604.078 15.7429 603.735 17.6572 602.223 18.8858V18.9429C603.279 18.9429 604.135 19.3144 604.82 20.0572C605.505 20.8001 606.047 21.9429 606.504 23.4001L607.874 27.8001C608.102 28.5144 608.302 29.0858 608.502 29.5144C608.702 29.9429 608.93 30.3429 609.273 30.7144L605.277 31.9715C605.02 31.6001 604.791 31.2572 604.62 30.9144C604.449 30.5715 604.249 29.9429 603.935 29.0001L602.508 24.4286C602.137 23.2858 601.709 22.5429 601.195 22.2001C600.681 21.8572 599.968 21.8286 599.083 22.1144L597.713 22.5429L601.081 33.2572L597.142 34.4858L589.293 9.48578L589.35 9.51436ZM598.055 18.5429C598.826 18.2858 599.368 17.9144 599.625 17.3715C599.882 16.8572 599.882 16.1144 599.568 15.1429L598.969 13.2286C598.683 12.3144 598.312 11.7144 597.884 11.4286C597.456 11.1429 596.856 11.0858 596.171 11.2858L594.402 11.8572L596.657 19.0001L598.084 18.5429H598.055Z" fill="white"/>
<path d="M604.792 4.8286L615.41 2.40002L616.237 6.05717L609.644 7.57145L611.271 14.6857L616.437 13.5143L617.265 17.1715L612.099 18.3429L614.639 29.4857L610.614 30.4L604.792 4.85717V4.8286Z" fill="white"/>
<path d="M618.606 1.85717L629.738 0.400024L630.223 4.11431L623.173 5.0286L624.058 11.8857L629.653 11.1429L630.138 14.8572L624.543 15.6L625.599 23.5715L632.65 22.6572L633.135 26.3714L622.003 27.8286L618.606 1.85717Z" fill="white"/>
<path d="M633.477 0.114325L639.557 3.90751e-05C641.669 -0.0285324 643.239 0.428611 644.21 1.40004C645.209 2.37147 645.722 3.88575 645.751 5.91432V7.51433C645.837 10.2286 644.952 11.9715 643.182 12.7143V12.8C644.181 13.0858 644.895 13.6858 645.323 14.6C645.751 15.5143 645.979 16.7429 646.008 18.2858L646.093 22.8858C646.093 23.6286 646.151 24.2286 646.208 24.6858C646.265 25.1429 646.407 25.6 646.607 26.0572L642.411 26.1429C642.24 25.7143 642.154 25.3143 642.097 24.9429C642.04 24.5715 642.012 23.8858 641.983 22.9143L641.898 18.1143C641.898 16.9143 641.669 16.0858 641.27 15.6286C640.87 15.1715 640.214 14.9429 639.243 14.9429H637.816L638.016 26.2L633.906 26.2858L633.42 0.0857534L633.477 0.114325ZM639.3 11.2286C640.128 11.2286 640.727 11 641.127 10.5715C641.527 10.1429 641.726 9.42861 641.698 8.42861V6.40004C641.641 5.45718 641.469 4.77147 641.127 4.3429C640.784 3.91433 640.242 3.71433 639.529 3.7429H637.673L637.816 11.2572H639.3V11.2286Z" fill="white"/>
<path d="M648.662 24.9429C647.749 23.7143 647.378 22.0571 647.549 19.9429L647.663 18.4571L651.545 18.8L651.403 20.6C651.26 22.2857 651.888 23.2 653.315 23.3143C654 23.3714 654.571 23.2 654.942 22.8286C655.341 22.4571 655.57 21.8 655.655 20.8857C655.741 19.8 655.57 18.8 655.17 17.9429C654.742 17.0571 653.914 16 652.658 14.7143C651.089 13.0857 650.032 11.6286 649.462 10.3714C648.891 9.11429 648.662 7.71429 648.805 6.2C648.976 4.14286 649.633 2.57143 650.775 1.54286C651.916 0.514285 653.486 0.057142 655.456 0.228571C657.425 0.399999 658.852 1.08571 659.766 2.31429C660.679 3.54286 661.05 5.2 660.85 7.31429L660.765 8.4L656.883 8.05714L656.997 6.71429C657.083 5.82857 656.968 5.14286 656.654 4.71429C656.341 4.28571 655.855 4.02857 655.17 3.97143C653.8 3.85714 653.058 4.62857 652.915 6.28571C652.83 7.22857 653.001 8.14286 653.458 9C653.886 9.85714 654.742 10.9429 655.969 12.2286C657.568 13.8571 658.624 15.3143 659.166 16.6C659.709 17.8857 659.908 19.3429 659.766 20.9714C659.594 23.1143 658.909 24.7143 657.768 25.7714C656.626 26.8286 655.028 27.2571 653.03 27.0857C651.031 26.9143 649.576 26.2286 648.662 25V24.9429Z" fill="white"/>
<path d="M661.392 26.2C660.593 24.9143 660.365 23.2 660.736 21.1143L660.993 19.6286L664.818 20.3143L664.504 22.0857C664.218 23.7429 664.761 24.7143 666.159 24.9714C666.844 25.0857 667.415 24.9714 667.843 24.6571C668.271 24.3429 668.557 23.6857 668.728 22.7714C668.928 21.6857 668.842 20.6857 668.5 19.7714C668.157 18.8571 667.415 17.7143 666.302 16.3143C664.903 14.5429 663.961 13 663.533 11.6857C663.077 10.3714 662.991 8.97143 663.248 7.48572C663.619 5.45714 664.418 3.97143 665.645 3.02857C666.873 2.08572 668.471 1.8 670.441 2.14286C672.382 2.48572 673.752 3.31429 674.551 4.6C675.35 5.88572 675.55 7.6 675.179 9.68572L674.979 10.7429L671.154 10.0571L671.383 8.74286C671.554 7.85714 671.497 7.17143 671.211 6.71429C670.926 6.25714 670.469 5.94286 669.813 5.82857C668.471 5.6 667.643 6.28572 667.358 7.94286C667.187 8.88572 667.301 9.8 667.643 10.6857C668.014 11.5714 668.728 12.7429 669.87 14.1143C671.297 15.8857 672.239 17.4286 672.638 18.7429C673.067 20.0571 673.124 21.5429 672.838 23.1429C672.467 25.2571 671.639 26.7714 670.412 27.7143C669.185 28.6571 667.558 28.9429 665.56 28.6C663.59 28.2571 662.22 27.4286 661.392 26.1143V26.2Z" fill="white"/>
<path d="M685.255 5.62866L689.022 6.82866L684.684 26.5715H684.769L692.704 8.00009L696.986 9.37152L692.761 29.1429H692.819L700.668 10.5144L704.065 11.6001L693.618 35.7715L688.737 34.2287L692.305 16.8287H692.248L685.112 33.0858L679.917 31.4287L685.312 5.65723L685.255 5.62866Z" fill="white"/>
<path d="M709.231 13.7715L714.397 15.8286L708.689 41.7429L704.864 40.2286L706.091 35.1143V35.1715L701.724 33.4572L699.127 37.9429L695.587 36.5429L709.202 13.7715H709.231ZM706.947 31.7143L710.03 19.0001H709.973L703.522 30.3429L706.976 31.7143H706.947Z" fill="white"/>
<path d="M718.736 17.5715L722.532 19.2572L716.795 38.943H716.852L727.498 21.4572L730.952 22.9715L716.766 45.343L711.771 43.143L718.707 17.5715H718.736Z" fill="white"/>
<path d="M732.979 23.9429L743.14 28.6857L741.57 32.0857L735.119 29.0857L732.208 35.3714L737.317 37.7714L735.747 41.1714L730.638 38.7714L727.241 46.0572L733.692 49.0572L732.122 52.4572L721.961 47.7143L733.036 23.9714L732.979 23.9429Z" fill="white"/>
<path d="M745.994 42.3143L749.591 44L747.907 47.6L744.31 45.9143L745.994 42.3143Z" fill="white"/>
<path d="M753.044 60.7429C752.559 59.2858 752.73 57.6001 753.587 55.6572L754.186 54.2858L757.754 55.8286L757.04 57.4858C756.355 59.0286 756.669 60.1143 757.982 60.6572C758.61 60.9429 759.181 60.9429 759.695 60.7143C760.18 60.4858 760.608 59.9429 760.979 59.0858C761.407 58.0858 761.579 57.0858 761.436 56.1143C761.322 55.1429 760.865 53.8572 760.095 52.2572C759.124 50.2001 758.582 48.4858 758.439 47.1143C758.296 45.7429 758.525 44.3429 759.153 42.9429C759.98 41.0572 761.094 39.7715 762.492 39.1715C763.891 38.5715 765.518 38.6286 767.344 39.4286C769.143 40.2001 770.284 41.3429 770.77 42.7715C771.255 44.2001 771.055 45.9143 770.227 47.8572L769.799 48.8572L766.231 47.3143L766.774 46.0858C767.116 45.2572 767.23 44.6001 767.088 44.0858C766.945 43.5715 766.545 43.1715 765.917 42.9143C764.661 42.3715 763.691 42.8572 763.034 44.4001C762.663 45.2572 762.549 46.1715 762.692 47.1429C762.835 48.1143 763.291 49.4001 764.062 51.0001C765.032 53.0572 765.603 54.7715 765.689 56.1715C765.803 57.5429 765.518 59.0001 764.861 60.5143C764.005 62.4858 762.863 63.7715 761.436 64.4001C760.009 65.0286 758.353 64.9429 756.527 64.1429C754.7 63.3429 753.53 62.2286 753.044 60.7715V60.7429Z" fill="white"/>
<path d="M766.945 66.6572C766.374 65.2286 766.431 63.5143 767.173 61.5429L774.166 42.8286L778.02 44.2572L770.912 63.2572C770.598 64.0858 770.541 64.7715 770.741 65.2572C770.941 65.7429 771.341 66.1143 771.997 66.3715C772.654 66.6286 773.196 66.6 773.653 66.3715C774.109 66.1429 774.537 65.5715 774.851 64.7429L781.959 45.7429L785.669 47.1429L778.676 65.8572C777.934 67.8572 776.878 69.1715 775.508 69.8858C774.138 70.5715 772.511 70.5715 770.627 69.8858C768.772 69.1715 767.544 68.1143 766.945 66.6858V66.6572Z" fill="white"/>
<path d="M787.353 47.7144L793.233 49.3715C795.26 49.9429 796.63 50.8286 797.286 52.0572C797.943 53.2572 798 54.8572 797.458 56.8286L797.029 58.3715C796.287 61.0001 794.974 62.4001 793.033 62.6001V62.6858C793.89 63.2572 794.403 64.0286 794.546 65.0286C794.689 66.0286 794.546 67.2858 794.147 68.7715L792.891 73.2001C792.691 73.9144 792.548 74.5144 792.463 74.9715C792.377 75.4286 792.377 75.9144 792.463 76.4001L788.438 75.2572C788.409 74.8001 788.438 74.4001 788.467 74.0286C788.524 73.6572 788.666 73.0001 788.952 72.0572L790.236 67.4572C790.55 66.3144 790.607 65.4572 790.35 64.8858C790.093 64.3144 789.523 63.9144 788.609 63.6572L787.239 63.2858L784.214 74.0858L780.246 72.9715L787.325 47.7429L787.353 47.7144ZM789.722 60.0286C790.522 60.2572 791.178 60.2286 791.663 59.9144C792.177 59.6286 792.577 59.0001 792.834 58.0286L793.376 56.0858C793.633 55.1715 793.661 54.4572 793.433 53.9715C793.233 53.4858 792.776 53.1144 792.063 52.9144L790.265 52.4001L788.238 59.6001L789.665 60.0001L789.722 60.0286Z" fill="white"/>
<path d="M800.597 51.3143L811.329 53.1143L810.702 56.8L804.022 55.6858L802.824 62.8858L808.047 63.7715L807.419 67.4572L802.196 66.5715L800.312 77.8286L796.259 77.1429L800.569 51.3143H800.597Z" fill="white"/>
<path d="M811.672 53.1144L822.889 53.5715L822.747 57.3144L815.64 57.0287L815.354 63.9429L821.006 64.1715L820.863 67.9144L815.211 67.6858L814.897 75.7144L822.005 76.0001L821.862 79.743L810.644 79.2858L811.701 53.1144H811.672Z" fill="white"/>
<path d="M824.26 53.4001L830.339 53.2001C832.452 53.143 834.021 53.5715 835.02 54.5144C836.019 55.4572 836.562 56.9715 836.619 59.0001L836.676 60.6001C836.762 63.3144 835.934 65.0572 834.164 65.8572V65.943C835.163 66.2001 835.905 66.8001 836.333 67.7144C836.762 68.6287 837.018 69.8572 837.076 71.4001L837.218 76.0001C837.218 76.743 837.275 77.343 837.361 77.8001C837.418 78.2572 837.561 78.7144 837.789 79.143L833.593 79.2858C833.422 78.8572 833.308 78.4572 833.251 78.0858C833.194 77.7144 833.137 77.0287 833.108 76.0572L832.937 71.2572C832.908 70.0572 832.68 69.2287 832.28 68.7715C831.881 68.3144 831.196 68.0858 830.254 68.1144L828.827 68.1715L829.198 79.4001L825.087 79.543L824.203 53.3715L824.26 53.4001ZM830.254 64.4287C831.081 64.4287 831.681 64.1715 832.081 63.743C832.48 63.3144 832.651 62.6001 832.623 61.6001L832.566 59.5715C832.537 58.6287 832.337 57.943 831.995 57.543C831.652 57.143 831.11 56.943 830.396 56.9715L828.541 57.0287L828.798 64.5144L830.282 64.4572L830.254 64.4287Z" fill="white"/>
<path d="M841.471 77.6001C840.358 76.5429 839.73 74.9715 839.587 72.8572L839.473 71.3715L843.355 71.0858L843.498 72.8858C843.612 74.5715 844.411 75.3715 845.81 75.2572C846.495 75.2001 847.008 74.9715 847.351 74.5144C847.693 74.0858 847.808 73.4001 847.751 72.4858C847.665 71.4001 847.351 70.4572 846.78 69.6572C846.209 68.8572 845.239 67.9429 843.783 66.8572C841.985 65.4858 840.7 64.2287 839.93 63.0858C839.159 61.9429 838.731 60.6001 838.617 59.0858C838.474 57.0287 838.874 55.3715 839.816 54.1715C840.786 52.9715 842.242 52.2858 844.24 52.1429C846.209 52.0001 847.722 52.4572 848.835 53.5144C849.92 54.5715 850.548 56.1429 850.719 58.2572L850.805 59.3429L846.923 59.6287L846.809 58.2858C846.752 57.4001 846.523 56.7429 846.152 56.3715C845.781 56.0001 845.239 55.8287 844.582 55.8858C843.212 56.0001 842.584 56.8858 842.727 58.5429C842.813 59.4858 843.127 60.3429 843.697 61.1429C844.268 61.9144 845.267 62.8572 846.695 63.9144C848.521 65.2858 849.806 66.5429 850.548 67.7144C851.29 68.8858 851.718 70.2858 851.832 71.9429C852.004 74.0858 851.604 75.7715 850.634 77.0001C849.663 78.2287 848.179 78.9144 846.152 79.0572C844.154 79.2001 842.613 78.7429 841.5 77.7144L841.471 77.6001Z" fill="white"/>
<path d="M855.857 76.4001C854.715 75.4001 854.002 73.8287 853.745 71.743L853.574 70.2572L857.427 69.8001L857.655 71.5715C857.855 73.2572 858.654 74.0001 860.081 73.8287C860.766 73.743 861.28 73.4858 861.594 73.0287C861.908 72.5715 861.994 71.8858 861.88 70.9715C861.737 69.8858 861.394 68.943 860.795 68.1715C860.196 67.4001 859.168 66.5144 857.684 65.5144C855.828 64.2287 854.487 63.0287 853.659 61.9144C852.831 60.8001 852.346 59.4858 852.175 57.9715C851.918 55.9144 852.26 54.2572 853.145 53.0001C854.03 51.743 855.486 51.0001 857.455 50.7715C859.425 50.543 860.966 50.9144 862.108 51.9144C863.25 52.9144 863.935 54.4858 864.192 56.5715L864.334 57.6572L860.481 58.1144L860.31 56.7715C860.196 55.8858 859.939 55.2572 859.568 54.8858C859.196 54.5144 858.626 54.3715 857.969 54.4572C856.599 54.6287 856.028 55.543 856.228 57.2001C856.342 58.143 856.713 59.0001 857.313 59.743C857.912 60.4858 858.968 61.3715 860.424 62.3715C862.308 63.6572 863.649 64.8572 864.448 66.0001C865.248 67.143 865.733 68.5144 865.933 70.143C866.19 72.2858 865.876 73.9715 864.962 75.2287C864.049 76.4858 862.593 77.2573 860.595 77.4858C858.626 77.7144 857.056 77.343 855.886 76.343L855.857 76.4001Z" fill="white"/>
<path d="M869.729 49.5715L873.611 48.743L879.548 68.0573H879.633L877.378 47.943L881.774 47.0287L887.825 66.343H887.911L885.542 46.2573L889.024 45.5144L891.821 71.6858L886.798 72.743L881.317 55.8287H881.232L883.03 73.5144L877.692 74.6287L869.7 49.543L869.729 49.5715Z" fill="white"/>
<path d="M892.592 44.3429L897.929 42.8L909.318 66.7715L905.379 67.9143L903.21 63.1143V63.2001L898.757 64.5143L899.471 69.6572L895.817 70.7143L892.62 44.3715L892.592 44.3429ZM901.783 59.9143L896.417 48H896.36L898.243 60.9715L901.811 59.9429L901.783 59.9143Z" fill="white"/>
<path d="M901.069 41.8858L904.98 40.4858L914.399 58.6858H914.456L910.089 38.6286L913.628 37.3429L918.794 63.3429L913.657 65.2L901.041 41.9143L901.069 41.8858Z" fill="white"/>
<path d="M914.656 36.8858L924.903 32.3429L926.415 35.7715L919.908 38.6572L922.705 45L927.871 42.7143L929.384 46.1429L924.218 48.4286L927.471 55.8L933.979 52.9143L935.492 56.3429L925.245 60.8858L914.656 36.9143V36.8858Z" fill="white"/>
<path d="M936.634 38.7715L940.116 36.8572L942.029 40.3429L938.546 42.2572L936.634 38.7715Z" fill="white"/>
</g>
<defs>
<clipPath id="clip0_1_69">
<rect width="951" height="83" fill="white" transform="translate(-9)"/>
</clipPath>
</defs>
</svg>


