<svg width="1440" height="126" viewBox="0 0 1440 126" fill="none" xmlns="http://www.w3.org/2000/svg">
<path d="M-8.99998 47.8409C-8.86951 45.5421 -7.69528 43.2434 -5.4338 40.9446L-3.82467 39.3397L0.393859 43.5036L-1.5197 45.4554C-3.34628 47.2771 -3.47675 48.9687 -1.9546 50.4867C-1.21527 51.2241 -0.388961 51.5711 0.437349 51.5277C1.26366 51.4843 2.17695 50.9638 3.17722 49.9662C4.35145 48.7952 5.13427 47.494 5.48219 46.0626C5.83011 44.6313 5.91709 42.5494 5.74313 39.8602C5.52568 36.4337 5.69964 33.7012 6.26501 31.6626C6.83038 29.6241 7.96112 27.8024 9.57025 26.1542C11.7882 23.9422 14.0932 22.7711 16.4417 22.6409C18.7901 22.5542 21.0516 23.5518 23.1826 25.6771C25.3136 27.8024 26.3139 30.0144 26.1834 32.3132C26.053 34.612 24.8352 36.9108 22.5738 39.2096L21.3995 40.3807L17.181 36.2169L18.6162 34.7855C19.573 33.8313 20.0948 32.9205 20.1383 32.0964C20.1818 31.2723 19.8774 30.4915 19.1381 29.7976C17.6594 28.3229 16.0068 28.4964 14.2237 30.2747C13.2234 31.3156 12.5276 32.5301 12.1796 33.9614C11.8317 35.3928 11.7882 37.4747 11.9622 40.1638C12.2231 43.6337 12.0492 46.3662 11.4403 48.3614C10.8315 50.3566 9.65723 52.265 7.87414 54.0434C5.56917 56.3421 3.22071 57.5566 0.872249 57.6434C-1.5197 57.7301 -3.78118 56.7325 -5.95568 54.5638C-8.08669 52.3952 -9.08696 50.1397 -8.99998 47.8409Z" fill="white"/>
<path d="M8.13506 64.5398C8.00459 62.1976 8.91788 59.7687 10.9619 57.2964L30.141 33.7446L35.0119 37.6916L15.5719 61.5904C14.7021 62.6314 14.3106 63.5856 14.3541 64.4097C14.3541 65.2338 14.8325 65.9711 15.6153 66.5784C16.3982 67.229 17.2245 67.4892 18.0073 67.3591C18.8336 67.229 19.6599 66.6217 20.5297 65.5808L39.9697 41.682L44.6667 45.4988L25.4876 69.0507C23.4435 71.5663 21.269 72.9543 18.9641 73.3013C16.6591 73.6482 14.3106 72.8675 11.9187 70.9591C9.57023 69.0507 8.30902 66.9254 8.13506 64.5832V64.5398Z" fill="white"/>
<path d="M45.1016 45.759L53.3212 50.0964C56.1915 51.6145 57.8876 53.3494 58.4965 55.3879C59.1054 57.3831 58.6704 59.7687 57.2353 62.5446L56.1045 64.7132C54.191 68.3566 51.7555 70.0482 48.7982 69.7446V69.8313C49.8855 70.959 50.4073 72.2602 50.2769 73.7783C50.1464 75.2964 49.581 77.1181 48.4938 79.2L45.232 85.359C44.7102 86.3566 44.3187 87.1807 44.0578 87.8313C43.7969 88.4819 43.6229 89.1759 43.5794 89.9132L37.9257 86.9205C38.0127 86.2265 38.1867 85.6193 38.3606 85.0988C38.5781 84.5783 39.013 83.6241 39.7088 82.3229L43.101 75.9036C43.9708 74.2988 44.2753 73.041 44.1013 72.1301C43.9273 71.2193 43.188 70.4386 41.9268 69.7446L40.0132 68.747L32.0111 83.841L26.4878 80.9349L45.1016 45.759ZM44.6667 64.8C45.7539 65.3638 46.7542 65.5373 47.624 65.2771C48.4938 65.0169 49.2766 64.1928 49.9724 62.8482L51.4076 60.1157C52.06 58.8578 52.3209 57.8169 52.1904 56.9928C52.0165 56.1687 51.4946 55.5181 50.4943 54.9976L47.9719 53.653L42.6661 63.7157L44.6667 64.7566V64.8Z" fill="white"/>
<path d="M62.802 54.7373L78.5019 60.0722L76.6753 65.4506L66.9335 62.1542L63.3674 72.6506L71.0216 75.253L69.195 80.6313L61.5408 78.0289L55.9306 94.4241L50.0159 92.4289L62.8455 54.7807L62.802 54.7373Z" fill="white"/>
<path d="M79.3282 60.1591L96.0284 63.8458L94.8106 69.3976L84.2426 67.0554L81.9811 77.335L90.3747 79.2L89.1569 84.7518L80.7634 82.8868L78.1105 94.8145L88.6785 97.1566L87.4608 102.708L70.7607 99.0217L79.3717 60.2024L79.3282 60.1591Z" fill="white"/>
<path d="M99.725 63.8892L108.771 65.9277C111.902 66.6217 114.033 67.8795 115.164 69.6578C116.295 71.4361 116.469 73.8651 115.816 76.9012L115.294 79.2868C114.381 83.3205 112.468 85.5759 109.554 86.0096V86.1398C110.902 86.9205 111.728 88.0482 112.033 89.5663C112.337 91.0843 112.207 92.9494 111.685 95.2482L110.119 102.058C109.858 103.186 109.684 104.053 109.597 104.79C109.51 105.484 109.554 106.222 109.684 106.959L103.465 105.571C103.378 104.877 103.378 104.27 103.465 103.706C103.509 103.142 103.726 102.145 104.031 100.67L105.64 93.5566C106.031 91.7783 106.031 90.4771 105.64 89.653C105.205 88.8289 104.335 88.2651 102.9 87.9181L100.769 87.441L96.9851 104.053L90.8531 102.665L99.6815 63.8892H99.725ZM104.291 82.3663C105.509 82.6265 106.509 82.5398 107.249 82.0627C107.988 81.5855 108.553 80.588 108.901 79.1133L109.597 76.1205C109.902 74.7325 109.902 73.6482 109.554 72.9108C109.206 72.1735 108.467 71.6964 107.423 71.4361L104.639 70.7855L102.117 81.8458L104.335 82.3663H104.291Z" fill="white"/>
<path d="M117.382 105.961C115.99 104.096 115.425 101.581 115.729 98.3711L115.947 96.1156L121.861 96.6361L121.6 99.3686C121.383 101.928 122.34 103.316 124.471 103.533C125.515 103.619 126.384 103.402 126.95 102.839C127.515 102.275 127.907 101.277 128.037 99.8891C128.211 98.2409 127.95 96.7229 127.298 95.3783C126.645 94.0337 125.384 92.3855 123.514 90.4337C121.166 87.918 119.556 85.706 118.687 83.7976C117.817 81.8891 117.512 79.7638 117.73 77.465C118.034 74.3421 119.035 72 120.774 70.3951C122.514 68.8337 124.906 68.1831 127.95 68.4433C130.951 68.7036 133.125 69.7879 134.474 71.653C135.865 73.518 136.387 76.0337 136.083 79.2433L135.952 80.8915L130.038 80.3711L130.211 78.3325C130.342 76.9879 130.168 75.947 129.69 75.2964C129.211 74.6458 128.472 74.2554 127.428 74.1686C125.341 73.9951 124.21 75.1662 123.949 77.6819C123.818 79.1132 124.079 80.5012 124.732 81.8024C125.384 83.1036 126.645 84.7518 128.559 86.7036C130.951 89.2192 132.56 91.4313 133.386 93.3831C134.213 95.3349 134.474 97.547 134.256 100.019C133.952 103.272 132.908 105.701 131.168 107.263C129.385 108.867 126.993 109.518 123.905 109.214C120.861 108.954 118.687 107.87 117.295 106.005L117.382 105.961Z" fill="white"/>
<path d="M141.171 107.436C139.518 105.788 138.605 103.359 138.475 100.149L138.344 97.894L144.259 97.5903L144.389 100.323C144.52 102.882 145.65 104.14 147.825 104.01C148.869 103.966 149.695 103.619 150.217 102.969C150.739 102.318 150.956 101.277 150.869 99.8891C150.782 98.2409 150.347 96.7662 149.521 95.5518C148.695 94.3373 147.216 92.8626 145.085 91.2144C142.389 89.0891 140.475 87.094 139.388 85.3156C138.257 83.5373 137.648 81.4988 137.518 79.2C137.344 76.0771 138.04 73.6048 139.518 71.7831C140.997 69.9614 143.302 69.0072 146.346 68.8337C149.347 68.7036 151.652 69.4409 153.261 71.0891C154.87 72.7373 155.784 75.1662 155.958 78.3759L156.045 80.0241L150.13 80.3277L150.043 78.2891C149.956 76.9446 149.652 75.947 149.086 75.3397C148.521 74.7325 147.738 74.4723 146.694 74.5156C144.607 74.6024 143.65 75.947 143.737 78.4626C143.824 79.894 144.259 81.2385 145.129 82.453C145.998 83.6674 147.477 85.0988 149.608 86.7903C152.348 88.9156 154.261 90.9108 155.305 92.6891C156.392 94.5108 157.001 96.6361 157.132 99.1518C157.306 102.405 156.61 104.964 155.088 106.786C153.566 108.607 151.261 109.605 148.173 109.735C145.129 109.908 142.78 109.128 141.171 107.479V107.436Z" fill="white"/>
<path d="M162.525 68.2265L168.352 66.6217L179.181 95.3783H179.312L174.049 65.1036L180.66 63.2819L191.619 91.9952H191.75L186.314 61.7638L191.532 60.3325L198.186 99.759L190.663 101.841L180.79 76.7277H180.66L185.052 103.359L177.05 105.571L162.568 68.2699L162.525 68.2265Z" fill="white"/>
<path d="M196.099 58.0337L204.014 54.9542L224.541 89.653L218.714 91.9084L214.756 84.9687V85.0554L208.146 87.6578L209.929 95.3349L204.492 97.4603L196.055 58.0337H196.099ZM212.147 80.3277L202.405 63.0217H202.318L206.928 82.3663L212.19 80.3277H212.147Z" fill="white"/>
<path d="M209.189 52.9157L214.974 50.4L231.065 77.0747H231.152L222.584 47.1036L227.847 44.8048L238.241 83.6675L230.63 86.9638L209.189 52.9157Z" fill="white"/>
<path d="M230.499 43.5903L246.156 36.7373L248.461 41.9421L238.545 46.2795L242.807 55.9084L250.679 52.4385L252.984 57.6433L245.112 61.1132L250.026 72.3036L259.942 67.9662L262.247 73.171L246.591 80.0241L230.543 43.6337L230.499 43.5903Z" fill="white"/>
<path d="M264.813 47.2337L270.423 44.9783L272.685 50.5735L267.075 52.8289L264.813 47.2337Z" fill="white"/>
<path d="M291.211 59.4651C289.211 58.294 287.689 56.2121 286.689 53.1325L285.993 50.9639L291.603 49.1422L292.473 51.7446C293.256 54.1735 294.691 55.0843 296.778 54.3904C297.778 54.0434 298.474 53.5229 298.779 52.7422C299.127 51.9615 299.04 50.9205 298.605 49.5759C298.083 47.9711 297.257 46.7133 296.169 45.759C295.039 44.8048 293.256 43.7639 290.733 42.7229C287.558 41.3783 285.21 39.9904 283.688 38.559C282.122 37.1277 280.991 35.306 280.295 33.1374C279.295 30.1446 279.295 27.5856 280.295 25.4603C281.296 23.3349 283.209 21.7735 286.08 20.8627C288.95 19.9518 291.342 20.0386 293.342 21.2096C295.343 22.3807 296.822 24.4627 297.865 27.5422L298.387 29.1036L292.777 30.9253L292.125 28.9735C291.69 27.6723 291.125 26.8048 290.429 26.3711C289.733 25.9374 288.907 25.894 287.906 26.1976C285.906 26.8482 285.34 28.3663 286.123 30.7952C286.558 32.1831 287.341 33.3109 288.472 34.2651C289.602 35.2193 291.429 36.2169 293.908 37.2578C297.126 38.6024 299.475 39.9904 300.997 41.4651C302.519 42.9398 303.65 44.8482 304.432 47.2337C305.433 50.3133 305.476 52.959 304.432 55.1277C303.432 57.2964 301.475 58.8578 298.561 59.8121C295.691 60.7663 293.212 60.6362 291.211 59.5084V59.4651Z" fill="white"/>
<path d="M310.999 53.2627C309.042 51.9615 307.651 49.7495 306.868 46.6266L299.518 17.176L305.607 15.6579L313.043 45.5422C313.391 46.8434 313.87 47.7543 314.566 48.2314C315.261 48.6651 316.088 48.7952 317.088 48.535C318.088 48.2748 318.784 47.7976 319.176 47.1037C319.567 46.3663 319.61 45.3687 319.263 44.0242L311.826 14.1398L317.697 12.7085L325.047 42.1591C325.829 45.282 325.656 47.8844 324.525 49.923C323.394 51.9615 321.35 53.3928 318.393 54.0868C315.435 54.7808 313 54.5205 311.043 53.2627H310.999Z" fill="white"/>
<path d="M323.698 11.4506L332.875 9.97586C336.05 9.45538 338.485 9.84574 340.225 11.0602C341.921 12.318 343.008 14.4433 343.53 17.5228L343.921 19.9518C344.574 24.0289 343.66 26.8048 341.138 28.3662V28.4963C342.747 28.7132 343.921 29.4506 344.791 30.7518C345.617 32.053 346.226 33.8313 346.618 36.1735L347.748 43.0698C347.922 44.1976 348.096 45.1084 348.314 45.759C348.531 46.4096 348.792 47.1036 349.227 47.7108L342.921 48.7084C342.573 48.1012 342.356 47.5373 342.182 46.9734C342.008 46.4096 341.834 45.412 341.573 43.9807L340.399 36.7807C340.094 35.0024 339.616 33.7879 338.92 33.1807C338.224 32.5735 337.18 32.3566 335.745 32.6168L333.614 32.9638L336.311 49.7927L330.135 50.7903L323.785 11.5373L323.698 11.4506ZM334.875 26.9349C336.093 26.718 337.006 26.2843 337.485 25.5469C338.007 24.8096 338.137 23.6819 337.876 22.2072L337.398 19.171C337.18 17.7397 336.745 16.7421 336.137 16.2216C335.528 15.6578 334.701 15.4843 333.614 15.6578L330.787 16.0915L332.614 27.3253L334.875 26.9783V26.9349Z" fill="white"/>
<path d="M347.966 7.89402L364.492 6.54944L364.971 12.2314L354.707 13.0555L355.62 24.1157L363.666 23.4651L364.144 29.147L356.099 29.7976L357.49 47.0603L351.228 47.5808L348.009 7.93739L347.966 7.89402Z" fill="white"/>
<path d="M368.972 6.37589L386.063 6.20239V11.8843L375.278 12.0144L375.365 22.5108L383.976 22.4241V28.106L375.452 28.1928L375.582 40.4241L386.411 40.294V45.9759L369.363 46.1494L368.972 6.37589Z" fill="white"/>
<path d="M391.282 6.33252L400.545 7.0265C403.764 7.28674 406.069 8.19758 407.417 9.8024C408.765 11.4072 409.33 13.7494 409.113 16.8723L408.939 19.3012C408.635 23.4217 407.069 25.9373 404.242 26.8048V26.9349C405.721 27.4988 406.721 28.4964 407.243 29.9711C407.765 31.4024 407.939 33.3108 407.765 35.653L407.243 42.6361C407.156 43.7638 407.112 44.6747 407.156 45.412C407.156 46.106 407.33 46.8 407.547 47.5373L401.198 47.0602C401.024 46.4096 400.937 45.8024 400.893 45.1952C400.893 44.6313 400.893 43.5904 401.024 42.1157L401.589 34.8723C401.72 33.0506 401.546 31.7928 400.98 31.012C400.458 30.2313 399.458 29.7976 398.023 29.7108L395.848 29.5373L394.544 46.5397L388.281 46.0626L391.326 6.41927L391.282 6.33252ZM398.458 23.9855C399.719 24.0723 400.676 23.812 401.328 23.2482C401.981 22.641 402.415 21.6 402.502 20.0819L402.72 17.0024C402.85 15.5711 402.676 14.5301 402.198 13.8361C401.72 13.1422 400.937 12.7518 399.85 12.6651L397.023 12.4482L396.153 23.7687L398.414 23.9422L398.458 23.9855Z" fill="white"/>
<path d="M410.548 45.976C409.33 43.9808 409.026 41.4217 409.635 38.2555L410.07 36.0434L415.897 37.1278L415.375 39.8169C414.897 42.3326 415.723 43.8073 417.854 44.1976C418.898 44.4145 419.768 44.1976 420.42 43.7205C421.073 43.2001 421.551 42.2458 421.812 40.9013C422.116 39.2531 422.029 37.735 421.508 36.347C420.986 34.9591 419.898 33.1808 418.202 31.0555C416.071 28.3663 414.68 25.9808 414.027 23.9856C413.375 21.9904 413.244 19.8651 413.679 17.5663C414.245 14.4868 415.506 12.2314 417.376 10.8434C419.246 9.45547 421.682 9.02174 424.682 9.58559C427.64 10.1495 429.684 11.4073 430.901 13.4025C432.119 15.3976 432.38 17.9567 431.771 21.1229L431.467 22.7278L425.639 21.6434L426.03 19.6482C426.291 18.3037 426.204 17.2627 425.813 16.5687C425.422 15.8748 424.682 15.3976 423.682 15.2241C421.638 14.8338 420.377 15.8748 419.898 18.3904C419.637 19.8217 419.768 21.2097 420.29 22.5543C420.812 23.9422 421.942 25.6772 423.595 27.8025C425.77 30.535 427.118 32.8772 427.77 34.8723C428.379 36.8675 428.466 39.1229 428.031 41.5519C427.422 44.7615 426.161 47.0603 424.247 48.4916C422.334 49.923 419.855 50.3133 416.854 49.7495C413.853 49.1856 411.766 47.9278 410.548 45.9326V45.976Z" fill="white"/>
<path d="M429.249 49.7928C428.292 47.6675 428.292 45.1085 429.249 42.029L429.945 39.8603L435.598 41.6386L434.772 44.241C433.989 46.7133 434.642 48.2314 436.686 48.9254C437.686 49.229 438.556 49.1856 439.295 48.7519C439.991 48.3181 440.6 47.4507 440.991 46.1061C441.513 44.5013 441.6 43.0266 441.252 41.5519C440.904 40.1205 440.034 38.2555 438.643 35.9133C436.86 32.9639 435.772 30.4483 435.337 28.4097C434.902 26.3711 435.076 24.2025 435.772 22.0338C436.729 19.041 438.208 16.9591 440.252 15.788C442.296 14.6169 444.775 14.4868 447.645 15.441C450.515 16.3519 452.385 17.8699 453.342 19.9519C454.299 22.0772 454.256 24.6362 453.299 27.7157L452.82 29.2772L447.167 27.4989L447.776 25.547C448.21 24.2458 448.254 23.2049 447.906 22.4675C447.602 21.7302 446.949 21.1663 445.949 20.8627C443.948 20.2121 442.557 21.123 441.817 23.5519C441.383 24.9398 441.339 26.3278 441.687 27.7591C442.035 29.1904 442.948 31.0555 444.34 33.3543C446.166 36.3037 447.254 38.8193 447.602 40.9013C447.993 42.9832 447.776 45.1952 447.036 47.5808C446.036 50.7037 444.514 52.829 442.47 54.0001C440.382 55.1711 437.903 55.3013 434.989 54.347C432.076 53.4362 430.162 51.9181 429.205 49.7928H429.249Z" fill="white"/>
<path d="M470.129 24.2458L475.479 27.0651L463.562 55.388H463.649L480.61 29.841L486.656 33.0507L474.913 61.4169H475L491.831 35.7832L496.615 38.2989L474.348 71.5663L467.433 67.923L477.523 42.8965H477.436L462.301 65.1904L454.951 61.2868L470.086 24.2458H470.129Z" fill="white"/>
<path d="M503.573 42.7663L510.836 47.1036L495.875 84.5349L490.483 81.3253L493.571 73.9518V74.0386L487.395 70.3952L482.394 76.4675L477.392 73.4747L503.486 42.7229L503.573 42.7663ZM495.702 69.0506L503.443 50.747H503.356L490.874 66.1446L495.702 69.0506Z" fill="white"/>
<path d="M515.837 50.1831L521.317 53.306L509.531 82.1494H509.618L528.493 57.4265L533.494 60.2891L508.488 91.865L501.268 87.7446L515.794 50.2265L515.837 50.1831Z" fill="white"/>
<path d="M535.06 61.0265L550.455 68.4434L547.976 73.5614L538.235 68.8771L533.668 78.3325L541.409 82.0626L538.931 87.1807L531.189 83.4506L525.84 94.4675L535.582 99.1518L533.103 104.27L517.707 96.853L535.06 61.0265Z" fill="white"/>
<path d="M554.587 88.1349L560.284 90.1301L558.284 95.812L552.586 93.8168L554.587 88.1349Z" fill="white"/>
<path d="M569.591 114.766C568.46 112.728 568.286 110.169 568.982 107.002L569.504 104.79L575.288 106.135L574.679 108.781C574.114 111.296 574.853 112.771 576.984 113.292C578.028 113.552 578.898 113.422 579.55 112.945C580.203 112.467 580.725 111.513 581.029 110.169C581.42 108.564 581.377 107.046 580.899 105.614C580.464 104.226 579.42 102.405 577.811 100.193C575.81 97.4168 574.505 94.9879 573.94 92.9494C573.375 90.9108 573.331 88.7855 573.853 86.5301C574.549 83.4506 575.897 81.2819 577.854 79.9373C579.811 78.6361 582.247 78.2891 585.204 78.9831C588.118 79.6771 590.162 81.0216 591.249 83.0168C592.336 85.0554 592.554 87.6144 591.814 90.7807L591.423 92.3855L585.639 91.0409L586.117 89.0457C586.422 87.7012 586.378 86.7036 586.03 85.9662C585.682 85.2289 584.987 84.7518 583.986 84.5349C581.942 84.0578 580.638 85.0554 580.072 87.5277C579.724 88.9156 579.811 90.3469 580.29 91.7349C580.768 93.1228 581.812 94.9012 583.377 97.1132C585.422 99.9325 586.726 102.318 587.248 104.357C587.77 106.395 587.77 108.607 587.248 111.036C586.509 114.202 585.161 116.458 583.203 117.802C581.246 119.147 578.768 119.451 575.767 118.757C572.809 118.063 570.765 116.718 569.635 114.679L569.591 114.766Z" fill="white"/>
<path d="M592.728 119.667C591.38 117.759 590.945 115.2 591.38 111.99L595.642 81.9325L601.861 82.8L597.512 113.292C597.338 114.636 597.468 115.634 597.903 116.328C598.381 117.022 599.121 117.412 600.121 117.542C601.121 117.672 601.948 117.499 602.6 116.978C603.209 116.458 603.644 115.504 603.818 114.159L608.167 83.6674L614.168 84.4915L609.906 114.549C609.471 117.716 608.297 120.058 606.514 121.576C604.688 123.051 602.296 123.571 599.251 123.181C596.25 122.747 594.076 121.576 592.728 119.667Z" fill="white"/>
<path d="M617.039 84.8385L626.302 85.4457C629.52 85.6626 631.825 86.5734 633.217 88.1349C634.609 89.7397 635.174 92.0819 635 95.1614L634.826 97.5903C634.565 101.711 633.043 104.226 630.216 105.137V105.267C631.695 105.831 632.695 106.829 633.26 108.26C633.782 109.692 634 111.6 633.826 113.942L633.391 120.925C633.304 122.053 633.304 122.964 633.304 123.701C633.304 124.439 633.478 125.089 633.739 125.826L627.389 125.393C627.215 124.742 627.085 124.135 627.041 123.571C627.041 123.007 627.041 121.966 627.128 120.492L627.607 113.248C627.737 111.426 627.52 110.169 626.954 109.388C626.433 108.651 625.432 108.217 623.997 108.13L621.823 108L620.692 125.002L614.429 124.612L617.039 84.9252V84.8385ZM624.476 102.405C625.737 102.492 626.694 102.231 627.346 101.624C627.998 101.017 628.39 99.9759 628.477 98.4578L628.694 95.3783C628.781 93.9469 628.607 92.906 628.129 92.212C627.65 91.518 626.867 91.171 625.78 91.0843L622.953 90.9108L622.214 102.231L624.476 102.361V102.405Z" fill="white"/>
<path d="M638.914 86.0964L655.484 86.3133L655.397 91.9952L645.09 91.8651L644.959 102.925L653.048 103.012L652.961 108.694L644.872 108.607L644.655 125.957L638.392 125.87L638.914 86.0964Z" fill="white"/>
<path d="M657.658 86.2265L674.75 85.6193L674.924 91.3012L664.095 91.6916L664.443 102.188L673.054 101.884L673.271 107.566L664.66 107.87L665.095 120.058L675.924 119.667L676.142 125.349L659.05 125.957L657.658 86.2265Z" fill="white"/>
<path d="M677.185 85.5326L686.449 84.7085C689.667 84.4049 692.059 84.9687 693.668 86.3133C695.277 87.6579 696.234 89.9133 696.495 92.9928L696.712 95.4217C697.06 99.5422 695.93 102.275 693.32 103.576V103.706C694.886 104.01 696.017 104.877 696.799 106.178C697.582 107.48 698.017 109.345 698.235 111.687L698.843 118.627C698.93 119.754 699.061 120.665 699.191 121.359C699.322 122.053 699.583 122.704 699.931 123.354L693.581 123.918C693.32 123.311 693.103 122.704 692.972 122.14C692.842 121.576 692.711 120.578 692.581 119.104L691.928 111.86C691.755 110.039 691.363 108.824 690.711 108.13C690.058 107.48 689.015 107.176 687.579 107.306L685.405 107.48L686.927 124.439L680.665 125.002L677.142 85.4024L677.185 85.5326ZM687.188 101.754C688.449 101.624 689.363 101.234 689.928 100.54C690.493 99.8458 690.711 98.7181 690.58 97.2434L690.319 94.2073C690.189 92.7759 689.841 91.7783 689.276 91.1711C688.71 90.5639 687.884 90.347 686.797 90.4338L683.97 90.694L684.97 102.014L687.232 101.798L687.188 101.754Z" fill="white"/>
<path d="M705.715 120.622C703.932 119.147 702.801 116.805 702.322 113.639L701.975 111.383L707.846 110.516L708.237 113.205C708.629 115.764 709.846 116.892 712.021 116.545C713.064 116.371 713.847 115.981 714.282 115.287C714.717 114.593 714.848 113.552 714.674 112.164C714.413 110.516 713.847 109.128 712.891 107.957C711.934 106.829 710.325 105.484 708.063 104.053C705.193 102.188 703.105 100.41 701.801 98.7181C700.496 97.0265 699.713 95.0747 699.365 92.7759C698.93 89.653 699.365 87.1374 700.67 85.1856C702.018 83.2338 704.149 82.0627 707.193 81.6289C710.151 81.1952 712.543 81.7157 714.326 83.1904C716.109 84.6651 717.196 87.0073 717.674 90.2169L717.892 91.8651L712.021 92.7326L711.716 90.694C711.499 89.3494 711.107 88.3952 710.499 87.8747C709.89 87.3542 709.063 87.1374 708.063 87.2675C705.976 87.5711 705.149 88.9591 705.497 91.4747C705.715 92.9061 706.28 94.1639 707.237 95.2916C708.194 96.4193 709.803 97.7205 712.108 99.1952C715.022 101.06 717.109 102.839 718.37 104.53C719.632 106.222 720.414 108.304 720.762 110.776C721.241 113.986 720.762 116.588 719.458 118.54C718.109 120.492 715.935 121.706 712.891 122.14C709.89 122.574 707.498 122.053 705.715 120.578V120.622Z" fill="white"/>
<path d="M727.59 117.239C725.72 115.851 724.459 113.595 723.85 110.429L723.415 108.217L729.243 107.046L729.765 109.735C730.287 112.251 731.591 113.292 733.722 112.901C734.766 112.684 735.505 112.207 735.897 111.513C736.332 110.776 736.375 109.735 736.114 108.39C735.766 106.742 735.114 105.398 734.114 104.313C733.113 103.229 731.417 102.015 729.069 100.67C726.068 98.935 723.894 97.2868 722.545 95.682C721.197 94.0772 720.24 92.1687 719.805 89.8699C719.197 86.7904 719.501 84.2314 720.719 82.2362C721.936 80.241 724.024 78.9398 727.025 78.3326C729.982 77.7254 732.374 78.1591 734.201 79.5037C736.071 80.8916 737.288 83.147 737.941 86.3133L738.289 87.9181L732.461 89.0892L732.07 87.094C731.809 85.7495 731.33 84.8386 730.678 84.3181C730.026 83.7976 729.199 83.6675 728.199 83.841C726.155 84.2314 725.372 85.7061 725.894 88.1784C726.198 89.6097 726.807 90.8242 727.851 91.9085C728.895 92.9928 730.547 94.2073 732.896 95.5085C735.897 97.2001 738.071 98.8916 739.419 100.496C740.768 102.145 741.681 104.14 742.159 106.612C742.812 109.822 742.507 112.424 741.29 114.463C740.072 116.501 737.941 117.802 734.897 118.41C731.896 119.017 729.504 118.627 727.634 117.239H727.59Z" fill="white"/>
<path d="M745.378 74.9494L751.162 73.2578L762.469 101.798H762.6L756.772 71.6096L763.339 69.7012L774.82 98.1976H774.951L768.993 68.053L774.168 66.5349L781.561 105.831L774.081 108.043L763.774 83.1036H763.643L768.514 109.648L760.556 111.99L745.421 74.9927L745.378 74.9494Z" fill="white"/>
<path d="M779.865 64.3229L787.867 61.5037L807.351 96.8097L801.436 98.8916L797.696 91.8217V91.9085L791.042 94.294L792.564 102.015L787.085 103.966L779.822 64.3229H779.865ZM795.261 87.094L785.997 69.5278H785.91L789.955 89.0025L795.261 87.094Z" fill="white"/>
<path d="M793.173 59.5952L799.044 57.253L814.266 84.4482H814.353L806.786 54.2169L812.135 52.0916L821.224 91.3012L813.483 94.3373L793.173 59.5952Z" fill="white"/>
<path d="M814.44 51.0939L830.183 44.4144L832.401 49.6626L822.442 53.8699L826.574 63.5421L834.489 60.2024L836.707 65.4506L828.791 68.7903L833.575 80.0241L843.535 75.8168L845.753 81.065L830.009 87.7446L814.396 51.1373L814.44 51.0939Z" fill="white"/>
<path d="M848.449 54.8675L853.972 52.4386L856.408 57.947L850.884 60.3759L848.449 54.8675Z" fill="white"/>
<path d="M875.891 65.6675C873.804 64.6699 872.108 62.7181 870.846 59.7687L869.977 57.6868L875.413 55.388L876.5 57.9036C877.5 60.2892 879.023 61.0265 880.98 60.2024C881.98 59.7687 882.589 59.2048 882.85 58.3807C883.111 57.6 882.98 56.559 882.415 55.2578C881.762 53.7398 880.849 52.5253 879.631 51.6578C878.457 50.7904 876.544 49.9229 873.978 49.0988C870.716 48.0145 868.237 46.8 866.584 45.5422C864.932 44.241 863.627 42.5494 862.714 40.4241C861.496 37.5181 861.279 34.959 862.061 32.7904C862.844 30.5783 864.671 28.8868 867.454 27.7157C870.238 26.5446 872.629 26.4578 874.717 27.4554C876.805 28.453 878.501 30.4048 879.718 33.3976L880.371 34.9157L874.934 37.2145L874.152 35.3494C873.63 34.0916 872.977 33.2675 872.238 32.9205C871.499 32.5735 870.672 32.5735 869.716 32.9639C867.802 33.788 867.324 35.3494 868.324 37.6916C868.889 39.0361 869.759 40.1205 870.977 40.9446C872.195 41.8121 874.065 42.6362 876.674 43.4602C879.979 44.5446 882.458 45.7157 884.067 47.0602C885.677 48.4048 887.025 50.1831 887.981 52.4819C889.243 55.4747 889.504 58.0771 888.677 60.3325C887.851 62.5446 886.068 64.2795 883.241 65.494C880.458 66.6651 877.979 66.7952 875.891 65.7976V65.6675Z" fill="white"/>
<path d="M895.679 57.3832C893.592 56.3422 891.939 54.3036 890.765 51.3109L879.892 22.988L885.763 20.7326L896.81 49.4892C897.288 50.747 897.897 51.5711 898.636 51.9615C899.376 52.3518 900.202 52.3518 901.159 51.9615C902.116 51.6145 902.725 51.0506 903.029 50.2699C903.333 49.4892 903.246 48.4916 902.724 47.2338L891.678 18.4771L897.332 16.3085L908.204 44.6314C909.378 47.6241 909.509 50.2265 908.639 52.3952C907.769 54.5639 905.899 56.2121 903.072 57.2964C900.246 58.3808 897.767 58.4241 895.636 57.3832H895.679Z" fill="white"/>
<path d="M902.681 14.4433L911.553 11.6674C914.641 10.7132 917.12 10.7132 918.946 11.6674C920.816 12.665 922.208 14.6168 923.121 17.6096L923.861 19.9518C925.122 23.8988 924.6 26.8048 922.295 28.6699V28.7566C923.904 28.7566 925.209 29.3205 926.253 30.4482C927.296 31.5759 928.123 33.3108 928.819 35.5229L930.906 42.2024C931.254 43.2867 931.558 44.1542 931.863 44.8048C932.167 45.4554 932.515 46.0626 933.037 46.6265L926.948 48.5349C926.557 47.9711 926.209 47.4506 925.948 46.9301C925.687 46.4096 925.383 45.4554 924.904 44.0241L922.73 37.0843C922.165 35.3494 921.512 34.2217 920.729 33.7012C919.947 33.1807 918.859 33.1373 917.511 33.5711L915.424 34.2217L920.555 50.4867L914.554 52.3518L902.594 14.4L902.681 14.4433ZM915.945 28.1494C917.12 27.759 917.946 27.1952 918.337 26.3711C918.729 25.5903 918.729 24.4626 918.25 22.9879L917.337 20.0819C916.902 18.694 916.337 17.7831 915.685 17.3494C915.032 16.9156 914.119 16.8289 913.075 17.1325L910.379 18L913.814 28.8433L915.989 28.1494H915.945Z" fill="white"/>
<path d="M926.209 7.33018L942.387 3.64343L943.649 9.19524L933.603 11.494L936.081 22.294L943.953 20.5157L945.214 26.0675L937.343 27.8458L941.213 44.7615L935.081 46.1495L926.209 7.37355V7.33018Z" fill="white"/>
<path d="M947.258 2.81923L964.219 0.607178L964.959 6.24573L954.217 7.63368L955.565 18.0433L964.089 16.9156L964.828 22.5542L956.304 23.6819L957.913 35.7831L968.655 34.3951L969.395 40.0337L952.434 42.2457L947.258 2.81923Z" fill="white"/>
<path d="M969.917 0.173453L979.18 -4.06905e-05C982.398 -0.0434142 984.79 0.650562 986.269 2.12526C987.791 3.59996 988.574 5.89875 988.617 8.97827V11.4072C988.748 15.5277 987.4 18.1735 984.703 19.3012V19.4313C986.225 19.865 987.313 20.7759 987.965 22.1638C988.617 23.5518 988.965 25.4168 989.009 27.759L989.139 34.7421C989.139 35.8698 989.226 36.7807 989.313 37.4747C989.4 38.1686 989.618 38.8626 989.922 39.5566L983.529 39.6867C983.268 39.0361 983.138 38.4289 983.051 37.865C982.964 37.3012 982.92 36.2602 982.877 34.7855L982.746 27.4988C982.746 25.6771 982.398 24.4192 981.789 23.7253C981.181 23.0313 980.18 22.6843 978.702 22.6843H976.527L976.831 39.7735L970.569 39.9036L969.83 0.13008L969.917 0.173453ZM978.789 17.0457C980.05 17.0457 980.963 16.6988 981.572 16.0482C982.181 15.3976 982.485 14.3132 982.442 12.7951V9.71562C982.355 8.2843 982.094 7.24333 981.572 6.59273C981.05 5.94213 980.224 5.63851 979.137 5.68189H976.31L976.527 17.0891H978.789V17.0457Z" fill="white"/>
<path d="M993.053 37.8651C991.662 36 991.096 33.4844 991.357 30.2747L991.531 28.0193L997.446 28.5398L997.228 31.2723C997.011 33.8314 997.968 35.2193 1000.14 35.3928C1001.19 35.4796 1002.06 35.2193 1002.62 34.6555C1003.23 34.0916 1003.58 33.094 1003.71 31.7061C1003.84 30.0579 1003.58 28.5398 1002.97 27.2386C1002.32 25.894 1001.06 24.2892 999.142 22.3374C996.75 19.8651 995.141 17.6531 994.271 15.7446C993.401 13.8362 993.053 11.7109 993.271 9.41209C993.532 6.2892 994.532 3.90366 996.272 2.34221C998.011 0.780767 1000.4 0.0867913 1003.4 0.347032C1006.4 0.607273 1008.58 1.64824 1009.97 3.5133C1011.36 5.37836 1011.93 7.89402 1011.62 11.1037L1011.49 12.7519L1005.58 12.2314L1005.75 10.1928C1005.88 8.84824 1005.71 7.80727 1005.23 7.15667C1004.75 6.50607 1004.01 6.11571 1002.97 6.02896C1000.88 5.85547 999.751 7.02655 999.533 9.54221C999.403 10.9735 999.664 12.3615 1000.36 13.6627C1001.01 14.9639 1002.32 16.6121 1004.19 18.5639C1006.62 21.0362 1008.23 23.2482 1009.06 25.2C1009.88 27.1519 1010.19 29.3639 1009.97 31.8362C1009.71 35.0892 1008.67 37.5181 1006.93 39.1229C1005.19 40.7278 1002.75 41.3784 999.707 41.1181C996.663 40.8579 994.445 39.8169 993.053 37.9519V37.8651Z" fill="white"/>
<path d="M1012.45 39.7736C1011.23 37.8217 1010.88 35.2193 1011.45 32.0531L1011.84 29.7976L1017.67 30.8386L1017.19 33.5278C1016.76 36.0434 1017.58 37.5181 1019.71 37.9085C1020.76 38.082 1021.63 37.9085 1022.28 37.4314C1022.93 36.9543 1023.37 35.9567 1023.63 34.5687C1023.93 32.9205 1023.8 31.4025 1023.28 30.0145C1022.76 28.6266 1021.63 26.8916 1019.93 24.7663C1017.8 22.0772 1016.36 19.735 1015.71 17.7398C1015.02 15.7446 1014.89 13.6193 1015.28 11.3639C1015.84 8.28439 1017.06 6.02897 1018.93 4.59765C1020.8 3.16632 1023.24 2.73259 1026.24 3.25307C1029.19 3.77355 1031.28 5.03138 1032.5 6.98319C1033.72 8.935 1034.02 11.5374 1033.46 14.7037L1033.15 16.3085L1027.32 15.2675L1027.67 13.2723C1027.93 11.9278 1027.85 10.8868 1027.41 10.1928C1026.98 9.49885 1026.28 9.02174 1025.28 8.84825C1023.24 8.50126 1021.97 9.54223 1021.54 12.0579C1021.28 13.4892 1021.45 14.8772 1021.97 16.2217C1022.54 17.5663 1023.63 19.3446 1025.37 21.4266C1027.54 24.1157 1028.98 26.4579 1029.58 28.4531C1030.24 30.4483 1030.32 32.7037 1029.89 35.1326C1029.32 38.3422 1028.06 40.641 1026.19 42.0723C1024.32 43.5037 1021.84 43.9374 1018.8 43.4169C1015.8 42.8965 1013.71 41.6386 1012.45 39.6434V39.7736Z" fill="white"/>
<path d="M1048.81 8.54456L1054.55 10.3662L1047.94 40.3373H1048.07L1060.16 12.1446L1066.68 14.2265L1060.25 44.2409H1060.33L1072.29 15.9614L1077.47 17.6096L1061.55 54.3036L1054.11 51.9614L1059.55 25.547H1059.46L1048.59 50.2265L1040.67 47.7108L1048.89 8.58793L1048.81 8.54456Z" fill="white"/>
<path d="M1085.34 20.906L1093.21 24.0289L1084.51 63.3687L1078.69 61.0699L1080.56 53.306V53.3928L1073.9 50.7903L1069.94 57.6L1064.55 55.4747L1085.3 20.906H1085.34ZM1081.86 48.1446L1086.56 28.8434H1086.47L1076.64 46.0626L1081.9 48.1446H1081.86Z" fill="white"/>
<path d="M1099.82 26.6747L1105.61 29.2337L1096.86 59.1181H1096.95L1113.17 32.5735L1118.43 34.8723L1096.82 68.8337L1089.21 65.494L1099.78 26.6747H1099.82Z" fill="white"/>
<path d="M1121.52 36.347L1137.01 43.547L1134.61 48.7085L1124.78 44.1543L1120.35 53.6964L1128.13 57.3398L1125.74 62.5013L1117.96 58.8579L1112.78 69.9181L1122.61 74.4723L1120.22 79.6338L1104.74 72.4338L1121.61 36.3904L1121.52 36.347Z" fill="white"/>
<path d="M1141.35 64.2362L1146.83 66.7952L1144.27 72.2603L1138.79 69.7013L1141.35 64.2362Z" fill="white"/>
<path d="M1152.1 92.212C1151.36 90 1151.62 87.4409 1152.92 84.4915L1153.84 82.4096L1159.27 84.7518L1158.18 87.2674C1157.14 89.6096 1157.62 91.2578 1159.62 92.0819C1160.58 92.5156 1161.45 92.5156 1162.23 92.1686C1162.97 91.8216 1163.62 90.9976 1164.19 89.6963C1164.84 88.1783 1165.1 86.6602 1164.88 85.1855C1164.71 83.7108 1164.01 81.759 1162.84 79.3301C1161.36 76.2072 1160.53 73.6048 1160.32 71.5229C1160.1 69.4409 1160.45 67.3156 1161.4 65.1903C1162.66 62.3277 1164.36 60.3759 1166.49 59.465C1168.62 58.5542 1171.1 58.6409 1173.88 59.8554C1176.62 61.0265 1178.36 62.7614 1179.1 64.9301C1179.84 67.0988 1179.54 69.7012 1178.28 72.6506L1177.62 74.1686L1172.19 71.8265L1173.01 69.9614C1173.54 68.7036 1173.71 67.706 1173.49 66.9253C1173.28 66.1445 1172.67 65.5373 1171.71 65.147C1169.8 64.3229 1168.32 65.0602 1167.32 67.4024C1166.75 68.7036 1166.58 70.0915 1166.8 71.5662C1167.01 73.0409 1167.71 74.9927 1168.88 77.4216C1170.36 80.5445 1171.23 83.1469 1171.36 85.2722C1171.54 87.3542 1171.1 89.5662 1170.1 91.865C1168.8 94.8578 1167.06 96.8096 1164.88 97.7638C1162.71 98.718 1160.19 98.5879 1157.4 97.3735C1154.62 96.159 1152.84 94.4674 1152.1 92.2554V92.212Z" fill="white"/>
<path d="M1173.28 101.19C1172.41 99.0217 1172.49 96.4193 1173.62 93.4265L1184.28 65.0168L1190.15 67.1855L1179.32 96.0289C1178.84 97.2867 1178.76 98.3277 1179.06 99.065C1179.36 99.8024 1179.97 100.366 1180.97 100.757C1181.97 101.147 1182.8 101.104 1183.5 100.757C1184.19 100.41 1184.84 99.5422 1185.32 98.2843L1196.15 69.4409L1201.81 71.5662L1191.15 99.9759C1190.02 103.012 1188.41 105.007 1186.32 106.092C1184.24 107.133 1181.76 107.133 1178.89 106.092C1176.06 105.007 1174.19 103.402 1173.28 101.234V101.19Z" fill="white"/>
<path d="M1204.37 72.4337L1213.33 74.9494C1216.42 75.8168 1218.51 77.1614 1219.51 79.0265C1220.51 80.8482 1220.59 83.2771 1219.77 86.2699L1219.11 88.612C1217.98 92.6024 1215.98 94.7277 1213.03 95.0313V95.1614C1214.33 96.0289 1215.11 97.2 1215.33 98.7181C1215.55 100.236 1215.33 102.145 1214.72 104.4L1212.81 111.123C1212.5 112.207 1212.29 113.118 1212.16 113.812C1212.03 114.506 1212.03 115.243 1212.16 115.981L1206.02 114.246C1205.98 113.552 1206.02 112.945 1206.07 112.381C1206.15 111.817 1206.37 110.819 1206.81 109.388L1208.76 102.405C1209.24 100.67 1209.33 99.3686 1208.94 98.5012C1208.55 97.6337 1207.68 97.0265 1206.28 96.6361L1204.2 96.0723L1199.59 112.467L1193.54 110.776L1204.33 72.4771L1204.37 72.4337ZM1207.98 91.1277C1209.2 91.4747 1210.2 91.4313 1210.94 90.9542C1211.72 90.5205 1212.33 89.5662 1212.72 88.0915L1213.55 85.1421C1213.94 83.7542 1213.98 82.6699 1213.63 81.9325C1213.33 81.1952 1212.63 80.6313 1211.55 80.3277L1208.81 79.547L1205.72 90.4771L1207.89 91.0843L1207.98 91.1277Z" fill="white"/>
<path d="M1224.55 77.8988L1240.9 80.6313L1239.95 86.2265L1229.77 84.535L1227.94 95.4651L1235.9 96.8097L1234.94 102.405L1226.99 101.06L1224.12 118.149L1217.94 117.108L1224.51 77.8988H1224.55Z" fill="white"/>
<path d="M1241.42 80.6313L1258.52 81.3253L1258.3 87.0072L1247.47 86.5735L1247.03 97.0699L1255.65 97.4169L1255.43 103.099L1246.82 102.752L1246.34 114.94L1257.17 115.374L1256.95 121.055L1239.86 120.361L1241.47 80.6313H1241.42Z" fill="white"/>
<path d="M1260.6 81.065L1269.87 80.7614C1273.09 80.6747 1275.48 81.3253 1277 82.7566C1278.52 84.1879 1279.35 86.4867 1279.44 89.5662L1279.52 91.9952C1279.65 96.1156 1278.39 98.7614 1275.69 99.9759V100.106C1277.22 100.496 1278.35 101.407 1279 102.795C1279.65 104.183 1280.04 106.048 1280.13 108.39L1280.35 115.373C1280.35 116.501 1280.44 117.412 1280.57 118.106C1280.65 118.8 1280.87 119.494 1281.22 120.145L1274.83 120.361C1274.56 119.711 1274.39 119.104 1274.3 118.54C1274.22 117.976 1274.13 116.935 1274.09 115.46L1273.82 108.173C1273.78 106.352 1273.43 105.094 1272.82 104.4C1272.22 103.706 1271.17 103.359 1269.74 103.402L1267.56 103.489L1268.13 120.535L1261.87 120.752L1260.52 81.0217L1260.6 81.065ZM1269.74 97.8072C1271 97.8072 1271.91 97.4168 1272.52 96.7662C1273.13 96.1156 1273.39 95.0313 1273.35 93.5132L1273.26 90.4337C1273.22 89.0024 1272.91 87.9614 1272.39 87.3542C1271.87 86.747 1271.04 86.4434 1269.95 86.4867L1267.13 86.5735L1267.52 97.9373L1269.78 97.8506L1269.74 97.8072Z" fill="white"/>
<path d="M1286.83 117.802C1285.13 116.198 1284.18 113.812 1283.96 110.602L1283.78 108.347L1289.7 107.913L1289.92 110.646C1290.09 113.205 1291.31 114.419 1293.44 114.246C1294.48 114.159 1295.27 113.812 1295.79 113.118C1296.31 112.467 1296.48 111.427 1296.4 110.039C1296.27 108.39 1295.79 106.959 1294.92 105.745C1294.05 104.53 1292.57 103.142 1290.35 101.494C1287.61 99.4121 1285.65 97.5036 1284.48 95.7687C1283.31 94.0338 1282.65 91.9952 1282.48 89.6964C1282.26 86.5735 1282.87 84.0578 1284.31 82.2362C1285.78 80.4145 1288 79.3735 1291.05 79.1566C1294.05 78.9398 1296.35 79.6338 1298.05 81.2386C1299.7 82.8434 1300.66 85.2289 1300.92 88.4386L1301.05 90.0868L1295.13 90.5205L1294.96 88.4819C1294.87 87.1374 1294.53 86.1398 1293.96 85.5759C1293.4 85.0121 1292.57 84.7518 1291.57 84.8386C1289.48 85.0121 1288.52 86.3566 1288.74 88.8723C1288.87 90.3036 1289.35 91.6048 1290.22 92.8193C1291.09 93.9904 1292.61 95.4217 1294.79 97.0265C1297.57 99.1085 1299.53 101.017 1300.66 102.795C1301.79 104.574 1302.44 106.699 1302.62 109.214C1302.88 112.467 1302.27 115.027 1300.79 116.892C1299.31 118.757 1297.05 119.798 1293.96 120.014C1290.92 120.231 1288.57 119.537 1286.87 117.976L1286.83 117.802Z" fill="white"/>
<path d="M1308.75 115.981C1307.01 114.463 1305.92 112.077 1305.53 108.911L1305.27 106.655L1311.14 105.961L1311.49 108.651C1311.79 111.21 1313.01 112.337 1315.18 112.077C1316.23 111.947 1317.01 111.557 1317.49 110.863C1317.97 110.169 1318.1 109.128 1317.92 107.74C1317.71 106.092 1317.18 104.66 1316.27 103.489C1315.36 102.318 1313.79 100.973 1311.53 99.4554C1308.7 97.5036 1306.66 95.6819 1305.4 93.9903C1304.14 92.2988 1303.4 90.3036 1303.14 88.0048C1302.75 84.8819 1303.27 82.3662 1304.62 80.4578C1305.96 78.5494 1308.18 77.4217 1311.18 77.0747C1314.18 76.7277 1316.53 77.2915 1318.27 78.8096C1320.01 80.3277 1321.06 82.7132 1321.45 85.8795L1321.66 87.5277L1315.79 88.2217L1315.53 86.1831C1315.36 84.8385 1314.97 83.8843 1314.4 83.3204C1313.84 82.7566 1312.97 82.5397 1311.97 82.6698C1309.88 82.9301 1309.01 84.318 1309.31 86.8337C1309.49 88.265 1310.05 89.5662 1310.97 90.6939C1311.88 91.8217 1313.49 93.1662 1315.71 94.6843C1318.58 96.6361 1320.62 98.4578 1321.84 100.193C1323.06 101.928 1323.79 104.01 1324.1 106.482C1324.49 109.735 1324.01 112.294 1322.62 114.202C1321.23 116.111 1319.01 117.282 1315.97 117.629C1312.97 117.976 1310.57 117.412 1308.79 115.894L1308.75 115.981Z" fill="white"/>
<path d="M1329.88 75.253L1335.8 73.9952L1344.84 103.316H1344.97L1341.54 72.7807L1348.24 71.3928L1357.46 100.713H1357.59L1353.98 70.2217L1359.28 69.094L1363.54 108.824L1355.89 110.429L1347.54 84.7518H1347.41L1350.15 111.6L1342.02 113.292L1329.84 75.2097L1329.88 75.253Z" fill="white"/>
<path d="M1364.72 67.3157L1372.85 64.9735L1390.2 101.364L1384.2 103.099L1380.9 95.8121V95.9422L1374.11 97.9374L1375.2 105.745L1369.63 107.349L1364.76 67.3591L1364.72 67.3157ZM1378.72 90.9542L1370.55 72.8675H1370.46L1373.33 92.5591L1378.77 90.9976L1378.72 90.9542Z" fill="white"/>
<path d="M1377.64 63.5856L1383.59 61.4603L1397.95 89.0892H1398.03L1391.38 58.641L1396.77 56.6892L1404.64 96.1591L1396.81 98.9784L1377.59 63.629L1377.64 63.5856Z" fill="white"/>
<path d="M1398.34 55.9951L1413.95 49.0988L1416.25 54.3036L1406.34 58.6843L1410.6 68.3132L1418.47 64.8433L1420.78 70.0482L1412.91 73.518L1417.86 84.7084L1427.78 80.3277L1430.08 85.5325L1414.47 92.4289L1398.34 56.0385V55.9951Z" fill="white"/>
<path d="M1431.82 58.8578L1437.13 55.9518L1440.04 61.2434L1434.74 64.1494L1431.82 58.8578Z" fill="white"/>
</svg>
